SplineFontDB: 3.2
FontName: YoungSerif-Light
FullName: Young Serif Light
FamilyName: Young Serif Light
Weight: Light
Copyright: Copyright 2023 The Young Serif Project Authors \\(https://github.com/noirblancrouge/YoungSerif\\)
Version: 005.002
ItalicAngle: 0
UnderlinePosition: -125
UnderlineWidth: 50
Ascent: 800
Descent: 200
InvalidEm: 0
sfntRevision: 0x00050083
LayerCount: 2
Layer: 0 0 "Back" 1
Layer: 1 0 "Fore" 0
XUID: [1021 735 254010608 7340]
StyleMap: 0x0040
FSType: 0
OS2Version: 4
OS2_WeightWidthSlopeOnly: 0
OS2_UseTypoMetrics: 1
CreationTime: 1750244484
ModificationTime: 1752515040
PfmFamily: 17
TTFWeight: 300
TTFWidth: 5
LineGap: 0
VLineGap: 0
Panose: 2 2 7 4 4 4 6 0 2 3
OS2TypoAscent: 930
OS2TypoAOffset: 0
OS2TypoDescent: -275
OS2TypoDOffset: 0
OS2TypoLinegap: 0
OS2WinAscent: 1150
OS2WinAOffset: 0
OS2WinDescent: 275
OS2WinDOffset: 0
HheadAscent: 930
HheadAOffset: 0
HheadDescent: -275
HheadDOffset: 0
OS2SubXSize: 650
OS2SubYSize: 600
OS2SubXOff: 0
OS2SubYOff: 75
OS2SupXSize: 650
OS2SupYSize: 600
OS2SupXOff: 0
OS2SupYOff: 350
OS2StrikeYSize: 44
OS2StrikeYPos: 300
OS2CapHeight: 660
OS2XHeight: 440
OS2Vendor: 'NBR '
OS2CodePages: 00000001.00000000
OS2UnicodeRanges: 00000003.00000000.00000000.00000000
Lookup: 3 0 0 "'aalt' Access All Alternates in Latin lookup 0" { "'aalt' Access All Alternates in Latin lookup 0 subtable"  } ['aalt' ('DFLT' <'dflt' > 'latn' <'AZE ' 'CAT ' 'CRT ' 'KAZ ' 'MAH ' 'MOL ' 'NLD ' 'ROM ' 'TAT ' 'TRK ' 'dflt' > ) ]
Lookup: 1 0 0 "'smcp' Lowercase to Small Capitals in Latin lookup 1" { "'smcp' Lowercase to Small Capitals in Latin lookup 1 subtable"  } ['smcp' ('DFLT' <'dflt' > 'latn' <'AZE ' 'CAT ' 'CRT ' 'KAZ ' 'MAH ' 'MOL ' 'NLD ' 'ROM ' 'TAT ' 'TRK ' 'dflt' > ) ]
Lookup: 1 0 0 "'sinf' Scientific Inferiors in Latin lookup 2" { "'sinf' Scientific Inferiors in Latin lookup 2 subtable"  } ['sinf' ('DFLT' <'dflt' > 'latn' <'AZE ' 'CAT ' 'CRT ' 'KAZ ' 'MAH ' 'MOL ' 'NLD ' 'ROM ' 'TAT ' 'TRK ' 'dflt' > ) ]

StartChar: .notdef
Encoding: 1114112 -1 0
Width: 440
GlyphClass: 1
Flags: MW
HStem: 0 17.38 0 116 277 62 500 116 598.62 17.38
VStem: 0 26.25 0 55 188 64 385 55 413.75 26.25
LayerCount: 2
Fore
SplineSet
0 603 m 2xac40
 0 610 6 616 13 616 c 2
 427 616 l 2
 434 616 440 610 440 603 c 2
 440 13 l 2
 440 6 434 0 427 0 c 2
 13 0 l 2
 6 0 0 6 0 13 c 2
 0 603 l 2xac40
381.450195312 566.8203125 m 2xaa80
 391.23046875 581.5 382.69921875 598.610351562 364.349609375 598.610351562 c 2
 75.689453125 598.610351562 l 2
 57.33984375 598.610351562 48.7900390625 581.5 58.5703125 566.8203125 c 2
 204.120117188 347.890625 l 2
 211.450195312 335.650390625 228.5703125 335.650390625 235.900390625 347.890625 c 2
 381.450195312 566.8203125 l 2xaa80
369.73828125 127.470703125 m 2x7540
 382.948242188 106.560546875 413.768554688 117.55078125 413.768554688 141.770507812 c 2
 413.768554688 474.220703125 l 2
 413.768554688 498.440429688 382.948242188 509.440429688 369.73828125 488.530273438 c 2
 254.158203125 315.700195312 l 2
 250.848632812 312.400390625 250.848632812 303.600585938 254.158203125 300.30078125 c 2
 369.73828125 127.470703125 l 2x7540
364.348632812 17.390625 m 2xaa80
 382.698242188 17.390625 391.229492188 34.5107421875 381.44921875 49.1806640625 c 2
 235.899414062 268.12109375 l 2
 228.569335938 280.3515625 211.44921875 280.3515625 204.119140625 268.12109375 c 2
 58.5693359375 49.1806640625 l 2
 48.7890625 34.5107421875 57.3388671875 17.390625 75.6884765625 17.390625 c 2
 364.348632812 17.390625 l 2xaa80
26.259765625 141.780273438 m 2x7540
 26.259765625 117.560546875 57.080078125 106.5703125 70.2900390625 127.48046875 c 2
 185.860351562 300.310546875 l 2
 189.169921875 303.610351562 189.169921875 312.41015625 185.860351562 315.709960938 c 2
 70.2900390625 488.540039062 l 2
 57.080078125 509.450195312 26.259765625 499.540039062 26.259765625 475.330078125 c 2
 26.259765625 141.780273438 l 2x7540
EndSplineSet
EndChar

StartChar: A
Encoding: 65 65 4
Width: 642
GlyphClass: 2
Flags: MW
HStem: 640 20G<289 345 345 348.5>
AnchorPoint: "Anchor-6" 623 0 basechar 0
AnchorPoint: "Anchor-5" 315 660 basechar 0
AnchorPoint: "Anchor-4" 289 0 basechar 0
LayerCount: 2
Fore
SplineSet
577 85 m 2
 587 58 591 33 623 33 c 0
 635 33 636 28 636 20 c 2
 636 13 l 2
 636 4 632 0 623 0 c 2
 423 0 l 2
 415 0 410 4 410 13 c 2
 410 20 l 2
 410 28 411 33 423 33 c 0
 477 33 496 54 479 102 c 2
 433.370117188 231 l 1
 151.610351562 231 l 1
 101 94 l 2
 85 51 121 33 168 33 c 0
 180 33 181 28 181 20 c 2
 181 13 l 2
 181 4 176 0 168 0 c 2
 18 0 l 2
 10 0 5 4 5 13 c 2
 5 20 l 2
 5 28 6 33 18 33 c 0
 44 33 55 55 68 91 c 2
 274 649 l 2
 276 656 281 660 289 660 c 2
 345 660 l 2
 352 660 357 656 360 649 c 2
 577 85 l 2
164.580078125 268 m 1
 419.530273438 268 l 1
 291.530273438 612.719726562 l 1
 164.580078125 268 l 1
EndSplineSet
Substitution2: "Single Substitution lookup 36 subtable" ordfeminine
Substitution2: "'ss04' Style Set 4 in Latin lookup 33 subtable" u1F150
Substitution2: "'ss03' Style Set 3 in Latin lookup 31 subtable" uni24B6
Substitution2: "'c2sc' Capitals to Small Capitals in Latin lookup 11 subtable" A.sc
AlternateSubs2: "'aalt' Access All Alternates in Latin lookup 0 subtable" ordfeminine A.sc uni24B6 u1F150
Position2: "'cpsp' Capital Spacing in Latin lookup 0 subtable" dx=5 dy=0 dh=10 dv=0
EndChar

StartChar: Aacute
Encoding: 193 193 5
Width: 642
GlyphClass: 2
Flags: MW
HStem: 640 20G<289 345 345 348.5> 719 152
VStem: 253 145
AnchorPoint: "Anchor-6" 623 0 basechar 0
AnchorPoint: "Anchor-5" 347 899 basechar 0
AnchorPoint: "Anchor-4" 289 0 basechar 0
LayerCount: 2
Fore
SplineSet
577 85 m 2
 587 58 591 33 623 33 c 0
 635 33 636 28 636 20 c 2
 636 13 l 2
 636 4 632 0 623 0 c 2
 423 0 l 2
 415 0 410 4 410 13 c 2
 410 20 l 2
 410 28 411 33 423 33 c 0
 477 33 496 54 479 102 c 2
 433.370117188 231 l 1
 151.610351562 231 l 1
 101 94 l 2
 85 51 121 33 168 33 c 0
 180 33 181 28 181 20 c 2
 181 13 l 2
 181 4 176 0 168 0 c 2
 18 0 l 2
 10 0 5 4 5 13 c 2
 5 20 l 2
 5 28 6 33 18 33 c 0
 44 33 55 55 68 91 c 2
 274 649 l 2
 276 656 281 660 289 660 c 2
 345 660 l 2
 352 660 357 656 360 649 c 2
 577 85 l 2
252.98046875 729.200195312 m 1
 303.190429688 791.41015625 314.520507812 810.798828125 336.340820312 858.798828125 c 0
 340.741210938 868.478515625 349.1015625 871.478515625 359.8515625 871.478515625 c 0
 387.571289062 871.478515625 397.861328125 857.05859375 397.861328125 833.768554688 c 0
 397.861328125 784.208984375 333.361328125 752.119140625 286.28125 721.479492188 c 0
 283.2109375 719.479492188 279.970703125 718.26953125 277.440429688 718.549804688 c 0
 274.41015625 718.879882812 269.310546875 721.030273438 263.110351562 724.129882812 c 2
 252.98046875 729.200195312 l 1
164.580078125 267.999023438 m 1
 419.530273438 267.999023438 l 1
 291.530273438 612.71875 l 1
 164.580078125 267.999023438 l 1
EndSplineSet
Substitution2: "'c2sc' Capitals to Small Capitals in Latin lookup 11 subtable" Aacute.sc
AlternateSubs2: "'aalt' Access All Alternates in Latin lookup 0 subtable" Aacute.sc
Position2: "'cpsp' Capital Spacing in Latin lookup 0 subtable" dx=5 dy=0 dh=10 dv=0
EndChar

StartChar: Abreve
Encoding: 258 258 6
Width: 642
GlyphClass: 2
Flags: MW
HStem: 640 20G<289 345 345 348.5>
VStem: 193 55 383 55
AnchorPoint: "Anchor-6" 623 0 basechar 0
AnchorPoint: "Anchor-5" 315 814 basechar 0
AnchorPoint: "Anchor-4" 289 0 basechar 0
LayerCount: 2
Fore
SplineSet
577 85 m 2
 587 58 591 33 623 33 c 0
 635 33 636 28 636 20 c 2
 636 13 l 2
 636 4 632 0 623 0 c 2
 423 0 l 2
 415 0 410 4 410 13 c 2
 410 20 l 2
 410 28 411 33 423 33 c 0
 477 33 496 54 479 102 c 2
 433.370117188 231 l 1
 151.610351562 231 l 1
 101 94 l 2
 85 51 121 33 168 33 c 0
 180 33 181 28 181 20 c 2
 181 13 l 2
 181 4 176 0 168 0 c 2
 18 0 l 2
 10 0 5 4 5 13 c 2
 5 20 l 2
 5 28 6 33 18 33 c 0
 44 33 55 55 68 91 c 2
 274 649 l 2
 276 656 281 660 289 660 c 2
 345 660 l 2
 352 660 357 656 360 649 c 2
 577 85 l 2
315 711 m 0
 224 711 192.811523438 778.701171875 192.811523438 811.500976562 c 0
 192.811523438 821.500976562 197.451171875 825.291015625 207.811523438 826.500976562 c 0
 211.8515625 826.970703125 223.161132812 827.400390625 230.041015625 828.090820312 c 0
 243.12109375 829.420898438 246.880859375 826.260742188 247.4609375 811.970703125 c 0
 248.94140625 775.490234375 275.19140625 751.490234375 315.000976562 751.490234375 c 0
 354.810546875 751.490234375 381.060546875 775.490234375 382.541015625 811.969726562 c 0
 383.12109375 826.259765625 386.880859375 829.419921875 399.970703125 828.08984375 c 0
 406.840820312 827.399414062 418.150390625 826.969726562 422.190429688 826.5 c 0
 432.560546875 825.290039062 437.190429688 821.5 437.190429688 811.5 c 0
 437.190429688 778.700195312 406 711 315 711 c 0
164.58203125 268.000976562 m 1
 419.532226562 268.000976562 l 1
 291.532226562 612.720703125 l 1
 164.58203125 268.000976562 l 1
EndSplineSet
Substitution2: "'c2sc' Capitals to Small Capitals in Latin lookup 11 subtable" Abreve.sc
AlternateSubs2: "'aalt' Access All Alternates in Latin lookup 0 subtable" Abreve.sc
Position2: "'cpsp' Capital Spacing in Latin lookup 0 subtable" dx=5 dy=0 dh=10 dv=0
EndChar

StartChar: uni1EAE
Encoding: 7854 7854 7
Width: 642
GlyphClass: 2
Flags: MW
HStem: 640 20G<289 345 345 348.5> 873 152
VStem: 193 55 253 145 383 55
AnchorPoint: "Anchor-6" 623 0 basechar 0
AnchorPoint: "Anchor-5" 347 1053 basechar 0
AnchorPoint: "Anchor-4" 289 0 basechar 0
LayerCount: 2
Fore
SplineSet
577 85 m 2xf0
 587 58 591 33 623 33 c 0
 635 33 636 28 636 20 c 2
 636 13 l 2
 636 4 632 0 623 0 c 2
 423 0 l 2
 415 0 410 4 410 13 c 2
 410 20 l 2
 410 28 411 33 423 33 c 0
 477 33 496 54 479 102 c 2
 433.370117188 231 l 1
 151.610351562 231 l 1
 101 94 l 2
 85 51 121 33 168 33 c 0
 180 33 181 28 181 20 c 2
 181 13 l 2
 181 4 176 0 168 0 c 2
 18 0 l 2
 10 0 5 4 5 13 c 2
 5 20 l 2
 5 28 6 33 18 33 c 0
 44 33 55 55 68 91 c 2
 274 649 l 2
 276 656 281 660 289 660 c 2
 345 660 l 2
 352 660 357 656 360 649 c 2
 577 85 l 2xf0
315 711 m 0
 224 711 192.811523438 778.701171875 192.811523438 811.500976562 c 0
 192.811523438 821.500976562 197.451171875 825.291015625 207.811523438 826.500976562 c 0
 211.8515625 826.970703125 223.161132812 827.400390625 230.041015625 828.090820312 c 0
 243.12109375 829.420898438 246.880859375 826.260742188 247.4609375 811.970703125 c 0
 248.94140625 775.490234375 275.19140625 751.490234375 315.000976562 751.490234375 c 0
 354.810546875 751.490234375 381.060546875 775.490234375 382.541015625 811.969726562 c 0
 383.12109375 826.259765625 386.880859375 829.419921875 399.970703125 828.08984375 c 0
 406.840820312 827.399414062 418.150390625 826.969726562 422.190429688 826.5 c 0
 432.560546875 825.290039062 437.190429688 821.5 437.190429688 811.5 c 0xe8
 437.190429688 778.700195312 406 711 315 711 c 0
252.982421875 883.041015625 m 1xf0
 303.192382812 945.250976562 314.522460938 964.650390625 336.342773438 1012.65039062 c 0
 340.743164062 1022.33007812 349.103515625 1025.31054688 359.853515625 1025.31054688 c 0
 387.573242188 1025.31054688 397.86328125 1010.890625 397.86328125 987.610351562 c 0
 397.86328125 938.05078125 333.36328125 905.9609375 286.283203125 875.321289062 c 0
 283.212890625 873.321289062 279.97265625 872.12109375 277.442382812 872.391601562 c 0
 274.412109375 872.721679688 269.3125 874.881835938 263.112304688 877.981445312 c 2
 252.982421875 883.041015625 l 1xf0
164.58203125 268 m 1
 419.532226562 268 l 1
 291.532226562 612.719726562 l 1
 164.58203125 268 l 1
EndSplineSet
Substitution2: "'c2sc' Capitals to Small Capitals in Latin lookup 11 subtable" uni1EAE.sc
AlternateSubs2: "'aalt' Access All Alternates in Latin lookup 0 subtable" uni1EAE.sc
Position2: "'cpsp' Capital Spacing in Latin lookup 0 subtable" dx=5 dy=0 dh=10 dv=0
EndChar

StartChar: uni1EB6
Encoding: 7862 7862 8
Width: 642
GlyphClass: 2
Flags: MW
HStem: -172 115 640 20G<289 345 345 348.5>
VStem: 193 55 231 116 383 55
AnchorPoint: "Anchor-6" 623 0 basechar 0
AnchorPoint: "Anchor-5" 315 814 basechar 0
AnchorPoint: "Anchor-4" 289 0 basechar 0
LayerCount: 2
Fore
SplineSet
577 85 m 2xd8
 587 58 591 33 623 33 c 0
 635 33 636 28 636 20 c 2
 636 13 l 2
 636 4 632 0 623 0 c 2
 423 0 l 2
 415 0 410 4 410 13 c 2
 410 20 l 2
 410 28 411 33 423 33 c 0
 477 33 496 54 479 102 c 2
 433.370117188 231 l 1
 151.610351562 231 l 1
 101 94 l 2
 85 51 121 33 168 33 c 0
 180 33 181 28 181 20 c 2
 181 13 l 2
 181 4 176 0 168 0 c 2
 18 0 l 2
 10 0 5 4 5 13 c 2
 5 20 l 2
 5 28 6 33 18 33 c 0
 44 33 55 55 68 91 c 2
 274 649 l 2
 276 656 281 660 289 660 c 2
 345 660 l 2
 352 660 357 656 360 649 c 2
 577 85 l 2xd8
289.059570312 -56.4599609375 m 0
 303.059570312 -56.4599609375 314.4296875 -61.7099609375 328.4296875 -75.7099609375 c 0
 342.4296875 -89.7099609375 347.6796875 -100.209960938 347.6796875 -114.209960938 c 0
 347.6796875 -128.209960938 341.559570312 -139.580078125 328.4296875 -152.700195312 c 0
 314.4296875 -166.700195312 303.059570312 -171.950195312 289.059570312 -171.950195312 c 0
 275.939453125 -171.950195312 265.439453125 -166.700195312 250.569335938 -152.700195312 c 0
 236.569335938 -139.580078125 231.319335938 -128.209960938 231.319335938 -114.209960938 c 0
 231.319335938 -100.209960938 236.569335938 -89.7099609375 250.569335938 -75.7099609375 c 0
 264.569335938 -61.7099609375 275.939453125 -56.4599609375 289.059570312 -56.4599609375 c 0
315 711 m 0
 224 711 192.811523438 778.701171875 192.811523438 811.500976562 c 0
 192.811523438 821.500976562 197.451171875 825.291015625 207.811523438 826.500976562 c 0
 211.8515625 826.970703125 223.161132812 827.400390625 230.041015625 828.090820312 c 0
 243.12109375 829.420898438 246.880859375 826.260742188 247.4609375 811.970703125 c 0xe8
 248.94140625 775.490234375 275.19140625 751.490234375 315.000976562 751.490234375 c 0
 354.810546875 751.490234375 381.060546875 775.490234375 382.541015625 811.969726562 c 0
 383.12109375 826.259765625 386.880859375 829.419921875 399.970703125 828.08984375 c 0
 406.840820312 827.399414062 418.150390625 826.969726562 422.190429688 826.5 c 0
 432.560546875 825.290039062 437.190429688 821.5 437.190429688 811.5 c 0
 437.190429688 778.700195312 406 711 315 711 c 0
164.58203125 268.000976562 m 1
 419.532226562 268.000976562 l 1
 291.532226562 612.720703125 l 1
 164.58203125 268.000976562 l 1
EndSplineSet
Substitution2: "'c2sc' Capitals to Small Capitals in Latin lookup 11 subtable" uni1EB6.sc
AlternateSubs2: "'aalt' Access All Alternates in Latin lookup 0 subtable" uni1EB6.sc
Position2: "'cpsp' Capital Spacing in Latin lookup 0 subtable" dx=5 dy=0 dh=10 dv=0
EndChar

StartChar: uni1EB0
Encoding: 7856 7856 9
Width: 642
GlyphClass: 2
Flags: MW
HStem: 640 20G<289 345 345 348.5> 873 152
VStem: 193 55 239 145 383 55
AnchorPoint: "Anchor-6" 623 0 basechar 0
AnchorPoint: "Anchor-5" 290 1053 basechar 0
AnchorPoint: "Anchor-4" 289 0 basechar 0
LayerCount: 2
Fore
SplineSet
577 85 m 2xd0
 587 58 591 33 623 33 c 0
 635 33 636 28 636 20 c 2
 636 13 l 2
 636 4 632 0 623 0 c 2
 423 0 l 2
 415 0 410 4 410 13 c 2
 410 20 l 2
 410 28 411 33 423 33 c 0
 477 33 496 54 479 102 c 2
 433.370117188 231 l 1
 151.610351562 231 l 1
 101 94 l 2
 85 51 121 33 168 33 c 0
 180 33 181 28 181 20 c 2
 181 13 l 2
 181 4 176 0 168 0 c 2
 18 0 l 2
 10 0 5 4 5 13 c 2
 5 20 l 2
 5 28 6 33 18 33 c 0
 44 33 55 55 68 91 c 2
 274 649 l 2
 276 656 281 660 289 660 c 2
 345 660 l 2
 352 660 357 656 360 649 c 2
 577 85 l 2xd0
315 711 m 0
 224 711 192.811523438 778.701171875 192.811523438 811.500976562 c 0
 192.811523438 821.500976562 197.451171875 825.291015625 207.811523438 826.500976562 c 0
 211.8515625 826.970703125 223.161132812 827.400390625 230.041015625 828.090820312 c 0
 243.12109375 829.420898438 246.880859375 826.260742188 247.4609375 811.970703125 c 0xe0
 248.94140625 775.490234375 275.19140625 751.490234375 315.000976562 751.490234375 c 0
 354.810546875 751.490234375 381.060546875 775.490234375 382.541015625 811.969726562 c 0
 383.12109375 826.259765625 386.880859375 829.419921875 399.970703125 828.08984375 c 0
 406.840820312 827.399414062 418.150390625 826.969726562 422.190429688 826.5 c 0
 432.560546875 825.290039062 437.190429688 821.5 437.190429688 811.5 c 0xc8
 437.190429688 778.700195312 406 711 315 711 c 0
373.891601562 877.98046875 m 2
 367.69140625 874.880859375 362.590820312 872.720703125 359.560546875 872.390625 c 0
 357.030273438 872.12109375 353.790039062 873.321289062 350.73046875 875.321289062 c 0
 303.640625 905.9609375 239.140625 938.05078125 239.140625 987.610351562 c 0
 239.140625 1010.890625 249.440429688 1025.31054688 277.150390625 1025.31054688 c 0
 287.900390625 1025.31054688 296.260742188 1022.33007812 300.661132812 1012.65039062 c 0
 322.481445312 964.650390625 333.811523438 945.25 384.021484375 883.040039062 c 1xd0
 373.891601562 877.98046875 l 2
164.581054688 268 m 1
 419.53125 268 l 1
 291.53125 612.719726562 l 1
 164.581054688 268 l 1
EndSplineSet
Substitution2: "'c2sc' Capitals to Small Capitals in Latin lookup 11 subtable" uni1EB0.sc
AlternateSubs2: "'aalt' Access All Alternates in Latin lookup 0 subtable" uni1EB0.sc
Position2: "'cpsp' Capital Spacing in Latin lookup 0 subtable" dx=5 dy=0 dh=10 dv=0
EndChar

StartChar: uni1EB2
Encoding: 7858 7858 10
Width: 642
GlyphClass: 2
Flags: MW
HStem: 640 20G<289 345 345 348.5> 966 57
VStem: 193 55 329 47 383 55
AnchorPoint: "Anchor-6" 623 0 basechar 0
AnchorPoint: "Anchor-5" 315 1100 basechar 0
AnchorPoint: "Anchor-4" 289 0 basechar 0
LayerCount: 2
Fore
SplineSet
577 85 m 2
 587 58 591 33 623 33 c 0
 635 33 636 28 636 20 c 2
 636 13 l 2
 636 4 632 0 623 0 c 2
 423 0 l 2
 415 0 410 4 410 13 c 2
 410 20 l 2
 410 28 411 33 423 33 c 0
 477 33 496 54 479 102 c 2
 433.370117188 231 l 1
 151.610351562 231 l 1
 101 94 l 2
 85 51 121 33 168 33 c 0
 180 33 181 28 181 20 c 2
 181 13 l 2
 181 4 176 0 168 0 c 2
 18 0 l 2
 10 0 5 4 5 13 c 2
 5 20 l 2
 5 28 6 33 18 33 c 0
 44 33 55 55 68 91 c 2
 274 649 l 2
 276 656 281 660 289 660 c 2
 345 660 l 2
 352 660 357 656 360 649 c 2
 577 85 l 2
315 711 m 0
 224 711 192.811523438 778.701171875 192.811523438 811.500976562 c 0
 192.811523438 821.500976562 197.451171875 825.291015625 207.811523438 826.500976562 c 0
 211.8515625 826.970703125 223.161132812 827.400390625 230.041015625 828.090820312 c 0
 243.12109375 829.420898438 246.880859375 826.260742188 247.4609375 811.970703125 c 0
 248.94140625 775.490234375 275.19140625 751.490234375 315.000976562 751.490234375 c 0
 354.810546875 751.490234375 381.060546875 775.490234375 382.541015625 811.969726562 c 0
 383.12109375 826.259765625 386.880859375 829.419921875 399.970703125 828.08984375 c 0
 406.840820312 827.399414062 418.150390625 826.969726562 422.190429688 826.5 c 0
 432.560546875 825.290039062 437.190429688 821.5 437.190429688 811.5 c 0
 437.190429688 778.700195312 406 711 315 711 c 0
339.171875 875.7109375 m 0
 332.58203125 867.100585938 303.58203125 887.311523438 306.942382812 893.28125 c 0
 315.211914062 907.94140625 329.362304688 922.591796875 329.362304688 942.151367188 c 0
 329.362304688 958.521484375 317.921875 966.251953125 303.58203125 966.251953125 c 0
 286.01171875 966.251953125 274.291992188 952.58203125 270.6015625 959.091796875 c 0
 263.921875 970.8515625 251.872070312 985.541992188 254.921875 1000.39160156 c 0
 256.662109375 1008.80175781 280.001953125 1022.8515625 309.001953125 1022.8515625 c 0
 359.702148438 1022.8515625 376.001953125 983.821289062 376.001953125 955.8515625 c 0
 376.001953125 932.411132812 362.171875 905.161132812 339.171875 875.7109375 c 0
164.572265625 268.001953125 m 1
 419.522460938 268.001953125 l 1
 291.522460938 612.721679688 l 1
 164.572265625 268.001953125 l 1
EndSplineSet
Substitution2: "'c2sc' Capitals to Small Capitals in Latin lookup 11 subtable" uni1EB2.sc
AlternateSubs2: "'aalt' Access All Alternates in Latin lookup 0 subtable" uni1EB2.sc
Position2: "'cpsp' Capital Spacing in Latin lookup 0 subtable" dx=5 dy=0 dh=10 dv=0
EndChar

StartChar: uni1EB4
Encoding: 7860 7860 11
Width: 642
GlyphClass: 2
Flags: MW
HStem: 640 20G<289 345 345 348.5> 883 42 967 41
VStem: 178 46 193 55 383 55 406 46
AnchorPoint: "Anchor-6" 623 0 basechar 0
AnchorPoint: "Anchor-5" 315 999 basechar 0
AnchorPoint: "Anchor-4" 289 0 basechar 0
LayerCount: 2
Fore
SplineSet
577 85 m 2xf4
 587 58 591 33 623 33 c 0
 635 33 636 28 636 20 c 2
 636 13 l 2
 636 4 632 0 623 0 c 2
 423 0 l 2
 415 0 410 4 410 13 c 2
 410 20 l 2
 410 28 411 33 423 33 c 0
 477 33 496 54 479 102 c 2
 433.370117188 231 l 1
 151.610351562 231 l 1
 101 94 l 2
 85 51 121 33 168 33 c 0
 180 33 181 28 181 20 c 2
 181 13 l 2
 181 4 176 0 168 0 c 2
 18 0 l 2
 10 0 5 4 5 13 c 2
 5 20 l 2
 5 28 6 33 18 33 c 0
 44 33 55 55 68 91 c 2
 274 649 l 2
 276 656 281 660 289 660 c 2
 345 660 l 2
 352 660 357 656 360 649 c 2
 577 85 l 2xf4
315 711 m 0
 224 711 192.811523438 778.701171875 192.811523438 811.500976562 c 0
 192.811523438 821.500976562 197.451171875 825.291015625 207.811523438 826.500976562 c 0
 211.8515625 826.970703125 223.161132812 827.400390625 230.041015625 828.090820312 c 0
 243.12109375 829.420898438 246.880859375 826.260742188 247.4609375 811.970703125 c 0xec
 248.94140625 775.490234375 275.19140625 751.490234375 315.000976562 751.490234375 c 0
 354.810546875 751.490234375 381.060546875 775.490234375 382.541015625 811.969726562 c 0
 383.12109375 826.259765625 386.880859375 829.419921875 399.970703125 828.08984375 c 0
 406.840820312 827.399414062 418.150390625 826.969726562 422.190429688 826.5 c 0
 432.560546875 825.290039062 437.190429688 821.5 437.190429688 811.5 c 0
 437.190429688 778.700195312 406 711 315 711 c 0
329.551757812 956.901367188 m 0
 344.952148438 933.081054688 357.592773438 924.858398438 372.993164062 924.858398438 c 0
 392.993164062 924.858398438 405.993164062 940.578125 405.993164062 961.858398438 c 0
 405.993164062 972.598632812 403.853515625 984.258789062 397.803710938 996.119140625 c 1
 406.11328125 1002.91894531 416.393554688 1008.859375 424.993164062 1008.859375 c 0
 438.252929688 1008.859375 451.993164062 985.299804688 451.993164062 957.859375 c 0xf2
 451.993164062 911.01953125 418.643554688 882.859375 382.993164062 882.859375 c 0
 331.783203125 882.859375 314.333007812 910.009765625 300.762695312 933.26953125 c 0
 286.79296875 958.419921875 273.392578125 966.860351562 257.9921875 966.860351562 c 0
 237.9921875 966.860351562 223.9921875 949.260742188 223.9921875 928.860351562 c 0
 223.9921875 917.700195312 226.852539062 906.0703125 233.052734375 894.510742188 c 1
 224.692382812 887.750976562 214.251953125 881.861328125 204.9921875 881.861328125 c 0
 192.682617188 881.861328125 177.9921875 905.061523438 177.9921875 931.861328125 c 0xf4
 177.9921875 979.571289062 212.232421875 1007.86132812 247.9921875 1007.86132812 c 0
 298.341796875 1007.86132812 316.551757812 978.861328125 329.551757812 956.901367188 c 0
164.572265625 268.008789062 m 1
 419.522460938 268.008789062 l 1
 291.522460938 612.728515625 l 1
 164.572265625 268.008789062 l 1
EndSplineSet
Substitution2: "'c2sc' Capitals to Small Capitals in Latin lookup 11 subtable" uni1EB4.sc
AlternateSubs2: "'aalt' Access All Alternates in Latin lookup 0 subtable" uni1EB4.sc
Position2: "'cpsp' Capital Spacing in Latin lookup 0 subtable" dx=5 dy=0 dh=10 dv=0
EndChar

StartChar: uni01CD
Encoding: 461 461 12
Width: 642
GlyphClass: 2
Flags: MW
HStem: 640 20G<289 345 345 348.5> 726 131
VStem: 196 238
AnchorPoint: "Anchor-6" 623 0 basechar 0
AnchorPoint: "Anchor-5" 315 845 basechar 0
AnchorPoint: "Anchor-4" 289 0 basechar 0
LayerCount: 2
Fore
SplineSet
577 85 m 2
 587 58 591 33 623 33 c 0
 635 33 636 28 636 20 c 2
 636 13 l 2
 636 4 632 0 623 0 c 2
 423 0 l 2
 415 0 410 4 410 13 c 2
 410 20 l 2
 410 28 411 33 423 33 c 0
 477 33 496 54 479 102 c 2
 433.370117188 231 l 1
 151.610351562 231 l 1
 101 94 l 2
 85 51 121 33 168 33 c 0
 180 33 181 28 181 20 c 2
 181 13 l 2
 181 4 176 0 168 0 c 2
 18 0 l 2
 10 0 5 4 5 13 c 2
 5 20 l 2
 5 28 6 33 18 33 c 0
 44 33 55 55 68 91 c 2
 274 649 l 2
 276 656 281 660 289 660 c 2
 345 660 l 2
 352 660 357 656 360 649 c 2
 577 85 l 2
315 785.080078125 m 1
 333.0703125 819.120117188 363.641601562 857.33984375 403.241210938 857.33984375 c 0
 424.090820312 857.33984375 433.810546875 837.189453125 433.810546875 814.259765625 c 0
 433.810546875 803.83984375 433.120117188 794.799804688 425.48046875 791.330078125 c 0
 385.180664062 776.040039062 364.331054688 765.620117188 315.000976562 726.020507812 c 1
 265.670898438 765.620117188 244.821289062 776.040039062 204.521484375 791.330078125 c 0
 196.881835938 794.799804688 196.19140625 803.83984375 196.19140625 814.259765625 c 0
 196.19140625 837.189453125 205.911132812 857.33984375 226.760742188 857.33984375 c 0
 266.360351562 857.33984375 296.940429688 819.120117188 315 785.080078125 c 1
164.581054688 268 m 1
 419.53125 268 l 1
 291.53125 612.719726562 l 1
 164.581054688 268 l 1
EndSplineSet
Substitution2: "'c2sc' Capitals to Small Capitals in Latin lookup 11 subtable" uni01CD.sc
AlternateSubs2: "'aalt' Access All Alternates in Latin lookup 0 subtable" uni01CD.sc
Position2: "'cpsp' Capital Spacing in Latin lookup 0 subtable" dx=5 dy=0 dh=10 dv=0
EndChar

StartChar: Acircumflex
Encoding: 194 194 13
Width: 642
GlyphClass: 2
Flags: MW
HStem: 640 20G<289 345 345 348.5> 718 131
VStem: 196 238
AnchorPoint: "Anchor-7" 315 742 basechar 0
AnchorPoint: "Anchor-6" 623 0 basechar 0
AnchorPoint: "Anchor-5" 315 799 basechar 0
AnchorPoint: "Anchor-4" 289 0 basechar 0
LayerCount: 2
Fore
SplineSet
577 85 m 2
 587 58 591 33 623 33 c 0
 635 33 636 28 636 20 c 2
 636 13 l 2
 636 4 632 0 623 0 c 2
 423 0 l 2
 415 0 410 4 410 13 c 2
 410 20 l 2
 410 28 411 33 423 33 c 0
 477 33 496 54 479 102 c 2
 433.370117188 231 l 1
 151.610351562 231 l 1
 101 94 l 2
 85 51 121 33 168 33 c 0
 180 33 181 28 181 20 c 2
 181 13 l 2
 181 4 176 0 168 0 c 2
 18 0 l 2
 10 0 5 4 5 13 c 2
 5 20 l 2
 5 28 6 33 18 33 c 0
 44 33 55 55 68 91 c 2
 274 649 l 2
 276 656 281 660 289 660 c 2
 345 660 l 2
 352 660 357 656 360 649 c 2
 577 85 l 2
315 789.919921875 m 1
 296.940429688 755.879882812 266.359375 717.66015625 226.759765625 717.66015625 c 0
 205.91015625 717.66015625 196.190429688 737.810546875 196.190429688 760.740234375 c 0
 196.190429688 771.16015625 196.880859375 780.200195312 204.520507812 783.669921875 c 0
 244.8203125 798.959960938 265.669921875 809.379882812 315 848.979492188 c 1
 364.330078125 809.379882812 385.1796875 798.959960938 425.479492188 783.669921875 c 0
 433.119140625 780.200195312 433.809570312 771.16015625 433.809570312 760.740234375 c 0
 433.809570312 737.810546875 424.08984375 717.66015625 403.240234375 717.66015625 c 0
 363.640625 717.66015625 333.0703125 755.879882812 315 789.919921875 c 1
164.579101562 268 m 1
 419.529296875 268 l 1
 291.529296875 612.719726562 l 1
 164.579101562 268 l 1
EndSplineSet
Substitution2: "'c2sc' Capitals to Small Capitals in Latin lookup 11 subtable" Acircumflex.sc
AlternateSubs2: "'aalt' Access All Alternates in Latin lookup 0 subtable" Acircumflex.sc
Position2: "'cpsp' Capital Spacing in Latin lookup 0 subtable" dx=5 dy=0 dh=10 dv=0
EndChar

StartChar: uni1EA4
Encoding: 7844 7844 14
Width: 642
GlyphClass: 2
Flags: MW
HStem: 640 20G<289 345 345 348.5> 718 131 811 152
VStem: 196 238 395 145
AnchorPoint: "Anchor-7" 489 991 basechar 0
AnchorPoint: "Anchor-6" 623 0 basechar 0
AnchorPoint: "Anchor-5" 315 799 basechar 0
AnchorPoint: "Anchor-4" 289 0 basechar 0
LayerCount: 2
Fore
SplineSet
577 85 m 2xc8
 587 58 591 33 623 33 c 0
 635 33 636 28 636 20 c 2
 636 13 l 2
 636 4 632 0 623 0 c 2
 423 0 l 2
 415 0 410 4 410 13 c 2
 410 20 l 2
 410 28 411 33 423 33 c 0
 477 33 496 54 479 102 c 2
 433.370117188 231 l 1xd0
 151.610351562 231 l 1
 101 94 l 2
 85 51 121 33 168 33 c 0
 180 33 181 28 181 20 c 2
 181 13 l 2
 181 4 176 0 168 0 c 2
 18 0 l 2
 10 0 5 4 5 13 c 2
 5 20 l 2
 5 28 6 33 18 33 c 0
 44 33 55 55 68 91 c 2
 274 649 l 2
 276 656 281 660 289 660 c 2
 345 660 l 2
 352 660 357 656 360 649 c 2
 577 85 l 2xc8
315 789.919921875 m 1
 296.940429688 755.879882812 266.359375 717.66015625 226.759765625 717.66015625 c 0
 205.91015625 717.66015625 196.190429688 737.810546875 196.190429688 760.740234375 c 0
 196.190429688 771.16015625 196.880859375 780.200195312 204.520507812 783.669921875 c 0
 244.8203125 798.959960938 265.669921875 809.379882812 315 848.979492188 c 1
 364.330078125 809.379882812 385.1796875 798.959960938 425.479492188 783.669921875 c 0
 433.119140625 780.200195312 433.809570312 771.16015625 433.809570312 760.740234375 c 0
 433.809570312 737.810546875 424.08984375 717.66015625 403.240234375 717.66015625 c 0
 363.640625 717.66015625 333.0703125 755.879882812 315 789.919921875 c 1
394.689453125 820.729492188 m 1xc8
 444.899414062 882.939453125 456.228515625 902.33984375 478.048828125 950.33984375 c 0
 482.44921875 960.01953125 490.809570312 963 501.569335938 963 c 0
 529.279296875 963 539.569335938 948.580078125 539.569335938 925.299804688 c 0
 539.569335938 875.740234375 475.079101562 843.650390625 427.989257812 813.010742188 c 0
 424.918945312 811.010742188 421.678710938 809.810546875 419.159179688 810.080078125 c 0xa8
 416.119140625 810.41015625 411.029296875 812.5703125 404.819335938 815.669921875 c 2
 394.689453125 820.729492188 l 1xc8
164.578125 268 m 1
 419.528320312 268 l 1
 291.528320312 612.719726562 l 1
 164.578125 268 l 1
EndSplineSet
Substitution2: "'c2sc' Capitals to Small Capitals in Latin lookup 11 subtable" uni1EA4.sc
AlternateSubs2: "'aalt' Access All Alternates in Latin lookup 0 subtable" uni1EA4.sc
Position2: "'cpsp' Capital Spacing in Latin lookup 0 subtable" dx=5 dy=0 dh=10 dv=0
EndChar

StartChar: uni1EAC
Encoding: 7852 7852 15
Width: 642
GlyphClass: 2
Flags: MW
HStem: -172 115 640 20G<289 345 345 348.5> 718 131
VStem: 196 238 231 116
AnchorPoint: "Anchor-7" 315 742 basechar 0
AnchorPoint: "Anchor-6" 623 0 basechar 0
AnchorPoint: "Anchor-5" 315 799 basechar 0
AnchorPoint: "Anchor-4" 289 0 basechar 0
LayerCount: 2
Fore
SplineSet
577 85 m 2xf0
 587 58 591 33 623 33 c 0
 635 33 636 28 636 20 c 2
 636 13 l 2
 636 4 632 0 623 0 c 2
 423 0 l 2
 415 0 410 4 410 13 c 2
 410 20 l 2
 410 28 411 33 423 33 c 0
 477 33 496 54 479 102 c 2
 433.370117188 231 l 1
 151.610351562 231 l 1
 101 94 l 2
 85 51 121 33 168 33 c 0
 180 33 181 28 181 20 c 2
 181 13 l 2
 181 4 176 0 168 0 c 2
 18 0 l 2
 10 0 5 4 5 13 c 2
 5 20 l 2
 5 28 6 33 18 33 c 0
 44 33 55 55 68 91 c 2
 274 649 l 2
 276 656 281 660 289 660 c 2
 345 660 l 2
 352 660 357 656 360 649 c 2
 577 85 l 2xf0
289.059570312 -56.4599609375 m 0
 303.059570312 -56.4599609375 314.4296875 -61.7099609375 328.4296875 -75.7099609375 c 0
 342.4296875 -89.7099609375 347.6796875 -100.209960938 347.6796875 -114.209960938 c 0
 347.6796875 -128.209960938 341.559570312 -139.580078125 328.4296875 -152.700195312 c 0
 314.4296875 -166.700195312 303.059570312 -171.950195312 289.059570312 -171.950195312 c 0
 275.939453125 -171.950195312 265.439453125 -166.700195312 250.569335938 -152.700195312 c 0
 236.569335938 -139.580078125 231.319335938 -128.209960938 231.319335938 -114.209960938 c 0xe8
 231.319335938 -100.209960938 236.569335938 -89.7099609375 250.569335938 -75.7099609375 c 0
 264.569335938 -61.7099609375 275.939453125 -56.4599609375 289.059570312 -56.4599609375 c 0
315 789.919921875 m 1
 296.940429688 755.879882812 266.359375 717.66015625 226.759765625 717.66015625 c 0
 205.91015625 717.66015625 196.190429688 737.810546875 196.190429688 760.740234375 c 0
 196.190429688 771.16015625 196.880859375 780.200195312 204.520507812 783.669921875 c 0
 244.8203125 798.959960938 265.669921875 809.379882812 315 848.979492188 c 1
 364.330078125 809.379882812 385.1796875 798.959960938 425.479492188 783.669921875 c 0
 433.119140625 780.200195312 433.809570312 771.16015625 433.809570312 760.740234375 c 0xf0
 433.809570312 737.810546875 424.08984375 717.66015625 403.240234375 717.66015625 c 0
 363.640625 717.66015625 333.0703125 755.879882812 315 789.919921875 c 1
164.579101562 268 m 1
 419.529296875 268 l 1
 291.529296875 612.719726562 l 1
 164.579101562 268 l 1
EndSplineSet
Substitution2: "'c2sc' Capitals to Small Capitals in Latin lookup 11 subtable" uni1EAC.sc
AlternateSubs2: "'aalt' Access All Alternates in Latin lookup 0 subtable" uni1EAC.sc
Position2: "'cpsp' Capital Spacing in Latin lookup 0 subtable" dx=5 dy=0 dh=10 dv=0
EndChar

StartChar: uni1EA6
Encoding: 7846 7846 16
Width: 642
GlyphClass: 2
Flags: MW
HStem: 640 20G<289 345 345 348.5> 718 131 811 152
VStem: 95 145 196 238
AnchorPoint: "Anchor-7" 146 991 basechar 0
AnchorPoint: "Anchor-6" 623 0 basechar 0
AnchorPoint: "Anchor-5" 315 799 basechar 0
AnchorPoint: "Anchor-4" 289 0 basechar 0
LayerCount: 2
Fore
SplineSet
577 85 m 2xa8
 587 58 591 33 623 33 c 0
 635 33 636 28 636 20 c 2
 636 13 l 2
 636 4 632 0 623 0 c 2
 423 0 l 2
 415 0 410 4 410 13 c 2
 410 20 l 2
 410 28 411 33 423 33 c 0
 477 33 496 54 479 102 c 2
 433.370117188 231 l 1
 151.610351562 231 l 1
 101 94 l 2
 85 51 121 33 168 33 c 0
 180 33 181 28 181 20 c 2
 181 13 l 2
 181 4 176 0 168 0 c 2
 18 0 l 2
 10 0 5 4 5 13 c 2
 5 20 l 2
 5 28 6 33 18 33 c 0
 44 33 55 55 68 91 c 2
 274 649 l 2
 276 656 281 660 289 660 c 2
 345 660 l 2
 352 660 357 656 360 649 c 2
 577 85 l 2xa8
315 789.919921875 m 1
 296.940429688 755.879882812 266.359375 717.66015625 226.759765625 717.66015625 c 0
 205.91015625 717.66015625 196.190429688 737.810546875 196.190429688 760.740234375 c 0
 196.190429688 771.16015625 196.880859375 780.200195312 204.520507812 783.669921875 c 0
 244.8203125 798.959960938 265.669921875 809.379882812 315 848.979492188 c 1
 364.330078125 809.379882812 385.1796875 798.959960938 425.479492188 783.669921875 c 0
 433.119140625 780.200195312 433.809570312 771.16015625 433.809570312 760.740234375 c 0
 433.809570312 737.810546875 424.08984375 717.66015625 403.240234375 717.66015625 c 0xc8
 363.640625 717.66015625 333.0703125 755.879882812 315 789.919921875 c 1
230.069335938 815.669921875 m 2
 223.869140625 812.5703125 218.768554688 810.41015625 215.73828125 810.080078125 c 0
 213.208007812 809.810546875 209.967773438 811.010742188 206.908203125 813.010742188 c 0
 159.818359375 843.650390625 95.318359375 875.740234375 95.318359375 925.299804688 c 0
 95.318359375 948.580078125 105.618164062 963 133.328125 963 c 0xb0
 144.078125 963 152.438476562 960.01953125 156.838867188 950.33984375 c 0
 178.659179688 902.33984375 189.989257812 882.939453125 240.19921875 820.729492188 c 1xd0
 230.069335938 815.669921875 l 2
164.578125 268 m 1
 419.528320312 268 l 1
 291.528320312 612.719726562 l 1
 164.578125 268 l 1
EndSplineSet
Substitution2: "'c2sc' Capitals to Small Capitals in Latin lookup 11 subtable" uni1EA6.sc
AlternateSubs2: "'aalt' Access All Alternates in Latin lookup 0 subtable" uni1EA6.sc
Position2: "'cpsp' Capital Spacing in Latin lookup 0 subtable" dx=5 dy=0 dh=10 dv=0
EndChar

StartChar: uni1EA8
Encoding: 7848 7848 17
Width: 642
GlyphClass: 2
Flags: MW
HStem: 640 20G<289 345 345 348.5> 718 131 904 57
VStem: 196 238 415 47
AnchorPoint: "Anchor-7" 401 1038 basechar 0
AnchorPoint: "Anchor-6" 623 0 basechar 0
AnchorPoint: "Anchor-5" 315 799 basechar 0
AnchorPoint: "Anchor-4" 289 0 basechar 0
LayerCount: 2
Fore
SplineSet
577 85 m 2xf0
 587 58 591 33 623 33 c 0
 635 33 636 28 636 20 c 2
 636 13 l 2
 636 4 632 0 623 0 c 2
 423 0 l 2
 415 0 410 4 410 13 c 2
 410 20 l 2
 410 28 411 33 423 33 c 0
 477 33 496 54 479 102 c 2
 433.370117188 231 l 1
 151.610351562 231 l 1
 101 94 l 2
 85 51 121 33 168 33 c 0
 180 33 181 28 181 20 c 2
 181 13 l 2
 181 4 176 0 168 0 c 2
 18 0 l 2
 10 0 5 4 5 13 c 2
 5 20 l 2
 5 28 6 33 18 33 c 0
 44 33 55 55 68 91 c 2
 274 649 l 2
 276 656 281 660 289 660 c 2
 345 660 l 2
 352 660 357 656 360 649 c 2
 577 85 l 2xf0
315 789.919921875 m 1
 296.940429688 755.879882812 266.359375 717.66015625 226.759765625 717.66015625 c 0
 205.91015625 717.66015625 196.190429688 737.810546875 196.190429688 760.740234375 c 0
 196.190429688 771.16015625 196.880859375 780.200195312 204.520507812 783.669921875 c 0
 244.8203125 798.959960938 265.669921875 809.379882812 315 848.979492188 c 1
 364.330078125 809.379882812 385.1796875 798.959960938 425.479492188 783.669921875 c 0
 433.119140625 780.200195312 433.809570312 771.16015625 433.809570312 760.740234375 c 0
 433.809570312 737.810546875 424.08984375 717.66015625 403.240234375 717.66015625 c 0
 363.640625 717.66015625 333.0703125 755.879882812 315 789.919921875 c 1
425.168945312 813.400390625 m 0
 418.579101562 804.790039062 389.579101562 825.000976562 392.939453125 830.970703125 c 0
 401.208984375 845.630859375 415.359375 860.28125 415.359375 879.840820312 c 0
 415.359375 896.2109375 403.918945312 903.94140625 389.579101562 903.94140625 c 0
 372.008789062 903.94140625 360.2890625 890.271484375 356.598632812 896.78125 c 0
 349.918945312 908.541015625 337.869140625 923.231445312 340.918945312 938.081054688 c 0
 342.659179688 946.491210938 365.999023438 960.541015625 394.999023438 960.541015625 c 0
 445.69921875 960.541015625 461.999023438 921.510742188 461.999023438 893.541015625 c 0xe8
 461.999023438 870.100585938 448.168945312 842.850585938 425.168945312 813.400390625 c 0
164.569335938 268.000976562 m 1
 419.51953125 268.000976562 l 1
 291.51953125 612.720703125 l 1
 164.569335938 268.000976562 l 1
EndSplineSet
Substitution2: "'c2sc' Capitals to Small Capitals in Latin lookup 11 subtable" uni1EA8.sc
AlternateSubs2: "'aalt' Access All Alternates in Latin lookup 0 subtable" uni1EA8.sc
Position2: "'cpsp' Capital Spacing in Latin lookup 0 subtable" dx=5 dy=0 dh=10 dv=0
EndChar

StartChar: uni1EAA
Encoding: 7850 7850 18
Width: 642
GlyphClass: 2
Flags: MW
HStem: 640 20G<289 345 345 348.5> 718 131 868 42 952 41
VStem: 178 46 196 238 406 46
AnchorPoint: "Anchor-7" 315 742 basechar 0
AnchorPoint: "Anchor-6" 623 0 basechar 0
AnchorPoint: "Anchor-5" 315 984 basechar 0
AnchorPoint: "Anchor-4" 289 0 basechar 0
LayerCount: 2
Fore
SplineSet
577 85 m 2xfa
 587 58 591 33 623 33 c 0
 635 33 636 28 636 20 c 2
 636 13 l 2
 636 4 632 0 623 0 c 2
 423 0 l 2
 415 0 410 4 410 13 c 2
 410 20 l 2
 410 28 411 33 423 33 c 0
 477 33 496 54 479 102 c 2
 433.370117188 231 l 1xf4
 151.610351562 231 l 1
 101 94 l 2
 85 51 121 33 168 33 c 0
 180 33 181 28 181 20 c 2
 181 13 l 2
 181 4 176 0 168 0 c 2
 18 0 l 2
 10 0 5 4 5 13 c 2
 5 20 l 2
 5 28 6 33 18 33 c 0
 44 33 55 55 68 91 c 2
 274 649 l 2
 276 656 281 660 289 660 c 2
 345 660 l 2
 352 660 357 656 360 649 c 2
 577 85 l 2xfa
315 789.919921875 m 1
 296.940429688 755.879882812 266.359375 717.66015625 226.759765625 717.66015625 c 0
 205.91015625 717.66015625 196.190429688 737.810546875 196.190429688 760.740234375 c 0
 196.190429688 771.16015625 196.880859375 780.200195312 204.520507812 783.669921875 c 0
 244.8203125 798.959960938 265.669921875 809.379882812 315 848.979492188 c 1
 364.330078125 809.379882812 385.1796875 798.959960938 425.479492188 783.669921875 c 0
 433.119140625 780.200195312 433.809570312 771.16015625 433.809570312 760.740234375 c 0
 433.809570312 737.810546875 424.08984375 717.66015625 403.240234375 717.66015625 c 0
 363.640625 717.66015625 333.0703125 755.879882812 315 789.919921875 c 1
329.548828125 942.5 m 0
 344.94921875 918.6796875 357.58984375 910.4375 372.990234375 910.4375 c 0
 392.990234375 910.4375 405.990234375 926.16796875 405.990234375 947.438476562 c 0
 405.990234375 958.188476562 403.850585938 969.848632812 397.80078125 981.698242188 c 1
 406.110351562 988.498046875 416.390625 994.438476562 424.990234375 994.438476562 c 0
 438.25 994.438476562 451.990234375 970.87890625 451.990234375 943.438476562 c 0
 451.990234375 896.598632812 418.640625 868.438476562 382.990234375 868.438476562 c 0
 331.780273438 868.438476562 314.330078125 895.588867188 300.759765625 918.848632812 c 0
 286.790039062 944.008789062 273.389648438 952.438476562 257.989257812 952.438476562 c 0
 237.989257812 952.438476562 223.989257812 934.838867188 223.989257812 914.438476562 c 0
 223.989257812 903.288085938 226.849609375 891.6484375 233.049804688 880.088867188 c 1
 224.689453125 873.329101562 214.249023438 867.439453125 204.989257812 867.439453125 c 0
 192.6796875 867.439453125 177.989257812 890.649414062 177.989257812 917.439453125 c 0xfa
 177.989257812 965.159179688 212.229492188 993.439453125 247.989257812 993.439453125 c 0
 298.338867188 993.439453125 316.548828125 964.459960938 329.548828125 942.5 c 0
164.569335938 267.998046875 m 1
 419.51953125 267.998046875 l 1
 291.51953125 612.717773438 l 1
 164.569335938 267.998046875 l 1
EndSplineSet
Substitution2: "'c2sc' Capitals to Small Capitals in Latin lookup 11 subtable" uni1EAA.sc
AlternateSubs2: "'aalt' Access All Alternates in Latin lookup 0 subtable" uni1EAA.sc
Position2: "'cpsp' Capital Spacing in Latin lookup 0 subtable" dx=5 dy=0 dh=10 dv=0
EndChar

StartChar: uni0200
Encoding: 512 512 19
Width: 642
GlyphClass: 2
Flags: MW
HStem: 640 20G<289 345 345 348.5> 719 152
VStem: 178 145 350 145
AnchorPoint: "Anchor-6" 623 0 basechar 0
AnchorPoint: "Anchor-5" 315 899 basechar 0
AnchorPoint: "Anchor-4" 289 0 basechar 0
LayerCount: 2
Fore
SplineSet
577 85 m 2
 587 58 591 33 623 33 c 0
 635 33 636 28 636 20 c 2
 636 13 l 2
 636 4 632 0 623 0 c 2
 423 0 l 2
 415 0 410 4 410 13 c 2
 410 20 l 2
 410 28 411 33 423 33 c 0
 477 33 496 54 479 102 c 2
 433.370117188 231 l 1
 151.610351562 231 l 1
 101 94 l 2
 85 51 121 33 168 33 c 0
 180 33 181 28 181 20 c 2
 181 13 l 2
 181 4 176 0 168 0 c 2
 18 0 l 2
 10 0 5 4 5 13 c 2
 5 20 l 2
 5 28 6 33 18 33 c 0
 44 33 55 55 68 91 c 2
 274 649 l 2
 276 656 281 660 289 660 c 2
 345 660 l 2
 352 660 357 656 360 649 c 2
 577 85 l 2
485.240234375 724.129882812 m 2
 479.040039062 721.030273438 473.940429688 718.880859375 470.91015625 718.55078125 c 0
 468.379882812 718.270507812 465.139648438 719.48046875 462.069335938 721.48046875 c 0
 414.989257812 752.120117188 350.489257812 784.209960938 350.489257812 833.76953125 c 0
 350.489257812 857.059570312 360.779296875 871.479492188 388.499023438 871.479492188 c 0
 399.249023438 871.479492188 407.609375 868.479492188 412.009765625 858.799804688 c 0
 433.830078125 810.799804688 445.16015625 791.41015625 495.370117188 729.200195312 c 1
 485.240234375 724.129882812 l 2
312.629882812 724.130859375 m 2
 306.419921875 721.03125 301.319335938 718.881835938 298.2890625 718.551757812 c 0
 295.758789062 718.271484375 292.518554688 719.481445312 289.458984375 721.481445312 c 0
 242.369140625 752.12109375 177.87890625 784.2109375 177.87890625 833.770507812 c 0
 177.87890625 857.060546875 188.168945312 871.48046875 215.87890625 871.48046875 c 0
 226.62890625 871.48046875 234.999023438 868.48046875 239.399414062 858.80078125 c 0
 261.219726562 810.80078125 272.549804688 791.411132812 322.75 729.201171875 c 1
 312.629882812 724.130859375 l 2
164.579101562 268.001953125 m 1
 419.529296875 268.001953125 l 1
 291.529296875 612.721679688 l 1
 164.579101562 268.001953125 l 1
EndSplineSet
Substitution2: "'c2sc' Capitals to Small Capitals in Latin lookup 11 subtable" uni0200.sc
AlternateSubs2: "'aalt' Access All Alternates in Latin lookup 0 subtable" uni0200.sc
Position2: "'cpsp' Capital Spacing in Latin lookup 0 subtable" dx=5 dy=0 dh=10 dv=0
EndChar

StartChar: Adieresis
Encoding: 196 196 20
Width: 642
GlyphClass: 2
Flags: MW
HStem: 640 20G<289 345 345 348.5> 727 115
VStem: 155 116 360 116
AnchorPoint: "Anchor-6" 623 0 basechar 0
AnchorPoint: "Anchor-5" 315 845 basechar 0
AnchorPoint: "Anchor-4" 289 0 basechar 0
LayerCount: 2
Fore
SplineSet
577 85 m 2
 587 58 591 33 623 33 c 0
 635 33 636 28 636 20 c 2
 636 13 l 2
 636 4 632 0 623 0 c 2
 423 0 l 2
 415 0 410 4 410 13 c 2
 410 20 l 2
 410 28 411 33 423 33 c 0
 477 33 496 54 479 102 c 2
 433.370117188 231 l 1
 151.610351562 231 l 1
 101 94 l 2
 85 51 121 33 168 33 c 0
 180 33 181 28 181 20 c 2
 181 13 l 2
 181 4 176 0 168 0 c 2
 18 0 l 2
 10 0 5 4 5 13 c 2
 5 20 l 2
 5 28 6 33 18 33 c 0
 44 33 55 55 68 91 c 2
 274 649 l 2
 276 656 281 660 289 660 c 2
 345 660 l 2
 352 660 357 656 360 649 c 2
 577 85 l 2
212.459960938 842.740234375 m 0
 226.459960938 842.740234375 237.83984375 837.490234375 251.83984375 823.490234375 c 0
 265.83984375 809.490234375 271.08984375 798.990234375 271.08984375 784.990234375 c 0
 271.08984375 770.990234375 264.969726562 759.620117188 251.83984375 746.5 c 0
 237.83984375 732.5 226.459960938 727.25 212.459960938 727.25 c 0
 199.33984375 727.25 188.83984375 732.5 173.969726562 746.5 c 0
 159.969726562 759.620117188 154.719726562 770.990234375 154.719726562 784.990234375 c 0
 154.719726562 798.990234375 159.969726562 809.490234375 173.969726562 823.490234375 c 0
 187.969726562 837.490234375 199.33984375 842.740234375 212.459960938 842.740234375 c 0
417.459960938 842.740234375 m 0
 431.459960938 842.740234375 442.83984375 837.490234375 456.830078125 823.490234375 c 0
 470.830078125 809.490234375 476.080078125 798.990234375 476.080078125 784.990234375 c 0
 476.080078125 770.990234375 469.959960938 759.620117188 456.830078125 746.5 c 0
 442.83984375 732.5 431.459960938 727.25 417.459960938 727.25 c 0
 404.33984375 727.25 393.83984375 732.5 378.969726562 746.5 c 0
 364.969726562 759.620117188 359.719726562 770.990234375 359.719726562 784.990234375 c 0
 359.719726562 798.990234375 364.969726562 809.490234375 378.969726562 823.490234375 c 0
 392.969726562 837.490234375 404.33984375 842.740234375 417.459960938 842.740234375 c 0
164.580078125 268 m 1
 419.530273438 268 l 1
 291.530273438 612.719726562 l 1
 164.580078125 268 l 1
EndSplineSet
Substitution2: "'c2sc' Capitals to Small Capitals in Latin lookup 11 subtable" Adieresis.sc
AlternateSubs2: "'aalt' Access All Alternates in Latin lookup 0 subtable" Adieresis.sc
Position2: "'cpsp' Capital Spacing in Latin lookup 0 subtable" dx=5 dy=0 dh=10 dv=0
EndChar

StartChar: uni1EA0
Encoding: 7840 7840 21
Width: 642
GlyphClass: 2
Flags: MW
HStem: -172 115 640 20G<289 345 345 348.5>
VStem: 231 116
AnchorPoint: "Anchor-6" 623 0 basechar 0
AnchorPoint: "Anchor-5" 315 660 basechar 0
AnchorPoint: "Anchor-4" 289 0 basechar 0
LayerCount: 2
Fore
SplineSet
577 85 m 2
 587 58 591 33 623 33 c 0
 635 33 636 28 636 20 c 2
 636 13 l 2
 636 4 632 0 623 0 c 2
 423 0 l 2
 415 0 410 4 410 13 c 2
 410 20 l 2
 410 28 411 33 423 33 c 0
 477 33 496 54 479 102 c 2
 433.370117188 231 l 1
 151.610351562 231 l 1
 101 94 l 2
 85 51 121 33 168 33 c 0
 180 33 181 28 181 20 c 2
 181 13 l 2
 181 4 176 0 168 0 c 2
 18 0 l 2
 10 0 5 4 5 13 c 2
 5 20 l 2
 5 28 6 33 18 33 c 0
 44 33 55 55 68 91 c 2
 274 649 l 2
 276 656 281 660 289 660 c 2
 345 660 l 2
 352 660 357 656 360 649 c 2
 577 85 l 2
289.059570312 -56.4599609375 m 0
 303.059570312 -56.4599609375 314.4296875 -61.7099609375 328.4296875 -75.7099609375 c 0
 342.4296875 -89.7099609375 347.6796875 -100.209960938 347.6796875 -114.209960938 c 0
 347.6796875 -128.209960938 341.559570312 -139.580078125 328.4296875 -152.700195312 c 0
 314.4296875 -166.700195312 303.059570312 -171.950195312 289.059570312 -171.950195312 c 0
 275.939453125 -171.950195312 265.439453125 -166.700195312 250.569335938 -152.700195312 c 0
 236.569335938 -139.580078125 231.319335938 -128.209960938 231.319335938 -114.209960938 c 0
 231.319335938 -100.209960938 236.569335938 -89.7099609375 250.569335938 -75.7099609375 c 0
 264.569335938 -61.7099609375 275.939453125 -56.4599609375 289.059570312 -56.4599609375 c 0
164.579101562 268 m 1
 419.529296875 268 l 1
 291.529296875 612.719726562 l 1
 164.579101562 268 l 1
EndSplineSet
Substitution2: "'c2sc' Capitals to Small Capitals in Latin lookup 11 subtable" uni1EA0.sc
AlternateSubs2: "'aalt' Access All Alternates in Latin lookup 0 subtable" uni1EA0.sc
Position2: "'cpsp' Capital Spacing in Latin lookup 0 subtable" dx=5 dy=0 dh=10 dv=0
EndChar

StartChar: Agrave
Encoding: 192 192 22
Width: 642
GlyphClass: 2
Flags: MW
HStem: 640 20G<289 345 345 348.5> 719 152
VStem: 239 145
AnchorPoint: "Anchor-6" 623 0 basechar 0
AnchorPoint: "Anchor-5" 290 899 basechar 0
AnchorPoint: "Anchor-4" 289 0 basechar 0
LayerCount: 2
Fore
SplineSet
577 85 m 2
 587 58 591 33 623 33 c 0
 635 33 636 28 636 20 c 2
 636 13 l 2
 636 4 632 0 623 0 c 2
 423 0 l 2
 415 0 410 4 410 13 c 2
 410 20 l 2
 410 28 411 33 423 33 c 0
 477 33 496 54 479 102 c 2
 433.370117188 231 l 1
 151.610351562 231 l 1
 101 94 l 2
 85 51 121 33 168 33 c 0
 180 33 181 28 181 20 c 2
 181 13 l 2
 181 4 176 0 168 0 c 2
 18 0 l 2
 10 0 5 4 5 13 c 2
 5 20 l 2
 5 28 6 33 18 33 c 0
 44 33 55 55 68 91 c 2
 274 649 l 2
 276 656 281 660 289 660 c 2
 345 660 l 2
 352 660 357 656 360 649 c 2
 577 85 l 2
373.889648438 724.129882812 m 2
 367.689453125 721.030273438 362.588867188 718.880859375 359.55859375 718.55078125 c 0
 357.028320312 718.270507812 353.788085938 719.48046875 350.728515625 721.48046875 c 0
 303.638671875 752.120117188 239.138671875 784.209960938 239.138671875 833.76953125 c 0
 239.138671875 857.059570312 249.438476562 871.479492188 277.1484375 871.479492188 c 0
 287.8984375 871.479492188 296.258789062 868.479492188 300.659179688 858.799804688 c 0
 322.479492188 810.799804688 333.809570312 791.41015625 384.01953125 729.200195312 c 1
 373.889648438 724.129882812 l 2
164.579101562 268.000976562 m 1
 419.529296875 268.000976562 l 1
 291.529296875 612.720703125 l 1
 164.579101562 268.000976562 l 1
EndSplineSet
Substitution2: "'c2sc' Capitals to Small Capitals in Latin lookup 11 subtable" Agrave.sc
AlternateSubs2: "'aalt' Access All Alternates in Latin lookup 0 subtable" Agrave.sc
Position2: "'cpsp' Capital Spacing in Latin lookup 0 subtable" dx=5 dy=0 dh=10 dv=0
EndChar

StartChar: uni1EA2
Encoding: 7842 7842 23
Width: 642
GlyphClass: 2
Flags: MW
HStem: 640 20G<289 345 345 348.5> 812 57
VStem: 329 47
AnchorPoint: "Anchor-6" 623 0 basechar 0
AnchorPoint: "Anchor-5" 315 946 basechar 0
AnchorPoint: "Anchor-4" 289 0 basechar 0
LayerCount: 2
Fore
SplineSet
577 85 m 2
 587 58 591 33 623 33 c 0
 635 33 636 28 636 20 c 2
 636 13 l 2
 636 4 632 0 623 0 c 2
 423 0 l 2
 415 0 410 4 410 13 c 2
 410 20 l 2
 410 28 411 33 423 33 c 0
 477 33 496 54 479 102 c 2
 433.370117188 231 l 1
 151.610351562 231 l 1
 101 94 l 2
 85 51 121 33 168 33 c 0
 180 33 181 28 181 20 c 2
 181 13 l 2
 181 4 176 0 168 0 c 2
 18 0 l 2
 10 0 5 4 5 13 c 2
 5 20 l 2
 5 28 6 33 18 33 c 0
 44 33 55 55 68 91 c 2
 274 649 l 2
 276 656 281 660 289 660 c 2
 345 660 l 2
 352 660 357 656 360 649 c 2
 577 85 l 2
339.169921875 721.870117188 m 0
 332.580078125 713.25 303.580078125 733.4609375 306.940429688 739.44140625 c 0
 315.209960938 754.1015625 329.360351562 768.741210938 329.360351562 788.30078125 c 0
 329.360351562 804.680664062 317.919921875 812.400390625 303.580078125 812.400390625 c 0
 286.009765625 812.400390625 274.290039062 798.740234375 270.599609375 805.240234375 c 0
 263.919921875 817.009765625 251.870117188 831.700195312 254.919921875 846.549804688 c 0
 256.66015625 854.959960938 280 869 309 869 c 0
 359.700195312 869 376 829.98046875 376 802.000976562 c 0
 376 778.560546875 362.169921875 751.310546875 339.169921875 721.870117188 c 0
164.5703125 268.000976562 m 1
 419.520507812 268.000976562 l 1
 291.520507812 612.720703125 l 1
 164.5703125 268.000976562 l 1
EndSplineSet
Substitution2: "'c2sc' Capitals to Small Capitals in Latin lookup 11 subtable" uni1EA2.sc
AlternateSubs2: "'aalt' Access All Alternates in Latin lookup 0 subtable" uni1EA2.sc
Position2: "'cpsp' Capital Spacing in Latin lookup 0 subtable" dx=5 dy=0 dh=10 dv=0
EndChar

StartChar: uni0202
Encoding: 514 514 24
Width: 642
GlyphClass: 2
Flags: MW
HStem: 640 20G<289 345 345 348.5> 833 40
VStem: 195 55 385 55
AnchorPoint: "Anchor-6" 623 0 basechar 0
AnchorPoint: "Anchor-5" 315 899 basechar 0
AnchorPoint: "Anchor-4" 289 0 basechar 0
LayerCount: 2
Fore
SplineSet
577 85 m 2
 587 58 591 33 623 33 c 0
 635 33 636 28 636 20 c 2
 636 13 l 2
 636 4 632 0 623 0 c 2
 423 0 l 2
 415 0 410 4 410 13 c 2
 410 20 l 2
 410 28 411 33 423 33 c 0
 477 33 496 54 479 102 c 2
 433.370117188 231 l 1
 151.610351562 231 l 1
 101 94 l 2
 85 51 121 33 168 33 c 0
 180 33 181 28 181 20 c 2
 181 13 l 2
 181 4 176 0 168 0 c 2
 18 0 l 2
 10 0 5 4 5 13 c 2
 5 20 l 2
 5 28 6 33 18 33 c 0
 44 33 55 55 68 91 c 2
 274 649 l 2
 276 656 281 660 289 660 c 2
 345 660 l 2
 352 660 357 656 360 649 c 2
 577 85 l 2
317 873 m 0
 408 873 439.188476562 805.299804688 439.188476562 772.5 c 0
 439.188476562 762.5 434.55859375 758.709960938 424.188476562 757.5 c 0
 420.1484375 757.030273438 408.838867188 756.610351562 401.96875 755.91015625 c 0
 388.87890625 754.580078125 385.119140625 757.740234375 384.5390625 772.030273438 c 0
 383.05859375 808.520507812 356.80859375 832.520507812 316.999023438 832.520507812 c 0
 277.189453125 832.520507812 250.939453125 808.520507812 249.458984375 772.030273438 c 0
 248.87890625 757.740234375 245.119140625 754.580078125 232.0390625 755.91015625 c 0
 225.159179688 756.610351562 213.849609375 757.030273438 209.809570312 757.5 c 0
 199.44921875 758.709960938 194.809570312 762.5 194.809570312 772.5 c 0
 194.809570312 805.299804688 226 873 317 873 c 0
164.578125 268 m 1
 419.528320312 268 l 1
 291.528320312 612.719726562 l 1
 164.578125 268 l 1
EndSplineSet
Substitution2: "'c2sc' Capitals to Small Capitals in Latin lookup 11 subtable" uni0202.sc
AlternateSubs2: "'aalt' Access All Alternates in Latin lookup 0 subtable" uni0202.sc
Position2: "'cpsp' Capital Spacing in Latin lookup 0 subtable" dx=5 dy=0 dh=10 dv=0
EndChar

StartChar: Amacron
Encoding: 256 256 25
Width: 642
GlyphClass: 2
Flags: MW
HStem: 640 20G<289 345 345 348.5> 721 49<202.5 423 207 423>
VStem: 194 242<734 757 730 761.5>
AnchorPoint: "Anchor-6" 623 0 basechar 0
AnchorPoint: "Anchor-5" 315 739 basechar 0
AnchorPoint: "Anchor-4" 289 0 basechar 0
LayerCount: 2
Fore
SplineSet
577 85 m 2
 587 58 591 33 623 33 c 0
 635 33 636 28 636 20 c 2
 636 13 l 2
 636 4 632 0 623 0 c 2
 423 0 l 2
 415 0 410 4 410 13 c 2
 410 20 l 2
 410 28 411 33 423 33 c 0
 477 33 496 54 479 102 c 2
 433.370117188 231 l 1
 151.610351562 231 l 1
 101 94 l 2
 85 51 121 33 168 33 c 0
 180 33 181 28 181 20 c 2
 181 13 l 2
 181 4 176 0 168 0 c 2
 18 0 l 2
 10 0 5 4 5 13 c 2
 5 20 l 2
 5 28 6 33 18 33 c 0
 44 33 55 55 68 91 c 2
 274 649 l 2
 276 656 281 660 289 660 c 2
 345 660 l 2
 352 660 357 656 360 649 c 2
 577 85 l 2
436 734 m 2
 436 726 432 721 423 721 c 2
 207 721 l 2
 198 721 194 726 194 734 c 2
 194 757 l 2
 194 766 198 770 207 770 c 2
 423 770 l 2
 432 770 436 766 436 757 c 2
 436 734 l 2
164.580078125 268 m 1
 419.530273438 268 l 1
 291.530273438 612.719726562 l 1
 164.580078125 268 l 1
EndSplineSet
Substitution2: "'c2sc' Capitals to Small Capitals in Latin lookup 11 subtable" Amacron.sc
AlternateSubs2: "'aalt' Access All Alternates in Latin lookup 0 subtable" Amacron.sc
Position2: "'cpsp' Capital Spacing in Latin lookup 0 subtable" dx=5 dy=0 dh=10 dv=0
EndChar

StartChar: Aogonek
Encoding: 260 260 26
Width: 642
GlyphClass: 2
Flags: MW
HStem: 0 26 640 20G<289 345 345 348.5>
AnchorPoint: "Anchor-6" 623 0 basechar 0
AnchorPoint: "Anchor-5" 315 660 basechar 0
AnchorPoint: "Anchor-4" 289 0 basechar 0
LayerCount: 2
Fore
SplineSet
577 85 m 2
 587 58 591.000976562 33 623.000976562 33 c 0
 635.000976562 33 636.000976562 28 636.000976562 20 c 2
 636.000976562 13 l 2
 636.000976562 8.7099609375 635.090820312 5.5595703125 633.170898438 3.4296875 c 0
 632.170898438 2.0595703125 630.340820312 1.099609375 628.060546875 0.5498046875 c 0
 626.600585938 0.1796875 624.91015625 0 623 0 c 0
 612 -0 500.080078125 -12.5302734375 500.080078125 -101.700195312 c 0
 500.080078125 -157.940429688 534.379882812 -180.459960938 596.099609375 -180.459960938 c 0
 640 -180.459960938 676 -152 685 -152 c 0
 689 -152 693 -156 693 -163 c 2
 693 -178 l 2
 693 -184 691 -189 686 -192 c 0
 653 -212 620 -223 590 -223 c 0
 494 -223 451 -166 451 -112 c 0
 451 -56 488.530273438 -20.8203125 528.030273438 0 c 1
 423 0 l 2
 415 0 410 4 410 13 c 2
 410 20 l 2
 410 28 411 33 423 33 c 0
 477 33 496 54 479 102 c 2
 433.370117188 231 l 1
 151.610351562 231 l 1
 101 94 l 2
 85 51 121 33 168 33 c 0
 180 33 181 28 181 20 c 2
 181 13 l 2
 181 4 176 0 168 0 c 2
 18 0 l 2
 10 0 5 4 5 13 c 2
 5 20 l 2
 5 28 6 33 18 33 c 0
 44 33 55 55 68 91 c 2
 274 649 l 2
 276 656 281 660 289 660 c 2
 345 660 l 2
 352 660 357 656 360 649 c 2
 577 85 l 2
164.581054688 268 m 1
 419.53125 268 l 1
 291.53125 612.719726562 l 1
 164.581054688 268 l 1
EndSplineSet
Substitution2: "'c2sc' Capitals to Small Capitals in Latin lookup 11 subtable" Aogonek.sc
AlternateSubs2: "'aalt' Access All Alternates in Latin lookup 0 subtable" Aogonek.sc
Position2: "'cpsp' Capital Spacing in Latin lookup 0 subtable" dx=5 dy=0 dh=10 dv=0
EndChar

StartChar: Aring
Encoding: 197 197 27
Width: 642
GlyphClass: 2
Flags: MW
HStem: 639 20G 687 20G 752 45
VStem: 349 50
AnchorPoint: "Anchor-6" 623 0 basechar 0
AnchorPoint: "Anchor-5" 310 752 basechar 0
AnchorPoint: "Anchor-4" 289 0 basechar 0
LayerCount: 2
Fore
SplineSet
577 85 m 2
 587 58 590.999023438 33 622.999023438 33 c 0
 634.999023438 33 635.999023438 28 635.999023438 20 c 2
 635.999023438 13 l 2
 635.999023438 4 631.999023438 0 622.999023438 0 c 2
 422.999023438 0 l 2
 414.999023438 0 409.999023438 4 409.999023438 13 c 2
 409.999023438 20 l 2
 409.999023438 28 410.999023438 33 422.999023438 33 c 0
 476.999023438 33 495.999023438 54 478.999023438 102 c 2
 433.369140625 231 l 1
 151.609375 231 l 1
 100.999023438 94 l 2
 84.9990234375 51 120.999023438 33 167.999023438 33 c 0
 179.999023438 33 180.999023438 28 180.999023438 20 c 2
 180.999023438 13 l 2
 180.999023438 4 175.999023438 0 167.999023438 0 c 2
 17.9990234375 0 l 2
 9.9990234375 0 4.9990234375 4 4.9990234375 13 c 2
 4.9990234375 20 l 2
 4.9990234375 28 5.9990234375 33 17.9990234375 33 c 0
 43.9990234375 33 54.9990234375 55 67.9990234375 91 c 2
 270.189453125 638.669921875 l 1
 240.879882812 652.290039062 221 680.530273438 221 713.180664062 c 0
 221 759.880859375 260.400390625 797.100585938 310.020507812 797.100585938 c 0
 358.91015625 797.100585938 398.310546875 759.880859375 398.310546875 713.180664062 c 0
 398.310546875 685.240234375 383.760742188 660.540039062 361.360351562 645.459960938 c 1
 577 85 l 2
270.619140625 713.1796875 m 0
 270.619140625 690.559570312 285.939453125 675.239257812 310.01953125 675.239257812 c 0
 333.369140625 675.239257812 348.689453125 690.559570312 348.689453125 713.1796875 c 0
 348.689453125 736.529296875 333.369140625 751.859375 310.01953125 751.859375 c 0
 285.939453125 751.859375 270.619140625 736.529296875 270.619140625 713.1796875 c 0
164.579101562 268 m 1
 419.529296875 268 l 1
 291.529296875 612.719726562 l 1
 164.579101562 268 l 1
EndSplineSet
Substitution2: "'c2sc' Capitals to Small Capitals in Latin lookup 11 subtable" Aring.sc
AlternateSubs2: "'aalt' Access All Alternates in Latin lookup 0 subtable" Aring.sc
Position2: "'cpsp' Capital Spacing in Latin lookup 0 subtable" dx=5 dy=0 dh=10 dv=0
EndChar

StartChar: Aringacute
Encoding: 506 506 28
Width: 642
GlyphClass: 2
Flags: MW
HStem: 639 20G 687 20G 752 45 811 152
VStem: 248 145 349 50
AnchorPoint: "Anchor-6" 623 0 basechar 0
AnchorPoint: "Anchor-5" 342 991 basechar 0
AnchorPoint: "Anchor-4" 289 0 basechar 0
LayerCount: 2
Fore
SplineSet
577 85 m 2xf4
 587 58 590.999023438 33 622.999023438 33 c 0
 634.999023438 33 635.999023438 28 635.999023438 20 c 2
 635.999023438 13 l 2
 635.999023438 4 631.999023438 0 622.999023438 0 c 2
 422.999023438 0 l 2
 414.999023438 0 409.999023438 4 409.999023438 13 c 2
 409.999023438 20 l 2
 409.999023438 28 410.999023438 33 422.999023438 33 c 0
 476.999023438 33 495.999023438 54 478.999023438 102 c 2
 433.369140625 231 l 1
 151.609375 231 l 1
 100.999023438 94 l 2
 84.9990234375 51 120.999023438 33 167.999023438 33 c 0
 179.999023438 33 180.999023438 28 180.999023438 20 c 2
 180.999023438 13 l 2
 180.999023438 4 175.999023438 0 167.999023438 0 c 2
 17.9990234375 0 l 2
 9.9990234375 0 4.9990234375 4 4.9990234375 13 c 2
 4.9990234375 20 l 2
 4.9990234375 28 5.9990234375 33 17.9990234375 33 c 0
 43.9990234375 33 54.9990234375 55 67.9990234375 91 c 2
 270.189453125 638.669921875 l 1
 240.879882812 652.290039062 221 680.530273438 221 713.180664062 c 0
 221 759.880859375 260.400390625 797.100585938 310.020507812 797.100585938 c 0
 358.91015625 797.100585938 398.310546875 759.880859375 398.310546875 713.180664062 c 0
 398.310546875 685.240234375 383.760742188 660.540039062 361.360351562 645.459960938 c 1
 577 85 l 2xf4
270.619140625 713.1796875 m 0
 270.619140625 690.559570312 285.939453125 675.239257812 310.01953125 675.239257812 c 0
 333.369140625 675.239257812 348.689453125 690.559570312 348.689453125 713.1796875 c 0
 348.689453125 736.529296875 333.369140625 751.859375 310.01953125 751.859375 c 0
 285.939453125 751.859375 270.619140625 736.529296875 270.619140625 713.1796875 c 0
247.999023438 821.049804688 m 1xf8
 298.208984375 883.259765625 309.5390625 902.66015625 331.359375 950.66015625 c 0
 335.759765625 960.33984375 344.120117188 963.33984375 354.870117188 963.33984375 c 0
 382.58984375 963.33984375 392.879882812 948.91015625 392.879882812 925.629882812 c 0
 392.879882812 876.0703125 328.379882812 843.98046875 281.299804688 813.340820312 c 0
 278.229492188 811.340820312 274.989257812 810.130859375 272.458984375 810.400390625 c 0
 269.428710938 810.73046875 264.329101562 812.890625 258.12890625 815.990234375 c 2
 247.999023438 821.049804688 l 1xf8
164.579101562 268 m 1
 419.529296875 268 l 1
 291.529296875 612.719726562 l 1
 164.579101562 268 l 1
EndSplineSet
Substitution2: "'c2sc' Capitals to Small Capitals in Latin lookup 11 subtable" Aringacute.sc
AlternateSubs2: "'aalt' Access All Alternates in Latin lookup 0 subtable" Aringacute.sc
Position2: "'cpsp' Capital Spacing in Latin lookup 0 subtable" dx=5 dy=0 dh=10 dv=0
EndChar

StartChar: Atilde
Encoding: 195 195 29
Width: 642
GlyphClass: 2
Flags: MW
HStem: 640 20G<289 345 345 348.5> 729 42 813 41
VStem: 178 46 406 46
AnchorPoint: "Anchor-6" 623 0 basechar 0
AnchorPoint: "Anchor-5" 315 845 basechar 0
AnchorPoint: "Anchor-4" 289 0 basechar 0
LayerCount: 2
Fore
SplineSet
577 85 m 2
 587 58 591 33 623 33 c 0
 635 33 636 28 636 20 c 2
 636 13 l 2
 636 4 632 0 623 0 c 2
 423 0 l 2
 415 0 410 4 410 13 c 2
 410 20 l 2
 410 28 411 33 423 33 c 0
 477 33 496 54 479 102 c 2
 433.370117188 231 l 1
 151.610351562 231 l 1
 101 94 l 2
 85 51 121 33 168 33 c 0
 180 33 181 28 181 20 c 2
 181 13 l 2
 181 4 176 0 168 0 c 2
 18 0 l 2
 10 0 5 4 5 13 c 2
 5 20 l 2
 5 28 6 33 18 33 c 0
 44 33 55 55 68 91 c 2
 274 649 l 2
 276 656 281 660 289 660 c 2
 345 660 l 2
 352 660 357 656 360 649 c 2
 577 85 l 2
329.549804688 803.059570312 m 0
 344.950195312 779.239257812 357.590820312 770.998046875 372.991210938 770.998046875 c 0
 392.991210938 770.998046875 405.991210938 786.728515625 405.991210938 807.999023438 c 0
 405.991210938 818.749023438 403.8515625 830.409179688 397.801757812 842.258789062 c 1
 406.111328125 849.05859375 416.391601562 854.999023438 424.991210938 854.999023438 c 0
 438.250976562 854.999023438 451.991210938 831.439453125 451.991210938 803.999023438 c 0
 451.991210938 757.159179688 418.641601562 728.999023438 382.991210938 728.999023438 c 0
 331.78125 728.999023438 314.331054688 756.149414062 300.760742188 779.409179688 c 0
 286.791015625 804.569335938 273.390625 812.999023438 257.990234375 812.999023438 c 0
 237.990234375 812.999023438 223.990234375 795.399414062 223.990234375 774.999023438 c 0
 223.990234375 763.848632812 226.850585938 752.208984375 233.05078125 740.649414062 c 1
 224.690429688 733.889648438 214.25 728 204.990234375 728 c 0
 192.680664062 728 177.990234375 751.209960938 177.990234375 778 c 0
 177.990234375 825.719726562 212.23046875 854 247.990234375 854 c 0
 298.33984375 854 316.549804688 825.01953125 329.549804688 803.059570312 c 0
164.5703125 267.999023438 m 1
 419.520507812 267.999023438 l 1
 291.520507812 612.71875 l 1
 164.5703125 267.999023438 l 1
EndSplineSet
Substitution2: "'c2sc' Capitals to Small Capitals in Latin lookup 11 subtable" Atilde.sc
AlternateSubs2: "'aalt' Access All Alternates in Latin lookup 0 subtable" Atilde.sc
Position2: "'cpsp' Capital Spacing in Latin lookup 0 subtable" dx=5 dy=0 dh=10 dv=0
EndChar

StartChar: AE
Encoding: 198 198 30
Width: 938
GlyphClass: 2
Flags: MW
HStem: -11.8 21G 0 33 0.199997 33 0.199997 42 231 37 330.2 41 429.2 20G 618.2 42 626.2 34 651.2 20G
VStem: 5 121 383 118.97 418.97 83 679.97 32 878.47 41.53
AnchorPoint: "Anchor-6" 812 0 basechar 0
AnchorPoint: "Anchor-5" 575 660 basechar 0
AnchorPoint: "Anchor-4" 620 0 basechar 0
LayerCount: 2
Fore
SplineSet
824.959960938 -11.7900390625 m 0x8f0e
 821.959960938 -11.7900390625 819.189453125 -11.5791015625 816.939453125 -8.76953125 c 2
 812.939453125 -3.76953125 l 2
 809.819335938 0.130859375 805.94921875 0.2109375 794.94921875 0.2109375 c 2
 353.94921875 0.2109375 l 2x1f0e
 344.94921875 0.2109375 339.94921875 4.2109375 339.94921875 13.2109375 c 2
 339.94921875 20.2109375 l 2
 339.94921875 28.2109375 345.94921875 33.2109375 353.94921875 33.2109375 c 0
 397.94921875 33.2109375 418.94921875 60.2109375 418.94921875 116.2109375 c 2
 418.94921875 231.010742188 l 1x2f0c
 221.059570312 231.010742188 l 1
 146.049804688 94.0107421875 l 2
 113.299804688 34.1708984375 120.990234375 33.0205078125 167.990234375 33.0205078125 c 0
 179.990234375 33.0205078125 180.990234375 28.0205078125 180.990234375 20.0205078125 c 2
 180.990234375 13.0205078125 l 2
 180.990234375 4.0205078125 175.990234375 0.0205078125 167.990234375 0.0205078125 c 2
 17.990234375 0.0205078125 l 2
 9.990234375 0.0205078125 4.990234375 4.0205078125 4.990234375 13.0205078125 c 2
 4.990234375 20.0205078125 l 2
 4.990234375 28.0205078125 5.990234375 33.0205078125 17.990234375 33.0205078125 c 0
 43.990234375 33.0205078125 70.9599609375 37.6005859375 100.469726562 91.0107421875 c 2
 376.66015625 591.010742188 l 2
 393.890625 622.180664062 371.23046875 626.190429688 353.950195312 626.190429688 c 0x4eb4
 345.950195312 626.190429688 339.950195312 632.190429688 339.950195312 640.190429688 c 2
 339.950195312 646.190429688 l 2
 339.950195312 655.190429688 344.950195312 660.190429688 353.950195312 660.190429688 c 2
 753.950195312 660.190429688 l 2x1f14
 762.950195312 660.190429688 766.950195312 661.190429688 770.950195312 664.190429688 c 2
 775.950195312 669.190429688 l 2
 777.950195312 671.190429688 780.950195312 671.190429688 783.950195312 671.190429688 c 0
 787.950195312 671.190429688 791.950195312 669.190429688 794.950195312 664.190429688 c 2x1e4c
 863.950195312 545.190429688 l 2
 865.950195312 542.190429688 866.950195312 539.190429688 866.950195312 537.190429688 c 0
 866.950195312 532.190429688 863.950195312 529.190429688 859.950195312 526.190429688 c 2
 844.950195312 517.190429688 l 2
 839.950195312 514.190429688 837.950195312 513.190429688 834.950195312 513.190429688 c 0
 830.950195312 513.190429688 827.950195312 516.190429688 824.950195312 521.190429688 c 2
 821.950195312 526.190429688 l 2
 776.950195312 600.190429688 748.950195312 618.190429688 680.950195312 618.190429688 c 2
 501.950195312 618.190429688 l 1
 501.950195312 371.190429688 l 1
 615.950195312 371.190429688 l 2
 658.950195312 371.190429688 679.950195312 391.190429688 679.950195312 430.190429688 c 2
 679.950195312 436.190429688 l 2
 679.950195312 445.190429688 683.950195312 449.190429688 692.950195312 449.190429688 c 2
 698.950195312 449.190429688 l 2
 707.950195312 449.190429688 711.950195312 445.190429688 711.950195312 436.190429688 c 2
 711.950195312 266.190429688 l 2
 711.950195312 257.190429688 707.950195312 253.190429688 698.950195312 253.190429688 c 2
 692.950195312 253.190429688 l 2
 683.950195312 253.190429688 679.950195312 257.190429688 679.950195312 266.190429688 c 2
 679.950195312 271.190429688 l 2
 679.950195312 311.190429688 659.950195312 330.190429688 615.950195312 330.190429688 c 2
 501.950195312 330.190429688 l 1
 501.950195312 126.190429688 l 2
 501.950195312 72.1904296875 532.950195312 42.1904296875 571.950195312 42.1904296875 c 2
 646.950195312 42.1904296875 l 2x1f0c
 775.950195312 42.1904296875 818.950195312 67.1904296875 876.950195312 184.190429688 c 2
 879.950195312 190.190429688 l 2
 882.950195312 197.190429688 889.950195312 200.190429688 898.950195312 195.190429688 c 2
 912.950195312 188.190429688 l 2
 921.950195312 184.190429688 921.950195312 179.190429688 917.950195312 170.190429688 c 2
 834.950195312 -3.7998046875 l 2
 832.219726562 -9.509765625 828.959960938 -11.7900390625 824.959960938 -11.7900390625 c 0x8f0e
241.859375 268.03125 m 1x1f0c
 418.939453125 268.03125 l 1
 418.939453125 589.831054688 l 1
 241.859375 268.03125 l 1x1f0c
EndSplineSet
Substitution2: "'c2sc' Capitals to Small Capitals in Latin lookup 11 subtable" AE.sc
AlternateSubs2: "'aalt' Access All Alternates in Latin lookup 0 subtable" AE.sc
Position2: "'cpsp' Capital Spacing in Latin lookup 0 subtable" dx=5 dy=0 dh=10 dv=0
EndChar

StartChar: AEacute
Encoding: 508 508 31
Width: 938
GlyphClass: 2
Flags: MW
HStem: -11.8 21G 0 33 0.199997 33 0.199997 42 231 37 330.2 41 429.2 20G 618.2 42 626.2 34 651.2 20G
VStem: 5 121 383 118.97 418.97 83 679.97 32 878.47 41.53
AnchorPoint: "Anchor-6" 812 0 basechar 0
AnchorPoint: "Anchor-5" 607 899 basechar 0
AnchorPoint: "Anchor-4" 620 0 basechar 0
LayerCount: 2
Fore
SplineSet
824.959960938 -11.7900390625 m 0x8f0e
 821.959960938 -11.7900390625 819.189453125 -11.5791015625 816.939453125 -8.76953125 c 2
 812.939453125 -3.76953125 l 2
 809.819335938 0.130859375 805.94921875 0.2109375 794.94921875 0.2109375 c 2
 353.94921875 0.2109375 l 2x1f0e
 344.94921875 0.2109375 339.94921875 4.2109375 339.94921875 13.2109375 c 2
 339.94921875 20.2109375 l 2
 339.94921875 28.2109375 345.94921875 33.2109375 353.94921875 33.2109375 c 0
 397.94921875 33.2109375 418.94921875 60.2109375 418.94921875 116.2109375 c 2
 418.94921875 231.010742188 l 1x2f0c
 221.059570312 231.010742188 l 1
 146.049804688 94.0107421875 l 2
 113.299804688 34.1708984375 120.990234375 33.0205078125 167.990234375 33.0205078125 c 0
 179.990234375 33.0205078125 180.990234375 28.0205078125 180.990234375 20.0205078125 c 2
 180.990234375 13.0205078125 l 2
 180.990234375 4.0205078125 175.990234375 0.0205078125 167.990234375 0.0205078125 c 2
 17.990234375 0.0205078125 l 2
 9.990234375 0.0205078125 4.990234375 4.0205078125 4.990234375 13.0205078125 c 2
 4.990234375 20.0205078125 l 2
 4.990234375 28.0205078125 5.990234375 33.0205078125 17.990234375 33.0205078125 c 0
 43.990234375 33.0205078125 70.9599609375 37.6005859375 100.469726562 91.0107421875 c 2
 376.66015625 591.010742188 l 2
 393.890625 622.180664062 371.23046875 626.190429688 353.950195312 626.190429688 c 0x4eb4
 345.950195312 626.190429688 339.950195312 632.190429688 339.950195312 640.190429688 c 2
 339.950195312 646.190429688 l 2
 339.950195312 655.190429688 344.950195312 660.190429688 353.950195312 660.190429688 c 2
 753.950195312 660.190429688 l 2x1f14
 762.950195312 660.190429688 766.950195312 661.190429688 770.950195312 664.190429688 c 2
 775.950195312 669.190429688 l 2
 777.950195312 671.190429688 780.950195312 671.190429688 783.950195312 671.190429688 c 0
 787.950195312 671.190429688 791.950195312 669.190429688 794.950195312 664.190429688 c 2x1e4c
 863.950195312 545.190429688 l 2
 865.950195312 542.190429688 866.950195312 539.190429688 866.950195312 537.190429688 c 0
 866.950195312 532.190429688 863.950195312 529.190429688 859.950195312 526.190429688 c 2
 844.950195312 517.190429688 l 2
 839.950195312 514.190429688 837.950195312 513.190429688 834.950195312 513.190429688 c 0
 830.950195312 513.190429688 827.950195312 516.190429688 824.950195312 521.190429688 c 2
 821.950195312 526.190429688 l 2
 776.950195312 600.190429688 748.950195312 618.190429688 680.950195312 618.190429688 c 2
 501.950195312 618.190429688 l 1
 501.950195312 371.190429688 l 1
 615.950195312 371.190429688 l 2
 658.950195312 371.190429688 679.950195312 391.190429688 679.950195312 430.190429688 c 2
 679.950195312 436.190429688 l 2
 679.950195312 445.190429688 683.950195312 449.190429688 692.950195312 449.190429688 c 2
 698.950195312 449.190429688 l 2
 707.950195312 449.190429688 711.950195312 445.190429688 711.950195312 436.190429688 c 2
 711.950195312 266.190429688 l 2
 711.950195312 257.190429688 707.950195312 253.190429688 698.950195312 253.190429688 c 2
 692.950195312 253.190429688 l 2
 683.950195312 253.190429688 679.950195312 257.190429688 679.950195312 266.190429688 c 2
 679.950195312 271.190429688 l 2
 679.950195312 311.190429688 659.950195312 330.190429688 615.950195312 330.190429688 c 2
 501.950195312 330.190429688 l 1
 501.950195312 126.190429688 l 2
 501.950195312 72.1904296875 532.950195312 42.1904296875 571.950195312 42.1904296875 c 2
 646.950195312 42.1904296875 l 2x1f0c
 775.950195312 42.1904296875 818.950195312 67.1904296875 876.950195312 184.190429688 c 2
 879.950195312 190.190429688 l 2
 882.950195312 197.190429688 889.950195312 200.190429688 898.950195312 195.190429688 c 2
 912.950195312 188.190429688 l 2
 921.950195312 184.190429688 921.950195312 179.190429688 917.950195312 170.190429688 c 2
 834.950195312 -3.7998046875 l 2
 832.219726562 -9.509765625 828.959960938 -11.7900390625 824.959960938 -11.7900390625 c 0x8f0e
241.859375 268.03125 m 1x1f0c
 418.939453125 268.03125 l 1
 418.939453125 589.831054688 l 1
 241.859375 268.03125 l 1x1f0c
513.259765625 729.221679688 m 1
 563.469726562 791.421875 574.791015625 810.8125 596.611328125 858.8125 c 0
 601.000976562 868.482421875 609.350585938 871.47265625 620.100585938 871.47265625 c 0
 647.8203125 871.47265625 658.100585938 857.052734375 658.100585938 833.772460938 c 0
 658.100585938 784.22265625 593.600585938 752.142578125 546.530273438 721.502929688 c 0
 543.459960938 719.512695312 540.219726562 718.3125 537.700195312 718.58203125 c 0
 534.669921875 718.912109375 529.5703125 721.051757812 523.379882812 724.151367188 c 2
 513.259765625 729.221679688 l 1
EndSplineSet
Substitution2: "'c2sc' Capitals to Small Capitals in Latin lookup 11 subtable" AEacute.sc
AlternateSubs2: "'aalt' Access All Alternates in Latin lookup 0 subtable" AEacute.sc
Position2: "'cpsp' Capital Spacing in Latin lookup 0 subtable" dx=5 dy=0 dh=10 dv=0
EndChar

StartChar: B
Encoding: 66 66 32
Width: 633
GlyphClass: 2
Flags: MW
HStem: 0 26<303 325 325 363> 0 33<65.5 70 70 91.5 65.5 363> 345 33 627 33<70 91.5> 634 26
VStem: 135 83 449 91 507 91
AnchorPoint: "Anchor-5" 317 660 basechar 0
AnchorPoint: "Anchor-4" 317 0 basechar 0
LayerCount: 2
Fore
SplineSet
70 0 m 2xad
 61 0 56 4 56 13 c 2
 56 20 l 2
 56 28 61 33 70 33 c 0
 113 33 135 61 135 116 c 2
 135 544 l 2
 135 599 113 627 70 627 c 0x75
 61 627 56 632 56 640 c 2
 56 647 l 2
 56 656 61 660 70 660 c 2
 323 660 l 2
 445 660 540 590 540 501 c 0xae
 540 450 509 407 451 378 c 1
 543 351 598 282 598 194 c 0
 598 80 501 0 363 0 c 2
 70 0 l 2xad
325 26 m 2
 443 26 507.010742188 87.9794921875 507.010742188 186.979492188 c 0
 507.010742188 289.979492188 440.010742188 344.979492188 296.010742188 344.979492188 c 2
 218.010742188 344.979492188 l 1
 218.010742188 121.889648438 l 2
 218.010742188 58.669921875 258.940429688 26 303 26 c 2
 325 26 l 2
295.010742188 377.979492188 m 2xae
 396.010742188 377.979492188 449.010742188 427.979492188 449.010742188 505.979492188 c 0
 449.010742188 584.979492188 397.010742188 633.979492188 298.010742188 633.979492188 c 2
 218.010742188 633.979492188 l 1
 218.010742188 377.979492188 l 1
 295.010742188 377.979492188 l 2xae
EndSplineSet
Substitution2: "'ss04' Style Set 4 in Latin lookup 33 subtable" u1F151
Substitution2: "'ss03' Style Set 3 in Latin lookup 31 subtable" uni24B7
Substitution2: "'c2sc' Capitals to Small Capitals in Latin lookup 11 subtable" B.sc
AlternateSubs2: "'aalt' Access All Alternates in Latin lookup 0 subtable" B.sc uni24B7 u1F151
Position2: "'cpsp' Capital Spacing in Latin lookup 0 subtable" dx=5 dy=0 dh=10 dv=0
EndChar

StartChar: uni1E04
Encoding: 7684 7684 33
Width: 633
GlyphClass: 2
Flags: MW
HStem: -171.94 115.48 0 26<303 325 325 363> 0 33<65.5 70 70 91.5 65.5 363> 345 33 627 33<70 91.5> 634 26
VStem: 135 83 259.32 116.36 449 91 507 91
AnchorPoint: "Anchor-5" 317 660 basechar 0
AnchorPoint: "Anchor-4" 317 0 basechar 0
LayerCount: 2
Fore
SplineSet
70 0 m 2x5640
 61 0 56 4 56 13 c 2
 56 20 l 2
 56 28 61 33 70 33 c 0
 113 33 135 61 135 116 c 2
 135 544 l 2
 135 599 113 627 70 627 c 0x3a40
 61 627 56 632 56 640 c 2
 56 647 l 2
 56 656 61 660 70 660 c 2
 323 660 l 2
 445 660 540 590 540 501 c 0x5680
 540 450 509 407 451 378 c 1
 543 351 598 282 598 194 c 0
 598 80 501 0 363 0 c 2
 70 0 l 2x5640
325 26 m 2
 443 26 507.010742188 87.9794921875 507.010742188 186.979492188 c 0
 507.010742188 289.979492188 440.010742188 344.979492188 296.010742188 344.979492188 c 2
 218.010742188 344.979492188 l 1
 218.010742188 121.889648438 l 2
 218.010742188 58.669921875 258.940429688 26 303 26 c 2
 325 26 l 2
295.010742188 377.979492188 m 2xd780
 396.010742188 377.979492188 449.010742188 427.979492188 449.010742188 505.979492188 c 0
 449.010742188 584.979492188 397.010742188 633.979492188 298.010742188 633.979492188 c 2
 218.010742188 633.979492188 l 1
 218.010742188 377.979492188 l 1
 295.010742188 377.979492188 l 2xd780
317.060546875 -56.48046875 m 0
 331.060546875 -56.48046875 342.420898438 -61.7109375 356.420898438 -75.7109375 c 0
 370.420898438 -89.7109375 375.670898438 -100.2109375 375.670898438 -114.2109375 c 0
 375.670898438 -128.2109375 369.55078125 -139.581054688 356.430664062 -152.701171875 c 0
 342.430664062 -166.701171875 331.060546875 -171.951171875 317.060546875 -171.951171875 c 0
 303.940429688 -171.951171875 293.440429688 -166.701171875 278.5703125 -152.701171875 c 0
 264.5703125 -139.581054688 259.3203125 -128.2109375 259.3203125 -114.2109375 c 0
 259.3203125 -100.2109375 264.5703125 -89.7109375 278.5703125 -75.7109375 c 0
 292.5703125 -61.7109375 303.940429688 -56.48046875 317.060546875 -56.48046875 c 0
EndSplineSet
Substitution2: "'c2sc' Capitals to Small Capitals in Latin lookup 11 subtable" uni1E04.sc
AlternateSubs2: "'aalt' Access All Alternates in Latin lookup 0 subtable" uni1E04.sc
Position2: "'cpsp' Capital Spacing in Latin lookup 0 subtable" dx=5 dy=0 dh=10 dv=0
EndChar

StartChar: C
Encoding: 67 67 34
Width: 639
GlyphClass: 2
Flags: MW
HStem: -11 30<285.5 428> 641 30<279 415.5>
VStem: 31 101<258 396.5> 525 80<475 499.5 475 519>
AnchorPoint: "Anchor-5" 343 660 basechar 0
AnchorPoint: "Anchor-4" 348 0 basechar 0
LayerCount: 2
Fore
SplineSet
622 208 m 2
 626 207 627 204 625 199 c 0
 591 94 508 -11 348 -11 c 0
 147 -11 31 134 31 323 c 0
 31 470 112 671 356 671 c 0
 541 671 605 519 605 480 c 0
 605 470 603 467 596 465 c 2
 542 447 l 2
 526 442 523 447 523 453 c 0
 523 457 525 467 525 480 c 0
 525 558 475 641 356 641 c 0
 202 641 132 474 132 359 c 0
 132 157 213 19 358 19 c 0
 501 19 570 111 600 206 c 0
 602 212 605 213 608 212 c 2
 622 208 l 2
EndSplineSet
Substitution2: "'ss04' Style Set 4 in Latin lookup 33 subtable" u1F152
Substitution2: "'ss03' Style Set 3 in Latin lookup 31 subtable" uni24B8
Substitution2: "'c2sc' Capitals to Small Capitals in Latin lookup 11 subtable" C.sc
AlternateSubs2: "'aalt' Access All Alternates in Latin lookup 0 subtable" C.sc uni24B8 u1F152
Position2: "'cpsp' Capital Spacing in Latin lookup 0 subtable" dx=5 dy=0 dh=10 dv=0
EndChar

StartChar: Cacute
Encoding: 262 262 35
Width: 639
GlyphClass: 2
Flags: MW
HStem: -11 30<285.5 428> 641 30<279 415.5>
VStem: 31 101<258 396.5> 525 80<475 499.5 475 519>
AnchorPoint: "Anchor-5" 375 899 basechar 0
AnchorPoint: "Anchor-4" 348 0 basechar 0
LayerCount: 2
Fore
SplineSet
622 208 m 2
 626 207 627 204 625 199 c 0
 591 94 508 -11 348 -11 c 0
 147 -11 31 134 31 323 c 0
 31 470 112 671 356 671 c 0
 541 671 605 519 605 480 c 0
 605 470 603 467 596 465 c 2
 542 447 l 2
 526 442 523 447 523 453 c 0
 523 457 525 467 525 480 c 0
 525 558 475 641 356 641 c 0
 202 641 132 474 132 359 c 0
 132 157 213 19 358 19 c 0
 501 19 570 111 600 206 c 0
 602 212 605 213 608 212 c 2
 622 208 l 2
280.98046875 729.190429688 m 1
 331.190429688 791.390625 342.522460938 810.78125 364.342773438 858.78125 c 0
 368.732421875 868.451171875 377.08203125 871.44140625 387.83203125 871.44140625 c 0
 415.541992188 871.44140625 425.83203125 857.021484375 425.83203125 833.741210938 c 0
 425.83203125 784.19140625 361.33203125 752.111328125 314.251953125 721.471679688 c 0
 311.181640625 719.481445312 307.951171875 718.28125 305.420898438 718.55078125 c 0
 302.390625 718.880859375 297.30078125 721.020507812 291.110351562 724.120117188 c 2
 280.98046875 729.190429688 l 1
EndSplineSet
Substitution2: "'c2sc' Capitals to Small Capitals in Latin lookup 11 subtable" Cacute.sc
AlternateSubs2: "'aalt' Access All Alternates in Latin lookup 0 subtable" Cacute.sc
Position2: "'cpsp' Capital Spacing in Latin lookup 0 subtable" dx=5 dy=0 dh=10 dv=0
EndChar

StartChar: Ccaron
Encoding: 268 268 36
Width: 639
GlyphClass: 2
Flags: MW
HStem: -11 30<285.5 428> 641 30<279 415.5>
VStem: 31 101<258 396.5> 525 80<475 499.5 475 519>
AnchorPoint: "Anchor-5" 343 845 basechar 0
AnchorPoint: "Anchor-4" 348 0 basechar 0
LayerCount: 2
Fore
SplineSet
622 208 m 2
 626 207 627 204 625 199 c 0
 591 94 508 -11 348 -11 c 0
 147 -11 31 134 31 323 c 0
 31 470 112 671 356 671 c 0
 541 671 605 519 605 480 c 0
 605 470 603 467 596 465 c 2
 542 447 l 2
 526 442 523 447 523 453 c 0
 523 457 525 467 525 480 c 0
 525 558 475 641 356 641 c 0
 202 641 132 474 132 359 c 0
 132 157 213 19 358 19 c 0
 501 19 570 111 600 206 c 0
 602 212 605 213 608 212 c 2
 622 208 l 2
343 785.0703125 m 1
 361.059570312 819.100585938 391.641601562 857.3203125 431.241210938 857.3203125 c 0
 452.090820312 857.3203125 461.80078125 837.169921875 461.80078125 814.25 c 0
 461.80078125 803.83984375 461.110351562 794.799804688 453.470703125 791.33984375 c 0
 413.180664062 776.059570312 392.331054688 765.639648438 343.010742188 726.049804688 c 1
 293.680664062 765.639648438 272.831054688 776.059570312 232.541015625 791.33984375 c 0
 224.901367188 794.799804688 224.2109375 803.83984375 224.2109375 814.25 c 0
 224.2109375 837.169921875 233.920898438 857.3203125 254.770507812 857.3203125 c 0
 294.370117188 857.3203125 324.940429688 819.100585938 343 785.0703125 c 1
EndSplineSet
Substitution2: "'c2sc' Capitals to Small Capitals in Latin lookup 11 subtable" Ccaron.sc
AlternateSubs2: "'aalt' Access All Alternates in Latin lookup 0 subtable" Ccaron.sc
Position2: "'cpsp' Capital Spacing in Latin lookup 0 subtable" dx=5 dy=0 dh=10 dv=0
EndChar

StartChar: Ccedilla
Encoding: 199 199 37
Width: 639
GlyphClass: 2
Flags: MW
HStem: -6 21G
AnchorPoint: "Anchor-5" 343 660 basechar 0
AnchorPoint: "Anchor-4" 348 0 basechar 0
LayerCount: 2
Fore
SplineSet
622 208 m 2
 626 207 626.990234375 203.991210938 624.990234375 198.991210938 c 0
 591.75 96.3408203125 511.6796875 -6.3095703125 358.609375 -10.849609375 c 1
 322.989257812 -53.009765625 l 1
 335.989257812 -48.009765625 349.989257812 -46.009765625 363.989257812 -46.009765625 c 0
 409.989257812 -46.009765625 462.989257812 -72.009765625 462.989257812 -135.009765625 c 0
 462.989257812 -187.009765625 416.989257812 -225.009765625 348.989257812 -225.009765625 c 0
 321.989257812 -225.009765625 291.989257812 -220.009765625 260.989257812 -207.009765625 c 0
 243.989257812 -200.009765625 242.989257812 -199.41015625 242.989257812 -176.780273438 c 0
 242.989257812 -168.780273438 245.649414062 -163.459960938 250.979492188 -163.459960938 c 0
 254.979492188 -163.459960938 258.809570312 -165.1796875 261.639648438 -166.120117188 c 0
 289.58984375 -175.440429688 318.200195312 -184.760742188 351.48046875 -184.760742188 c 0
 393.420898438 -184.760742188 417.390625 -165.440429688 417.390625 -137.48046875 c 0
 417.390625 -97.55078125 380.110351562 -81.5703125 328.200195312 -81.5703125 c 0
 314.240234375 -81.5703125 291.600585938 -85.5703125 280.310546875 -85.5703125 c 0
 273.650390625 -85.5703125 269.650390625 -81.5703125 269.650390625 -76.25 c 0
 269.650390625 -72.259765625 269.090820312 -69.16015625 272.310546875 -65.6005859375 c 2
 322.310546875 -10.1904296875 l 1
 137.150390625 1.669921875 31 142.200195312 31 323 c 0
 31 470 112 671 356 671 c 0
 541 671 605 519 605 480 c 0
 605 470 603 467 596 465 c 2
 542 447 l 2
 526 442 523 447 523 453 c 0
 523 457 525 467 525 480 c 0
 525 558 475 641 356 641 c 0
 202 641 132 474 132 359 c 0
 132 157 213 19 358 19 c 0
 501 19 570 111 600 206 c 0
 602 212 605 213 608 212 c 2
 622 208 l 2
EndSplineSet
Substitution2: "'c2sc' Capitals to Small Capitals in Latin lookup 11 subtable" Ccedilla.sc
AlternateSubs2: "'aalt' Access All Alternates in Latin lookup 0 subtable" Ccedilla.sc
Position2: "'cpsp' Capital Spacing in Latin lookup 0 subtable" dx=5 dy=0 dh=10 dv=0
EndChar

StartChar: uni1E08
Encoding: 7688 7688 38
Width: 639
GlyphClass: 2
Flags: MW
HStem: -225 40.24 -81.56 35.57 -10.18 29.19 641 30
VStem: 31 101<258 396.5> 417.39 45.61 525 80<475 499.5 475 519>
AnchorPoint: "Anchor-5" 375 899 basechar 0
AnchorPoint: "Anchor-4" 348 0 basechar 0
LayerCount: 2
Fore
SplineSet
622 208 m 2
 626 207 627.009765625 204.040039062 625.009765625 199.040039062 c 0
 591.76953125 96.3896484375 511.69921875 -6.25 358.62890625 -10.7900390625 c 1
 323.018554688 -52.9501953125 l 1
 336.018554688 -47.9501953125 350.018554688 -45.9501953125 364.018554688 -45.9501953125 c 0
 410.018554688 -45.9501953125 463.018554688 -71.9501953125 463.018554688 -134.950195312 c 0
 463.018554688 -186.950195312 417.018554688 -224.950195312 349.018554688 -224.950195312 c 0
 322.018554688 -224.950195312 292.018554688 -219.950195312 261.018554688 -206.950195312 c 0
 244.018554688 -199.950195312 243.018554688 -199.350585938 243.018554688 -176.73046875 c 0
 243.018554688 -168.740234375 245.668945312 -163.419921875 250.999023438 -163.419921875 c 0
 254.979492188 -163.419921875 258.809570312 -165.139648438 261.629882812 -166.069335938 c 0
 289.580078125 -175.389648438 318.1796875 -184.709960938 351.44921875 -184.709960938 c 0
 393.389648438 -184.709960938 417.349609375 -165.389648438 417.349609375 -137.4296875 c 0
 417.349609375 -97.509765625 380.080078125 -81.529296875 328.169921875 -81.529296875 c 0
 314.200195312 -81.529296875 291.580078125 -85.529296875 280.299804688 -85.529296875 c 0
 273.639648438 -85.529296875 269.649414062 -81.529296875 269.649414062 -76.2197265625 c 0
 269.649414062 -72.2294921875 269.099609375 -69.1298828125 272.309570312 -65.580078125 c 2
 322.299804688 -10.169921875 l 1
 137.139648438 1.6796875 31 142.209960938 31 323 c 0
 31 470 112 671 356 671 c 0
 541 671 605 519 605 480 c 0
 605 470 603 467 596 465 c 2
 542 447 l 2
 526 442 523 447 523 453 c 0
 523 457 525 467 525 480 c 0
 525 558 475 641 356 641 c 0
 202 641 132 474 132 359 c 0
 132 157 213 19 358 19 c 0
 501 19 570 111 600 206 c 0
 602 212 605 213 608 212 c 2
 622 208 l 2
280.990234375 729.23046875 m 1
 331.200195312 791.430664062 342.532226562 810.8203125 364.352539062 858.8203125 c 0
 368.7421875 868.490234375 377.091796875 871.48046875 387.841796875 871.48046875 c 0
 415.551757812 871.48046875 425.841796875 857.060546875 425.841796875 833.780273438 c 0
 425.841796875 784.23046875 361.341796875 752.150390625 314.26171875 721.510742188 c 0
 311.19140625 719.520507812 307.9609375 718.3203125 305.430664062 718.590820312 c 0
 302.400390625 718.920898438 297.310546875 721.060546875 291.120117188 724.16015625 c 2
 280.990234375 729.23046875 l 1
EndSplineSet
Substitution2: "'c2sc' Capitals to Small Capitals in Latin lookup 11 subtable" uni1E08.sc
AlternateSubs2: "'aalt' Access All Alternates in Latin lookup 0 subtable" uni1E08.sc
Position2: "'cpsp' Capital Spacing in Latin lookup 0 subtable" dx=5 dy=0 dh=10 dv=0
EndChar

StartChar: Ccircumflex
Encoding: 264 264 39
Width: 639
GlyphClass: 2
Flags: MW
HStem: -11 30<285.5 428> 641 30<279 415.5>
VStem: 31 101<258 396.5> 525 80<475 499.5 475 519>
AnchorPoint: "Anchor-7" 343 742 basechar 0
AnchorPoint: "Anchor-5" 343 799 basechar 0
AnchorPoint: "Anchor-4" 348 0 basechar 0
LayerCount: 2
Fore
SplineSet
622 208 m 2
 626 207 627 204 625 199 c 0
 591 94 508 -11 348 -11 c 0
 147 -11 31 134 31 323 c 0
 31 470 112 671 356 671 c 0
 541 671 605 519 605 480 c 0
 605 470 603 467 596 465 c 2
 542 447 l 2
 526 442 523 447 523 453 c 0
 523 457 525 467 525 480 c 0
 525 558 475 641 356 641 c 0
 202 641 132 474 132 359 c 0
 132 157 213 19 358 19 c 0
 501 19 570 111 600 206 c 0
 602 212 605 213 608 212 c 2
 622 208 l 2
343 789.91015625 m 1
 324.940429688 755.879882812 294.358398438 717.66015625 254.758789062 717.66015625 c 0
 233.909179688 717.66015625 224.19921875 737.810546875 224.19921875 760.73046875 c 0
 224.19921875 771.140625 224.889648438 780.180664062 232.529296875 783.640625 c 0
 272.819335938 798.920898438 293.668945312 809.340820312 342.999023438 848.930664062 c 1
 392.319335938 809.340820312 413.168945312 798.920898438 453.458984375 783.640625 c 0
 461.098632812 780.180664062 461.7890625 771.140625 461.7890625 760.73046875 c 0
 461.7890625 737.810546875 452.079101562 717.66015625 431.229492188 717.66015625 c 0
 391.629882812 717.66015625 361.059570312 755.879882812 343 789.91015625 c 1
EndSplineSet
Substitution2: "'c2sc' Capitals to Small Capitals in Latin lookup 11 subtable" Ccircumflex.sc
AlternateSubs2: "'aalt' Access All Alternates in Latin lookup 0 subtable" Ccircumflex.sc
Position2: "'cpsp' Capital Spacing in Latin lookup 0 subtable" dx=5 dy=0 dh=10 dv=0
EndChar

StartChar: Cdotaccent
Encoding: 266 266 40
Width: 639
GlyphClass: 2
Flags: MW
HStem: -11 30<285.5 428> 641 30<279 415.5> 727.26 115.48
VStem: 31 101<258 396.5> 285.32 116.36 525 80
AnchorPoint: "Anchor-5" 343 845 basechar 0
AnchorPoint: "Anchor-4" 348 0 basechar 0
LayerCount: 2
Fore
SplineSet
622 208 m 2
 626 207 627 204 625 199 c 0
 591 94 508 -11 348 -11 c 0
 147 -11 31 134 31 323 c 0
 31 470 112 671 356 671 c 0
 541 671 605 519 605 480 c 0
 605 470 603 467 596 465 c 2
 542 447 l 2
 526 442 523 447 523 453 c 0
 523 457 525 467 525 480 c 0
 525 558 475 641 356 641 c 0
 202 641 132 474 132 359 c 0
 132 157 213 19 358 19 c 0
 501 19 570 111 600 206 c 0
 602 212 605 213 608 212 c 2
 622 208 l 2
343.059570312 842.73046875 m 0
 357.059570312 842.73046875 368.419921875 837.48046875 382.419921875 823.5 c 0
 396.419921875 809.5 401.669921875 799 401.669921875 785 c 0
 401.669921875 771 395.549804688 759.629882812 382.4296875 746.509765625 c 0
 368.4296875 732.509765625 357.059570312 727.259765625 343.059570312 727.259765625 c 0
 329.939453125 727.259765625 319.439453125 732.509765625 304.569335938 746.509765625 c 0
 290.569335938 759.629882812 285.319335938 771 285.319335938 785 c 0
 285.319335938 799 290.569335938 809.5 304.569335938 823.5 c 0
 318.569335938 837.48046875 329.939453125 842.73046875 343.059570312 842.73046875 c 0
EndSplineSet
Substitution2: "'c2sc' Capitals to Small Capitals in Latin lookup 11 subtable" Cdotaccent.sc
AlternateSubs2: "'aalt' Access All Alternates in Latin lookup 0 subtable" Cdotaccent.sc
Position2: "'cpsp' Capital Spacing in Latin lookup 0 subtable" dx=5 dy=0 dh=10 dv=0
EndChar

StartChar: D
Encoding: 68 68 41
Width: 625
GlyphClass: 2
Flags: MW
HStem: 0 33<35.5 46 40 46 46 65 40 265> 0 37<224.5 265> 627 33<40 61.5 188 188 188 229>
VStem: 105 83<116 544 544 571.5> 501 93<235.5 416>
AnchorPoint: "Anchor-5" 269 660 basechar 0
AnchorPoint: "Anchor-4" 281 0 basechar 0
LayerCount: 2
Fore
SplineSet
241 660 m 2x78
 451 660 594 535 594 331 c 0
 594 121 466 0 265 0 c 2
 40 0 l 2x78
 31 0 26 4 26 13 c 2
 26 20 l 2
 26 28 31 33 40 33 c 2
 46 33 l 2
 84 33 105 64 105 116 c 2xb8
 105 544 l 2
 105 599 83 627 40 627 c 0
 31 627 26 632 26 640 c 2
 26 647 l 2
 26 656 31 660 40 660 c 2
 241 660 l 2x78
188 112 m 2
 188 66 196 37 253 37 c 0
 403 37 501 140 501 331 c 0
 501 501 405 627 229 627 c 2
 188 627 l 1
 188 112 l 2
EndSplineSet
Substitution2: "'ss04' Style Set 4 in Latin lookup 33 subtable" u1F153
Substitution2: "'ss03' Style Set 3 in Latin lookup 31 subtable" uni24B9
Substitution2: "'c2sc' Capitals to Small Capitals in Latin lookup 11 subtable" D.sc
AlternateSubs2: "'aalt' Access All Alternates in Latin lookup 0 subtable" D.sc uni24B9 u1F153
Position2: "'cpsp' Capital Spacing in Latin lookup 0 subtable" dx=5 dy=0 dh=10 dv=0
EndChar

StartChar: uni01C4
Encoding: 452 452 42
Width: 1272
GlyphClass: 2
Flags: MW
HStem: -12 21G 0 33<35.5 46 40 46 46 65 40 265> 0 37<224.5 265> 0 50<740 928 928 1010> 619 41<812 852 852 1098> 627 33<40 61.5 188 188 188 229> 651 20G 726 131
VStem: 105 83<116 544 544 571.5> 501 93<235.5 416> 865 238
AnchorPoint: "Anchor-5" 984 845 basechar 0
AnchorPoint: "Anchor-4" 916 0 basechar 0
LayerCount: 2
Fore
SplineSet
241 660 m 2x45e0
 451 660 594 535 594 331 c 0
 594 121 466 0 265 0 c 2
 40 0 l 2
 31 0 26 4 26 13 c 2
 26 20 l 2
 26 28 31 33 40 33 c 2
 46 33 l 2
 84 33 105 64 105 116 c 2
 105 544 l 2
 105 599 83 627 40 627 c 0
 31 627 26 632 26 640 c 2
 26 647 l 2
 26 656 31 660 40 660 c 2
 241 660 l 2x45e0
188 112 m 2
 188 66 196 37 253 37 c 0x25e0
 403 37 501 140 501 331 c 0
 501 501 405 627 229 627 c 2
 188 627 l 1
 188 112 l 2
1248 151 m 2
 1254 147 1255 144 1255 141 c 0
 1255 138 1254 136 1252 133 c 2
 1182 -4 l 2
 1179 -9 1176 -11 1171 -11 c 0x85e0
 1169 -11 1166 -11 1163 -9 c 2
 1159 -4 l 2
 1155 0 1148 0 1142 0 c 2
 642 0 l 2
 634 0 629 4 629 13 c 2
 629 32 l 2x45e0
 629 38 631 44 635 49 c 2x15e0
 1098 619 l 1
 852 619 l 2x49e0
 772 619 736 586 694 535 c 2
 691 531 l 2
 687 526 684 523 680 523 c 0
 678 523 675 523 672 525 c 2
 665 529 l 2
 660 532 658 535 658 539 c 0
 658 542 659 544 661 547 c 2
 730 664 l 2
 733 670 737 671 742 671 c 0x43e0
 745 671 747 671 754 664 c 0
 759 660 765 660 771 660 c 2
 1222 660 l 2
 1226 660 1227 658 1227 656 c 2
 1227 651 l 2
 1227 648 1224 644 1222 641 c 2
 740 50 l 1
 928 50 l 2x15e0
 1092 50 1165 69 1212 148 c 2
 1215 153 l 2
 1218 158 1222 161 1226 161 c 0
 1229 161 1231 161 1234 159 c 2
 1248 151 l 2
984 785.080078125 m 1
 1002.0703125 819.120117188 1032.64257812 857.33984375 1072.2421875 857.33984375 c 0
 1093.09179688 857.33984375 1102.81152344 837.189453125 1102.81152344 814.259765625 c 0
 1102.81152344 803.83984375 1102.12109375 794.799804688 1094.48144531 791.330078125 c 0
 1054.18164062 776.040039062 1033.33105469 765.620117188 984.000976562 726.020507812 c 1
 934.670898438 765.620117188 913.821289062 776.040039062 873.521484375 791.330078125 c 0
 865.881835938 794.799804688 865.19140625 803.83984375 865.19140625 814.259765625 c 0
 865.19140625 837.189453125 874.911132812 857.33984375 895.760742188 857.33984375 c 0
 935.360351562 857.33984375 965.940429688 819.120117188 984 785.080078125 c 1
EndSplineSet
Substitution2: "'c2sc' Capitals to Small Capitals in Latin lookup 11 subtable" uni01C4.sc
AlternateSubs2: "'aalt' Access All Alternates in Latin lookup 0 subtable" uni01C4.sc
Position2: "'cpsp' Capital Spacing in Latin lookup 0 subtable" dx=5 dy=0 dh=10 dv=0
EndChar

StartChar: Dcaron
Encoding: 270 270 43
Width: 625
GlyphClass: 2
Flags: MW
HStem: 0 33<35.5 46 40 46 46 65 40 265> 0 37<224.5 265> 627 33<40 61.5 188 188 188 229>
VStem: 105 83<116 544 544 571.5> 501 93<235.5 416>
AnchorPoint: "Anchor-5" 269 845 basechar 0
AnchorPoint: "Anchor-4" 281 0 basechar 0
LayerCount: 2
Fore
SplineSet
241 660 m 2x78
 451 660 594 535 594 331 c 0
 594 121 466 0 265 0 c 2
 40 0 l 2x78
 31 0 26 4 26 13 c 2
 26 20 l 2
 26 28 31 33 40 33 c 2
 46 33 l 2
 84 33 105 64 105 116 c 2xb8
 105 544 l 2
 105 599 83 627 40 627 c 0
 31 627 26 632 26 640 c 2
 26 647 l 2
 26 656 31 660 40 660 c 2
 241 660 l 2x78
188 112 m 2
 188 66 196 37 253 37 c 0
 403 37 501 140 501 331 c 0
 501 501 405 627 229 627 c 2
 188 627 l 1
 188 112 l 2
269 785.0703125 m 1
 287.059570312 819.100585938 317.641601562 857.3203125 357.241210938 857.3203125 c 0
 378.090820312 857.3203125 387.80078125 837.169921875 387.80078125 814.25 c 0
 387.80078125 803.83984375 387.110351562 794.799804688 379.470703125 791.33984375 c 0
 339.180664062 776.059570312 318.331054688 765.639648438 269.010742188 726.049804688 c 1
 219.680664062 765.639648438 198.831054688 776.059570312 158.541015625 791.33984375 c 0
 150.901367188 794.799804688 150.2109375 803.83984375 150.2109375 814.25 c 0
 150.2109375 837.169921875 159.920898438 857.3203125 180.770507812 857.3203125 c 0
 220.370117188 857.3203125 250.940429688 819.100585938 269 785.0703125 c 1
EndSplineSet
Substitution2: "'c2sc' Capitals to Small Capitals in Latin lookup 11 subtable" Dcaron.sc
AlternateSubs2: "'aalt' Access All Alternates in Latin lookup 0 subtable" Dcaron.sc
Position2: "'cpsp' Capital Spacing in Latin lookup 0 subtable" dx=5 dy=0 dh=10 dv=0
EndChar

StartChar: Dcroat
Encoding: 272 272 44
Width: 695
GlyphClass: 2
Flags: MW
HStem: 0 33<35.5 46 40 46 46 65 40 265> 0 37<224.5 265> 307 43<35.5 105 40 105 188 391> 627 33<40 61.5 188 188 188 229>
VStem: 105 83<116 307 350 544 544 571.5> 501 93<235.5 416>
AnchorPoint: "Anchor-5" 269 660 basechar 0
AnchorPoint: "Anchor-4" 281 0 basechar 0
LayerCount: 2
Fore
SplineSet
40 307 m 2x7c
 31 307 26 312 26 320 c 2
 26 336 l 2
 26 345 31 350 40 350 c 2
 105 350 l 1
 105 544 l 2
 105 599 83 627 40 627 c 0
 31 627 26 632 26 640 c 2
 26 647 l 2
 26 656 31 660 40 660 c 2
 241 660 l 2
 451 660 594 535 594 331 c 0
 594 121 466 0 265 0 c 2
 40 0 l 2x7c
 31 0 26 4 26 13 c 2
 26 20 l 2
 26 28 31 33 40 33 c 2
 46 33 l 2
 84 33 105 64 105 116 c 2xbc
 105 307 l 1
 40 307 l 2x7c
188 112 m 2
 188 66 196 37 253 37 c 0
 403 37 501 140 501 331 c 0
 501 501 405 627 229 627 c 2
 188 627 l 1
 188 350 l 1
 391 350 l 2
 400 350 404 345 404 336 c 2
 404 320 l 2
 404 312 400 307 391 307 c 2
 188 307 l 1
 188 112 l 2
EndSplineSet
Substitution2: "'c2sc' Capitals to Small Capitals in Latin lookup 11 subtable" Dcroat.sc
AlternateSubs2: "'aalt' Access All Alternates in Latin lookup 0 subtable" Dcroat.sc
Position2: "'cpsp' Capital Spacing in Latin lookup 0 subtable" dx=5 dy=0 dh=10 dv=0
EndChar

StartChar: uni1E0C
Encoding: 7692 7692 45
Width: 625
GlyphClass: 2
Flags: MW
HStem: -171.94 115.48 0 33<35.5 46 40 46 46 65 40 265> 0 37<224.5 265> 627 33<40 61.5 188 188 188 229>
VStem: 105 83<116 544 544 571.5> 223.32 116.36 501 93
AnchorPoint: "Anchor-5" 269 660 basechar 0
AnchorPoint: "Anchor-4" 281 0 basechar 0
LayerCount: 2
Fore
SplineSet
241 660 m 2x3a
 451 660 594 535 594 331 c 0
 594 121 466 0 265 0 c 2
 40 0 l 2x3a
 31 0 26 4 26 13 c 2
 26 20 l 2
 26 28 31 33 40 33 c 2
 46 33 l 2
 84 33 105 64 105 116 c 2x5a
 105 544 l 2
 105 599 83 627 40 627 c 0
 31 627 26 632 26 640 c 2
 26 647 l 2
 26 656 31 660 40 660 c 2
 241 660 l 2x3a
188 112 m 2
 188 66 196 37 253 37 c 0
 403 37 501 140 501 331 c 0
 501 501 405 627 229 627 c 2
 188 627 l 1
 188 112 l 2
281.049804688 -56.4599609375 m 0xbe
 295.049804688 -56.4599609375 306.41015625 -61.6904296875 320.41015625 -75.6904296875 c 0
 334.41015625 -89.6904296875 339.66015625 -100.190429688 339.66015625 -114.190429688 c 0
 339.66015625 -128.190429688 333.540039062 -139.560546875 320.419921875 -152.680664062 c 0
 306.419921875 -166.680664062 295.049804688 -171.930664062 281.049804688 -171.930664062 c 0
 267.9296875 -171.930664062 257.4296875 -166.680664062 242.559570312 -152.680664062 c 0
 228.559570312 -139.560546875 223.309570312 -128.190429688 223.309570312 -114.190429688 c 0
 223.309570312 -100.190429688 228.559570312 -89.6904296875 242.559570312 -75.6904296875 c 0
 256.559570312 -61.6904296875 267.9296875 -56.4599609375 281.049804688 -56.4599609375 c 0xbe
EndSplineSet
Substitution2: "'c2sc' Capitals to Small Capitals in Latin lookup 11 subtable" uni1E0C.sc
AlternateSubs2: "'aalt' Access All Alternates in Latin lookup 0 subtable" uni1E0C.sc
Position2: "'cpsp' Capital Spacing in Latin lookup 0 subtable" dx=5 dy=0 dh=10 dv=0
EndChar

StartChar: uni1E0E
Encoding: 7694 7694 46
Width: 625
GlyphClass: 2
Flags: MW
HStem: -123 49<168.5 389 173 389> 0 33<35.5 46 40 46 46 65 40 265> 0 37<224.5 265> 627 33<40 61.5 188 188 188 229>
VStem: 105 83<116 544 544 571.5> 501 93<235.5 416>
AnchorPoint: "Anchor-5" 269 660 basechar 0
AnchorPoint: "Anchor-4" 281 0 basechar 0
LayerCount: 2
Fore
SplineSet
241 660 m 2xbc
 451 660 594 535 594 331 c 0
 594 121 466 0 265 0 c 2
 40 0 l 2xbc
 31 0 26 4 26 13 c 2
 26 20 l 2
 26 28 31 33 40 33 c 2
 46 33 l 2
 84 33 105 64 105 116 c 2xdc
 105 544 l 2
 105 599 83 627 40 627 c 0
 31 627 26 632 26 640 c 2
 26 647 l 2
 26 656 31 660 40 660 c 2
 241 660 l 2xbc
188 112 m 2
 188 66 196 37 253 37 c 0
 403 37 501 140 501 331 c 0
 501 501 405 627 229 627 c 2
 188 627 l 1
 188 112 l 2
402 -110 m 2
 402 -118 398 -123 389 -123 c 2
 173 -123 l 2
 164 -123 160 -118 160 -110 c 2
 160 -87 l 2
 160 -78 164 -74 173 -74 c 2
 389 -74 l 2
 398 -74 402 -78 402 -87 c 2
 402 -110 l 2
EndSplineSet
Substitution2: "'c2sc' Capitals to Small Capitals in Latin lookup 11 subtable" uni1E0E.sc
AlternateSubs2: "'aalt' Access All Alternates in Latin lookup 0 subtable" uni1E0E.sc
Position2: "'cpsp' Capital Spacing in Latin lookup 0 subtable" dx=5 dy=0 dh=10 dv=0
EndChar

StartChar: uni01C5
Encoding: 453 453 47
Width: 1085
GlyphClass: 2
Flags: MW
HStem: -12 21G 0 33<35.5 46 40 46 46 65 40 265> 0 37<224.5 265> 431 20G<722.5 726.5> 506 131 627 33<40 61.5 188 188 188 229>
VStem: 105 83<116 544 544 571.5> 501 93<235.5 416> 750 238
AnchorPoint: "Anchor-5" 869 625 basechar 0
AnchorPoint: "Anchor-4" 850 0 basechar 0
LayerCount: 2
Fore
SplineSet
241 660 m 2x3780
 451 660 594 535 594 331 c 0
 594 121 466 0 265 0 c 2
 40 0 l 2x3b80
 31 0 26 4 26 13 c 2
 26 20 l 2
 26 28 31 33 40 33 c 2
 46 33 l 2x5b80
 84 33 105 64 105 116 c 2
 105 544 l 2
 105 599 83 627 40 627 c 0
 31 627 26 632 26 640 c 2
 26 647 l 2
 26 656 31 660 40 660 c 2
 241 660 l 2x3780
188 112 m 2
 188 66 196 37 253 37 c 0
 403 37 501 140 501 331 c 0
 501 501 405 627 229 627 c 2
 188 627 l 1
 188 112 l 2
1069 130 m 2
 1076.20996094 125.83984375 1078.20996094 119.19921875 1074 112.008789062 c 2
 1006 -3.9912109375 l 2
 1003.04980469 -9.021484375 999 -10.9912109375 995 -10.9912109375 c 0x9b80
 991 -10.9912109375 991.120117188 -10.861328125 983 -3.9912109375 c 0
 978.110351562 0.1484375 973 0.0087890625 967 0.0087890625 c 2
 638 0.0087890625 l 2
 629 0.0087890625 625 4.0087890625 625 13.0087890625 c 2
 625 31.0087890625 l 2
 625 35.0087890625 624.900390625 38.6484375 627 41.0087890625 c 2
 945 399.008789062 l 1
 792.330078125 399.008789062 l 2
 736 399.008789062 701.080078125 372.159179688 671.299804688 320.029296875 c 2
 667.299804688 313.029296875 l 2
 661.629882812 303.109375 659.099609375 302.149414062 649.299804688 308.029296875 c 2
 646 310.009765625 l 2
 637.830078125 314.91015625 636.98046875 319.91015625 642 328 c 2
 714 444 l 2
 716.639648438 448.25 720 451 725 451 c 0
 728 451 729.799804688 450.8203125 736 444 c 0
 739.809570312 439.809570312 746 440 752 440 c 2
 1043.06054688 440 l 2
 1048.20996094 440 1049 437.129882812 1049 433.129882812 c 0
 1049 430.129882812 1047.81054688 427.1796875 1045 424 c 2
 706 41 l 1
 882.23046875 41 l 2
 943.23046875 41 999.150390625 50.2197265625 1043 123.309570312 c 2
 1046 128.309570312 l 2
 1053.56054688 140.909179688 1062.66015625 133.659179688 1065 132.309570312 c 2
 1069 130 l 2
869 565.08984375 m 1
 887.0703125 599.129882812 917.641601562 637.349609375 957.241210938 637.349609375 c 0
 978.090820312 637.349609375 987.810546875 617.19921875 987.810546875 594.26953125 c 0
 987.810546875 583.849609375 987.120117188 574.809570312 979.48046875 571.33984375 c 0
 939.180664062 556.049804688 918.331054688 545.629882812 869.000976562 506.030273438 c 1
 819.670898438 545.629882812 798.821289062 556.049804688 758.521484375 571.33984375 c 0
 750.881835938 574.809570312 750.19140625 583.849609375 750.19140625 594.26953125 c 0
 750.19140625 617.19921875 759.911132812 637.349609375 780.760742188 637.349609375 c 0
 820.360351562 637.349609375 850.940429688 599.129882812 869 565.08984375 c 1
EndSplineSet
Substitution2: "'c2sc' Capitals to Small Capitals in Latin lookup 11 subtable" uni01C5.sc
AlternateSubs2: "'aalt' Access All Alternates in Latin lookup 0 subtable" uni01C5.sc
Position2: "'cpsp' Capital Spacing in Latin lookup 0 subtable" dx=5 dy=0 dh=10 dv=0
EndChar

StartChar: Eth
Encoding: 208 208 48
Width: 695
GlyphClass: 2
Flags: MW
HStem: 0 33<35.5 46 40 46 46 65 40 265> 0 37<224.5 265> 307 43<35.5 105 40 105 188 391> 627 33<40 61.5 188 188 188 229>
VStem: 105 83<116 307 350 544 544 571.5> 501 93<235.5 416>
AnchorPoint: "Anchor-5" 269 660 basechar 0
AnchorPoint: "Anchor-4" 281 0 basechar 0
LayerCount: 2
Fore
SplineSet
40 307 m 2x7c
 31 307 26 312 26 320 c 2
 26 336 l 2
 26 345 31 350 40 350 c 2
 105 350 l 1
 105 544 l 2
 105 599 83 627 40 627 c 0
 31 627 26 632 26 640 c 2
 26 647 l 2
 26 656 31 660 40 660 c 2
 241 660 l 2
 451 660 594 535 594 331 c 0
 594 121 466 0 265 0 c 2
 40 0 l 2x7c
 31 0 26 4 26 13 c 2
 26 20 l 2
 26 28 31 33 40 33 c 2
 46 33 l 2
 84 33 105 64 105 116 c 2xbc
 105 307 l 1
 40 307 l 2x7c
188 112 m 2
 188 66 196 37 253 37 c 0
 403 37 501 140 501 331 c 0
 501 501 405 627 229 627 c 2
 188 627 l 1
 188 350 l 1
 391 350 l 2
 400 350 404 345 404 336 c 2
 404 320 l 2
 404 312 400 307 391 307 c 2
 188 307 l 1
 188 112 l 2
EndSplineSet
Substitution2: "'c2sc' Capitals to Small Capitals in Latin lookup 11 subtable" Eth.sc
AlternateSubs2: "'aalt' Access All Alternates in Latin lookup 0 subtable" Eth.sc
Position2: "'cpsp' Capital Spacing in Latin lookup 0 subtable" dx=5 dy=0 dh=10 dv=0
EndChar

StartChar: E
Encoding: 69 69 49
Width: 624
GlyphClass: 2
Flags: MW
HStem: 0 33<35.5 41 40 41 41 62.5 40 481> 0 42<258 333 333 397.5> 330 41<188 302 188 302> 429 20G<379 385 385 389.5> 618 42<188 367 188 188> 626 34<40 62> 651 20G<468.5 472>
VStem: 105 83<116 126 126 330 371 543 543 570.5> 366 32<266 271 271 291 430 436>
AnchorPoint: "Anchor-6" 501 0 basechar 0
AnchorPoint: "Anchor-5" 301 660 basechar 0
AnchorPoint: "Anchor-4" 309 0 basechar 0
LayerCount: 2
Fore
SplineSet
599 188 m 2x7980
 608 184 608 179 604 170 c 2
 521 -4 l 2
 519 -10 515 -12 511 -12 c 0
 508 -12 506 -11 503 -9 c 2
 499 -4 l 2
 495 -1 492 0 481 0 c 2
 40 0 l 2x7980
 31 0 26 4 26 13 c 2
 26 20 l 2
 26 28 32 33 40 33 c 2
 41 33 l 2
 84 33 105 60 105 116 c 2
 105 543 l 2
 105 598 84 626 40 626 c 0xb580
 32 626 26 632 26 640 c 2
 26 646 l 2
 26 655 31 660 40 660 c 2
 440 660 l 2x7980
 449 660 453 661 457 664 c 2
 462 669 l 2
 464 671 467 671 470 671 c 0
 474 671 478 669 481 664 c 2x7380
 550 545 l 2
 552 542 553 539 553 537 c 0
 553 532 550 529 546 526 c 2
 531 517 l 2
 526 514 524 513 521 513 c 0
 517 513 514 516 511 521 c 2
 508 526 l 2
 463 600 435 618 367 618 c 2
 188 618 l 1
 188 371 l 1
 302 371 l 2
 345 371 366 391 366 430 c 2
 366 436 l 2
 366 445 370 449 379 449 c 2
 385 449 l 2
 394 449 398 445 398 436 c 2
 398 266 l 2
 398 257 394 253 385 253 c 2
 379 253 l 2
 370 253 366 257 366 266 c 2
 366 271 l 2
 366 311 346 330 302 330 c 2
 188 330 l 1
 188 126 l 2
 188 72 219 42 258 42 c 2
 333 42 l 2
 462 42 505 67 563 184 c 2
 566 190 l 2
 569 197 576 200 585 195 c 2
 599 188 l 2x7980
EndSplineSet
Substitution2: "'ss04' Style Set 4 in Latin lookup 33 subtable" u1F154
Substitution2: "'ss03' Style Set 3 in Latin lookup 31 subtable" uni24BA
Substitution2: "'c2sc' Capitals to Small Capitals in Latin lookup 11 subtable" E.sc
AlternateSubs2: "'aalt' Access All Alternates in Latin lookup 0 subtable" E.sc uni24BA u1F154
Position2: "'cpsp' Capital Spacing in Latin lookup 0 subtable" dx=5 dy=0 dh=10 dv=0
EndChar

StartChar: Eacute
Encoding: 201 201 50
Width: 624
GlyphClass: 2
Flags: MW
HStem: 0 33<35.5 41 40 41 41 62.5 40 481> 0 42<258 333 333 397.5> 330 41<188 302 188 302> 429 20G<379 385 385 389.5> 618 42<188 367 188 188> 626 34<40 62> 651 20G<468.5 472>
VStem: 105 83<116 126 126 330 371 543 543 570.5> 366 32<266 271 271 291 430 436>
AnchorPoint: "Anchor-6" 501 0 basechar 0
AnchorPoint: "Anchor-5" 333 899 basechar 0
AnchorPoint: "Anchor-4" 309 0 basechar 0
LayerCount: 2
Fore
SplineSet
599 188 m 2x7980
 608 184 608 179 604 170 c 2
 521 -4 l 2
 519 -10 515 -12 511 -12 c 0
 508 -12 506 -11 503 -9 c 2
 499 -4 l 2
 495 -1 492 0 481 0 c 2
 40 0 l 2x7980
 31 0 26 4 26 13 c 2
 26 20 l 2
 26 28 32 33 40 33 c 2
 41 33 l 2
 84 33 105 60 105 116 c 2
 105 543 l 2
 105 598 84 626 40 626 c 0xb580
 32 626 26 632 26 640 c 2
 26 646 l 2
 26 655 31 660 40 660 c 2
 440 660 l 2x7980
 449 660 453 661 457 664 c 2
 462 669 l 2
 464 671 467 671 470 671 c 0
 474 671 478 669 481 664 c 2x7380
 550 545 l 2
 552 542 553 539 553 537 c 0
 553 532 550 529 546 526 c 2
 531 517 l 2
 526 514 524 513 521 513 c 0
 517 513 514 516 511 521 c 2
 508 526 l 2
 463 600 435 618 367 618 c 2
 188 618 l 1
 188 371 l 1
 302 371 l 2
 345 371 366 391 366 430 c 2
 366 436 l 2
 366 445 370 449 379 449 c 2
 385 449 l 2
 394 449 398 445 398 436 c 2
 398 266 l 2
 398 257 394 253 385 253 c 2
 379 253 l 2
 370 253 366 257 366 266 c 2
 366 271 l 2
 366 311 346 330 302 330 c 2
 188 330 l 1
 188 126 l 2
 188 72 219 42 258 42 c 2
 333 42 l 2
 462 42 505 67 563 184 c 2
 566 190 l 2
 569 197 576 200 585 195 c 2
 599 188 l 2x7980
238.98046875 729.190429688 m 1
 289.190429688 791.390625 300.522460938 810.78125 322.342773438 858.78125 c 0
 326.732421875 868.451171875 335.08203125 871.44140625 345.83203125 871.44140625 c 0
 373.541992188 871.44140625 383.83203125 857.021484375 383.83203125 833.741210938 c 0
 383.83203125 784.19140625 319.33203125 752.111328125 272.251953125 721.471679688 c 0
 269.181640625 719.481445312 265.951171875 718.28125 263.420898438 718.55078125 c 0
 260.390625 718.880859375 255.30078125 721.020507812 249.110351562 724.120117188 c 2
 238.98046875 729.190429688 l 1
EndSplineSet
Substitution2: "'c2sc' Capitals to Small Capitals in Latin lookup 11 subtable" Eacute.sc
AlternateSubs2: "'aalt' Access All Alternates in Latin lookup 0 subtable" Eacute.sc
Position2: "'cpsp' Capital Spacing in Latin lookup 0 subtable" dx=5 dy=0 dh=10 dv=0
EndChar

StartChar: Ebreve
Encoding: 276 276 51
Width: 624
GlyphClass: 2
Flags: MW
HStem: 0 33<35.5 41 40 41 41 62.5 40 481> 0 42<258 333 333 397.5> 330 41<188 302 188 302> 429 20G<379 385 385 389.5> 618 42<188 367 188 188> 626 34<40 62> 651 20G<468.5 472> 711 40.48
VStem: 105 83<116 126 126 330 371 543 543 570.5> 178.81 54.65 366 32 368.54 54.65
AnchorPoint: "Anchor-6" 501 0 basechar 0
AnchorPoint: "Anchor-5" 301 814 basechar 0
AnchorPoint: "Anchor-4" 309 0 basechar 0
LayerCount: 2
Fore
SplineSet
599 188 m 2x79a0
 608 184 608 179 604 170 c 2
 521 -4 l 2
 519 -10 515 -12 511 -12 c 0
 508 -12 506 -11 503 -9 c 2
 499 -4 l 2
 495 -1 492 0 481 0 c 2
 40 0 l 2x79a0
 31 0 26 4 26 13 c 2
 26 20 l 2
 26 28 32 33 40 33 c 2
 41 33 l 2
 84 33 105 60 105 116 c 2
 105 543 l 2
 105 598 84 626 40 626 c 0xb5a0
 32 626 26 632 26 640 c 2
 26 646 l 2
 26 655 31 660 40 660 c 2
 440 660 l 2x79a0
 449 660 453 661 457 664 c 2
 462 669 l 2
 464 671 467 671 470 671 c 0
 474 671 478 669 481 664 c 2x73a0
 550 545 l 2
 552 542 553 539 553 537 c 0
 553 532 550 529 546 526 c 2
 531 517 l 2
 526 514 524 513 521 513 c 0
 517 513 514 516 511 521 c 2
 508 526 l 2
 463 600 435 618 367 618 c 2
 188 618 l 1
 188 371 l 1
 302 371 l 2
 345 371 366 391 366 430 c 2
 366 436 l 2
 366 445 370 449 379 449 c 2
 385 449 l 2
 394 449 398 445 398 436 c 2
 398 266 l 2
 398 257 394 253 385 253 c 2
 379 253 l 2
 370 253 366 257 366 266 c 2
 366 271 l 2
 366 311 346 330 302 330 c 2
 188 330 l 1
 188 126 l 2
 188 72 219 42 258 42 c 2
 333 42 l 2
 462 42 505 67 563 184 c 2
 566 190 l 2
 569 197 576 200 585 195 c 2
 599 188 l 2x79a0
301 711 m 1x7950
 301.100585938 711.000976562 l 1
 210.100585938 711.000976562 178.91015625 778.69140625 178.91015625 811.491210938 c 0
 178.91015625 821.491210938 183.549804688 825.271484375 193.899414062 826.481445312 c 0
 197.9296875 826.94140625 209.229492188 827.361328125 216.109375 828.051757812 c 0
 229.1796875 829.372070312 232.939453125 826.211914062 233.509765625 811.931640625 c 0
 234.990234375 775.451171875 261.240234375 751.44140625 301.049804688 751.44140625 c 0
 340.849609375 751.44140625 367.099609375 775.451171875 368.579101562 811.930664062 c 0
 369.149414062 826.2109375 372.909179688 829.37109375 385.989257812 828.05078125 c 0
 392.859375 827.360351562 404.159179688 826.940429688 408.189453125 826.48046875 c 0
 418.559570312 825.270507812 423.1796875 821.490234375 423.1796875 811.490234375 c 0
 423.1796875 778.690429688 392 711 301 711 c 1x7950
EndSplineSet
Substitution2: "'c2sc' Capitals to Small Capitals in Latin lookup 11 subtable" Ebreve.sc
AlternateSubs2: "'aalt' Access All Alternates in Latin lookup 0 subtable" Ebreve.sc
Position2: "'cpsp' Capital Spacing in Latin lookup 0 subtable" dx=5 dy=0 dh=10 dv=0
EndChar

StartChar: Ecaron
Encoding: 282 282 52
Width: 624
GlyphClass: 2
Flags: MW
HStem: 0 33<35.5 41 40 41 41 62.5 40 481> 0 42<258 333 333 397.5> 330 41<188 302 188 302> 429 20G<379 385 385 389.5> 618 42<188 367 188 188> 626 34<40 62> 651 20G<468.5 472>
VStem: 105 83<116 126 126 330 371 543 543 570.5> 366 32<266 271 271 291 430 436>
AnchorPoint: "Anchor-6" 501 0 basechar 0
AnchorPoint: "Anchor-5" 301 845 basechar 0
AnchorPoint: "Anchor-4" 309 0 basechar 0
LayerCount: 2
Fore
SplineSet
599 188 m 2x7980
 608 184 608 179 604 170 c 2
 521 -4 l 2
 519 -10 515 -12 511 -12 c 0
 508 -12 506 -11 503 -9 c 2
 499 -4 l 2
 495 -1 492 0 481 0 c 2
 40 0 l 2x7980
 31 0 26 4 26 13 c 2
 26 20 l 2
 26 28 32 33 40 33 c 2
 41 33 l 2
 84 33 105 60 105 116 c 2
 105 543 l 2
 105 598 84 626 40 626 c 0xb580
 32 626 26 632 26 640 c 2
 26 646 l 2
 26 655 31 660 40 660 c 2
 440 660 l 2x7980
 449 660 453 661 457 664 c 2
 462 669 l 2
 464 671 467 671 470 671 c 0
 474 671 478 669 481 664 c 2x7380
 550 545 l 2
 552 542 553 539 553 537 c 0
 553 532 550 529 546 526 c 2
 531 517 l 2
 526 514 524 513 521 513 c 0
 517 513 514 516 511 521 c 2
 508 526 l 2
 463 600 435 618 367 618 c 2
 188 618 l 1
 188 371 l 1
 302 371 l 2
 345 371 366 391 366 430 c 2
 366 436 l 2
 366 445 370 449 379 449 c 2
 385 449 l 2
 394 449 398 445 398 436 c 2
 398 266 l 2
 398 257 394 253 385 253 c 2
 379 253 l 2
 370 253 366 257 366 266 c 2
 366 271 l 2
 366 311 346 330 302 330 c 2
 188 330 l 1
 188 126 l 2
 188 72 219 42 258 42 c 2
 333 42 l 2
 462 42 505 67 563 184 c 2
 566 190 l 2
 569 197 576 200 585 195 c 2
 599 188 l 2x7980
301 785.0703125 m 1
 319.059570312 819.100585938 349.641601562 857.3203125 389.241210938 857.3203125 c 0
 410.090820312 857.3203125 419.80078125 837.169921875 419.80078125 814.25 c 0
 419.80078125 803.83984375 419.110351562 794.799804688 411.470703125 791.33984375 c 0
 371.180664062 776.059570312 350.331054688 765.639648438 301.010742188 726.049804688 c 1
 251.680664062 765.639648438 230.831054688 776.059570312 190.541015625 791.33984375 c 0
 182.901367188 794.799804688 182.2109375 803.83984375 182.2109375 814.25 c 0
 182.2109375 837.169921875 191.920898438 857.3203125 212.770507812 857.3203125 c 0
 252.370117188 857.3203125 282.940429688 819.100585938 301 785.0703125 c 1
EndSplineSet
Substitution2: "'c2sc' Capitals to Small Capitals in Latin lookup 11 subtable" Ecaron.sc
AlternateSubs2: "'aalt' Access All Alternates in Latin lookup 0 subtable" Ecaron.sc
Position2: "'cpsp' Capital Spacing in Latin lookup 0 subtable" dx=5 dy=0 dh=10 dv=0
EndChar

StartChar: uni1E1C
Encoding: 7708 7708 53
Width: 624
GlyphClass: 2
Flags: MW
HStem: -225 40.24 -81.56 35.57 1.52588e-05 33 1.52588e-05 42 330 41 429 20G 618 42 626 34 651 20G 711 40.48
VStem: 105 83<116 126 126 330 371 543 543 570.5> 178.81 54.65 366 32 368.54 54.65 378.39 45.61
AnchorPoint: "Anchor-6" 501 0 basechar 0
AnchorPoint: "Anchor-5" 301 814 basechar 0
AnchorPoint: "Anchor-4" 309 0 basechar 0
LayerCount: 2
Fore
SplineSet
599 188 m 2xde68
 608 184 608.018554688 179.040039062 604.018554688 170.040039062 c 2
 521.018554688 -3.9599609375 l 2
 519.018554688 -9.9599609375 515.018554688 -11.9599609375 511.018554688 -11.9599609375 c 0
 508.018554688 -11.9599609375 506.018554688 -10.9599609375 503.018554688 -8.9599609375 c 2
 499.018554688 -3.9599609375 l 2
 495.018554688 -0.9599609375 492.018554688 0.0400390625 481.018554688 0.0400390625 c 2
 328.798828125 0.0400390625 l 1
 284.029296875 -52.9599609375 l 1
 297.029296875 -47.9599609375 311.029296875 -45.9599609375 325.029296875 -45.9599609375 c 0
 371.029296875 -45.9599609375 424.029296875 -71.9599609375 424.029296875 -134.959960938 c 0
 424.029296875 -186.959960938 378.029296875 -224.959960938 310.029296875 -224.959960938 c 0
 283.029296875 -224.959960938 253.029296875 -219.959960938 222.029296875 -206.959960938 c 0
 205.029296875 -199.959960938 204.029296875 -199.360351562 204.029296875 -176.740234375 c 0
 204.029296875 -168.75 206.6796875 -163.4296875 212.009765625 -163.4296875 c 0
 215.990234375 -163.4296875 219.8203125 -165.149414062 222.640625 -166.079101562 c 0
 250.590820312 -175.399414062 279.190429688 -184.719726562 312.459960938 -184.719726562 c 0
 354.400390625 -184.719726562 378.360351562 -165.399414062 378.360351562 -137.439453125 c 0
 378.360351562 -97.51953125 341.090820312 -81.5390625 289.180664062 -81.5390625 c 0
 275.2109375 -81.5390625 252.590820312 -85.5390625 241.310546875 -85.5390625 c 0
 234.650390625 -85.5390625 230.66015625 -81.5390625 230.66015625 -76.2294921875 c 0
 230.66015625 -72.2392578125 230.110351562 -69.1396484375 233.3203125 -65.58984375 c 2
 292.5 0 l 1
 40 0 l 2xde62
 31 0 26 4 26 13 c 2
 26 20 l 2
 26 28 32 33 40 33 c 2
 41 33 l 2
 84 33 105 60 105 116 c 2
 105 543 l 2
 105 598 84 626 40 626 c 0xed68
 32 626 26 632 26 640 c 2
 26 646 l 2
 26 655 31 660 40 660 c 2
 440 660 l 2xde68
 449 660 453 661 457 664 c 2
 462 669 l 2
 464 671 467 671 470 671 c 0
 474 671 478 669 481 664 c 2xdce8
 550 545 l 2
 552 542 553 539 553 537 c 0
 553 532 550 529 546 526 c 2
 531 517 l 2
 526 514 524 513 521 513 c 0
 517 513 514 516 511 521 c 2
 508 526 l 2
 463 600 435 618 367 618 c 2
 188 618 l 1
 188 371 l 1
 302 371 l 2
 345 371 366 391 366 430 c 2
 366 436 l 2
 366 445 370 449 379 449 c 2
 385 449 l 2
 394 449 398 445 398 436 c 2
 398 266 l 2
 398 257 394 253 385 253 c 2
 379 253 l 2
 370 253 366 257 366 266 c 2
 366 271 l 2
 366 311 346 330 302 330 c 2
 188 330 l 1
 188 126 l 2
 188 72 219 42 258 42 c 2
 333 42 l 2
 462 42 505 67 563 184 c 2
 566 190 l 2
 569 197 576 200 585 195 c 2
 599 188 l 2xde68
301.018554688 711.040039062 m 1xde54
 301.118164062 711.040039062 l 1
 210.118164062 711.040039062 178.927734375 778.73046875 178.927734375 811.530273438 c 0
 178.927734375 821.530273438 183.567382812 825.310546875 193.916992188 826.520507812 c 0
 197.947265625 826.98046875 209.247070312 827.400390625 216.126953125 828.090820312 c 0
 229.197265625 829.411132812 232.95703125 826.250976562 233.52734375 811.970703125 c 0
 235.0078125 775.490234375 261.2578125 751.48046875 301.067382812 751.48046875 c 0
 340.8671875 751.48046875 367.1171875 775.490234375 368.59765625 811.970703125 c 0
 369.16796875 826.250976562 372.927734375 829.411132812 386.0078125 828.090820312 c 0
 392.877929688 827.400390625 404.177734375 826.98046875 408.208007812 826.520507812 c 0
 418.578125 825.310546875 423.198242188 821.530273438 423.198242188 811.530273438 c 0
 423.198242188 778.73046875 392.018554688 711.040039062 301.018554688 711.040039062 c 1xde54
EndSplineSet
Substitution2: "'c2sc' Capitals to Small Capitals in Latin lookup 11 subtable" uni1E1C.sc
AlternateSubs2: "'aalt' Access All Alternates in Latin lookup 0 subtable" uni1E1C.sc
Position2: "'cpsp' Capital Spacing in Latin lookup 0 subtable" dx=5 dy=0 dh=10 dv=0
EndChar

StartChar: Ecircumflex
Encoding: 202 202 54
Width: 624
GlyphClass: 2
Flags: MW
HStem: 0 33<35.5 41 40 41 41 62.5 40 481> 0 42<258 333 333 397.5> 330 41<188 302 188 302> 429 20G<379 385 385 389.5> 618 42<188 367 188 188> 626 34<40 62> 651 20G<468.5 472>
VStem: 105 83<116 126 126 330 371 543 543 570.5> 366 32<266 271 271 291 430 436>
AnchorPoint: "Anchor-7" 301 742 basechar 0
AnchorPoint: "Anchor-6" 501 0 basechar 0
AnchorPoint: "Anchor-5" 301 799 basechar 0
AnchorPoint: "Anchor-4" 309 0 basechar 0
LayerCount: 2
Fore
SplineSet
599 188 m 2x7980
 608 184 608 179 604 170 c 2
 521 -4 l 2
 519 -10 515 -12 511 -12 c 0
 508 -12 506 -11 503 -9 c 2
 499 -4 l 2
 495 -1 492 0 481 0 c 2
 40 0 l 2x7980
 31 0 26 4 26 13 c 2
 26 20 l 2
 26 28 32 33 40 33 c 2
 41 33 l 2
 84 33 105 60 105 116 c 2
 105 543 l 2
 105 598 84 626 40 626 c 0xb580
 32 626 26 632 26 640 c 2
 26 646 l 2
 26 655 31 660 40 660 c 2
 440 660 l 2x7980
 449 660 453 661 457 664 c 2
 462 669 l 2
 464 671 467 671 470 671 c 0
 474 671 478 669 481 664 c 2x7380
 550 545 l 2
 552 542 553 539 553 537 c 0
 553 532 550 529 546 526 c 2
 531 517 l 2
 526 514 524 513 521 513 c 0
 517 513 514 516 511 521 c 2
 508 526 l 2
 463 600 435 618 367 618 c 2
 188 618 l 1
 188 371 l 1
 302 371 l 2
 345 371 366 391 366 430 c 2
 366 436 l 2
 366 445 370 449 379 449 c 2
 385 449 l 2
 394 449 398 445 398 436 c 2
 398 266 l 2
 398 257 394 253 385 253 c 2
 379 253 l 2
 370 253 366 257 366 266 c 2
 366 271 l 2
 366 311 346 330 302 330 c 2
 188 330 l 1
 188 126 l 2
 188 72 219 42 258 42 c 2
 333 42 l 2
 462 42 505 67 563 184 c 2
 566 190 l 2
 569 197 576 200 585 195 c 2
 599 188 l 2x7980
301 789.91015625 m 1
 282.940429688 755.879882812 252.358398438 717.66015625 212.758789062 717.66015625 c 0
 191.909179688 717.66015625 182.19921875 737.810546875 182.19921875 760.73046875 c 0
 182.19921875 771.140625 182.889648438 780.180664062 190.529296875 783.640625 c 0
 230.819335938 798.920898438 251.668945312 809.340820312 300.999023438 848.930664062 c 1
 350.319335938 809.340820312 371.168945312 798.920898438 411.458984375 783.640625 c 0
 419.098632812 780.180664062 419.7890625 771.140625 419.7890625 760.73046875 c 0
 419.7890625 737.810546875 410.079101562 717.66015625 389.229492188 717.66015625 c 0
 349.629882812 717.66015625 319.059570312 755.879882812 301 789.91015625 c 1
EndSplineSet
Substitution2: "'c2sc' Capitals to Small Capitals in Latin lookup 11 subtable" Ecircumflex.sc
AlternateSubs2: "'aalt' Access All Alternates in Latin lookup 0 subtable" Ecircumflex.sc
Position2: "'cpsp' Capital Spacing in Latin lookup 0 subtable" dx=5 dy=0 dh=10 dv=0
EndChar

StartChar: uni1EBE
Encoding: 7870 7870 55
Width: 624
GlyphClass: 2
Flags: MW
HStem: 0 33<35.5 41 40 41 41 62.5 40 481> 0 42<258 333 333 397.5> 330 41<188 302 188 302> 429 20G<379 385 385 389.5> 618 42<188 367 188 188> 626 34<40 62> 651 20G<468.5 472>
VStem: 105 83<116 126 126 330 371 543 543 570.5> 366 32<266 271 271 291 430 436>
AnchorPoint: "Anchor-7" 475 991 basechar 0
AnchorPoint: "Anchor-6" 501 0 basechar 0
AnchorPoint: "Anchor-5" 301 799 basechar 0
AnchorPoint: "Anchor-4" 309 0 basechar 0
LayerCount: 2
Fore
SplineSet
599 188 m 2x7980
 608 184 608 179 604 170 c 2
 521 -4 l 2
 519 -10 515 -12 511 -12 c 0
 508 -12 506 -11 503 -9 c 2
 499 -4 l 2
 495 -1 492 0 481 0 c 2
 40 0 l 2x7980
 31 0 26 4 26 13 c 2
 26 20 l 2
 26 28 32 33 40 33 c 2
 41 33 l 2
 84 33 105 60 105 116 c 2
 105 543 l 2
 105 598 84 626 40 626 c 0xb580
 32 626 26 632 26 640 c 2
 26 646 l 2
 26 655 31 660 40 660 c 2
 440 660 l 2x7980
 449 660 453 661 457 664 c 2
 462 669 l 2
 464 671 467 671 470 671 c 0
 474 671 478 669 481 664 c 2x7380
 550 545 l 2
 552 542 553 539 553 537 c 0
 553 532 550 529 546 526 c 2
 531 517 l 2
 526 514 524 513 521 513 c 0
 517 513 514 516 511 521 c 2
 508 526 l 2
 463 600 435 618 367 618 c 2
 188 618 l 1
 188 371 l 1
 302 371 l 2
 345 371 366 391 366 430 c 2
 366 436 l 2
 366 445 370 449 379 449 c 2
 385 449 l 2
 394 449 398 445 398 436 c 2
 398 266 l 2
 398 257 394 253 385 253 c 2
 379 253 l 2
 370 253 366 257 366 266 c 2
 366 271 l 2
 366 311 346 330 302 330 c 2
 188 330 l 1
 188 126 l 2
 188 72 219 42 258 42 c 2
 333 42 l 2
 462 42 505 67 563 184 c 2
 566 190 l 2
 569 197 576 200 585 195 c 2
 599 188 l 2x7980
301 789.91015625 m 1
 282.940429688 755.879882812 252.358398438 717.66015625 212.758789062 717.66015625 c 0
 191.909179688 717.66015625 182.19921875 737.810546875 182.19921875 760.73046875 c 0
 182.19921875 771.140625 182.889648438 780.180664062 190.529296875 783.640625 c 0
 230.819335938 798.920898438 251.668945312 809.340820312 300.999023438 848.930664062 c 1
 350.319335938 809.340820312 371.168945312 798.920898438 411.458984375 783.640625 c 0
 419.098632812 780.180664062 419.7890625 771.140625 419.7890625 760.73046875 c 0
 419.7890625 737.810546875 410.079101562 717.66015625 389.229492188 717.66015625 c 0
 349.629882812 717.66015625 319.059570312 755.879882812 301 789.91015625 c 1
380.66796875 820.709960938 m 1
 430.877929688 882.919921875 442.1796875 902.330078125 464 950.330078125 c 0
 468.400390625 960 476.75 962.98046875 487.5 962.98046875 c 0
 515.209960938 962.98046875 525.490234375 948.560546875 525.490234375 925.280273438 c 0
 525.490234375 875.73046875 461.009765625 843.650390625 413.9296875 813.010742188 c 0
 410.859375 811.010742188 407.62890625 809.8203125 405.108398438 810.080078125 c 0
 402.078125 810.400390625 396.998046875 812.560546875 390.788085938 815.66015625 c 2
 380.66796875 820.709960938 l 1
EndSplineSet
Substitution2: "'c2sc' Capitals to Small Capitals in Latin lookup 11 subtable" uni1EBE.sc
AlternateSubs2: "'aalt' Access All Alternates in Latin lookup 0 subtable" uni1EBE.sc
Position2: "'cpsp' Capital Spacing in Latin lookup 0 subtable" dx=5 dy=0 dh=10 dv=0
EndChar

StartChar: uni1EC6
Encoding: 7878 7878 56
Width: 624
GlyphClass: 2
Flags: MW
HStem: -171.94 115.48 0 33<35.5 41 40 41 41 62.5 40 481> 0 42<258 333 333 397.5> 330 41<188 302 188 302> 429 20G<379 385 385 389.5> 618 42<188 367 188 188> 626 34<40 62> 651 20G<468.5 472>
VStem: 105 83<116 126 126 330 371 543 543 570.5> 251.32 116.36 366 32
AnchorPoint: "Anchor-7" 301 742 basechar 0
AnchorPoint: "Anchor-6" 501 0 basechar 0
AnchorPoint: "Anchor-5" 301 799 basechar 0
AnchorPoint: "Anchor-4" 309 0 basechar 0
LayerCount: 2
Fore
SplineSet
599 188 m 2x3ca0
 608 184 608 179 604 170 c 2
 521 -4 l 2
 519 -10 515 -12 511 -12 c 0
 508 -12 506 -11 503 -9 c 2
 499 -4 l 2
 495 -1 492 0 481 0 c 2
 40 0 l 2x3ca0
 31 0 26 4 26 13 c 2
 26 20 l 2
 26 28 32 33 40 33 c 2
 41 33 l 2
 84 33 105 60 105 116 c 2
 105 543 l 2
 105 598 84 626 40 626 c 0x5aa0
 32 626 26 632 26 640 c 2
 26 646 l 2
 26 655 31 660 40 660 c 2
 440 660 l 2x3ca0
 449 660 453 661 457 664 c 2
 462 669 l 2
 464 671 467 671 470 671 c 0
 474 671 478 669 481 664 c 2x39a0
 550 545 l 2
 552 542 553 539 553 537 c 0
 553 532 550 529 546 526 c 2
 531 517 l 2
 526 514 524 513 521 513 c 0
 517 513 514 516 511 521 c 2
 508 526 l 2
 463 600 435 618 367 618 c 2
 188 618 l 1
 188 371 l 1
 302 371 l 2
 345 371 366 391 366 430 c 2
 366 436 l 2
 366 445 370 449 379 449 c 2
 385 449 l 2
 394 449 398 445 398 436 c 2
 398 266 l 2
 398 257 394 253 385 253 c 2
 379 253 l 2
 370 253 366 257 366 266 c 2
 366 271 l 2
 366 311 346 330 302 330 c 2
 188 330 l 1
 188 126 l 2
 188 72 219 42 258 42 c 2
 333 42 l 2
 462 42 505 67 563 184 c 2
 566 190 l 2
 569 197 576 200 585 195 c 2
 599 188 l 2x3ca0
309.059570312 -56.4599609375 m 0xbcc0
 323.059570312 -56.4599609375 334.419921875 -61.6904296875 348.419921875 -75.6904296875 c 0
 362.419921875 -89.6904296875 367.669921875 -100.190429688 367.669921875 -114.190429688 c 0
 367.669921875 -128.190429688 361.549804688 -139.560546875 348.4296875 -152.680664062 c 0
 334.4296875 -166.680664062 323.059570312 -171.930664062 309.059570312 -171.930664062 c 0
 295.939453125 -171.930664062 285.439453125 -166.680664062 270.569335938 -152.680664062 c 0
 256.569335938 -139.560546875 251.319335938 -128.190429688 251.319335938 -114.190429688 c 0
 251.319335938 -100.190429688 256.569335938 -89.6904296875 270.569335938 -75.6904296875 c 0
 284.569335938 -61.6904296875 295.939453125 -56.4599609375 309.059570312 -56.4599609375 c 0xbcc0
301 789.919921875 m 1
 282.940429688 755.889648438 252.358398438 717.669921875 212.758789062 717.669921875 c 0
 191.909179688 717.669921875 182.19921875 737.8203125 182.19921875 760.740234375 c 0
 182.19921875 771.150390625 182.889648438 780.190429688 190.529296875 783.650390625 c 0
 230.819335938 798.930664062 251.668945312 809.350585938 300.999023438 848.940429688 c 1
 350.319335938 809.350585938 371.168945312 798.930664062 411.458984375 783.650390625 c 0
 419.098632812 780.190429688 419.7890625 771.150390625 419.7890625 760.740234375 c 0
 419.7890625 737.8203125 410.079101562 717.669921875 389.229492188 717.669921875 c 0
 349.629882812 717.669921875 319.059570312 755.889648438 301 789.919921875 c 1
EndSplineSet
Substitution2: "'c2sc' Capitals to Small Capitals in Latin lookup 11 subtable" uni1EC6.sc
AlternateSubs2: "'aalt' Access All Alternates in Latin lookup 0 subtable" uni1EC6.sc
Position2: "'cpsp' Capital Spacing in Latin lookup 0 subtable" dx=5 dy=0 dh=10 dv=0
EndChar

StartChar: uni1EC0
Encoding: 7872 7872 57
Width: 624
GlyphClass: 2
Flags: MW
HStem: 0 33<35.5 41 40 41 41 62.5 40 481> 0 42<258 333 333 397.5> 330 41<188 302 188 302> 429 20G<379 385 385 389.5> 618 42<188 367 188 188> 626 34<40 62> 651 20G<468.5 472>
VStem: 105 83<116 126 126 330 371 543 543 570.5> 366 32<266 271 271 291 430 436>
AnchorPoint: "Anchor-7" 132 991 basechar 0
AnchorPoint: "Anchor-6" 501 0 basechar 0
AnchorPoint: "Anchor-5" 301 799 basechar 0
AnchorPoint: "Anchor-4" 309 0 basechar 0
LayerCount: 2
Fore
SplineSet
599 188 m 2x7980
 608 184 608 179 604 170 c 2
 521 -4 l 2
 519 -10 515 -12 511 -12 c 0
 508 -12 506 -11 503 -9 c 2
 499 -4 l 2
 495 -1 492 0 481 0 c 2
 40 0 l 2x7980
 31 0 26 4 26 13 c 2
 26 20 l 2
 26 28 32 33 40 33 c 2
 41 33 l 2
 84 33 105 60 105 116 c 2
 105 543 l 2
 105 598 84 626 40 626 c 0xb580
 32 626 26 632 26 640 c 2
 26 646 l 2
 26 655 31 660 40 660 c 2
 440 660 l 2x7980
 449 660 453 661 457 664 c 2
 462 669 l 2
 464 671 467 671 470 671 c 0
 474 671 478 669 481 664 c 2x7380
 550 545 l 2
 552 542 553 539 553 537 c 0
 553 532 550 529 546 526 c 2
 531 517 l 2
 526 514 524 513 521 513 c 0
 517 513 514 516 511 521 c 2
 508 526 l 2
 463 600 435 618 367 618 c 2
 188 618 l 1
 188 371 l 1
 302 371 l 2
 345 371 366 391 366 430 c 2
 366 436 l 2
 366 445 370 449 379 449 c 2
 385 449 l 2
 394 449 398 445 398 436 c 2
 398 266 l 2
 398 257 394 253 385 253 c 2
 379 253 l 2
 370 253 366 257 366 266 c 2
 366 271 l 2
 366 311 346 330 302 330 c 2
 188 330 l 1
 188 126 l 2
 188 72 219 42 258 42 c 2
 333 42 l 2
 462 42 505 67 563 184 c 2
 566 190 l 2
 569 197 576 200 585 195 c 2
 599 188 l 2x7980
301 789.91015625 m 1
 282.940429688 755.879882812 252.358398438 717.66015625 212.758789062 717.66015625 c 0
 191.909179688 717.66015625 182.19921875 737.810546875 182.19921875 760.73046875 c 0
 182.19921875 771.140625 182.889648438 780.180664062 190.529296875 783.640625 c 0
 230.819335938 798.920898438 251.668945312 809.340820312 300.999023438 848.930664062 c 1
 350.319335938 809.340820312 371.168945312 798.920898438 411.458984375 783.640625 c 0
 419.098632812 780.180664062 419.7890625 771.140625 419.7890625 760.73046875 c 0
 419.7890625 737.810546875 410.079101562 717.66015625 389.229492188 717.66015625 c 0
 349.629882812 717.66015625 319.059570312 755.879882812 301 789.91015625 c 1
216.05859375 815.66015625 m 2
 209.868164062 812.560546875 204.759765625 810.390625 201.729492188 810.0703125 c 0
 199.19921875 809.810546875 195.96875 811.000976562 192.909179688 813.000976562 c 0
 145.829101562 843.640625 81.3291015625 875.720703125 81.3291015625 925.270507812 c 0
 81.3291015625 948.55078125 91.62890625 962.970703125 119.338867188 962.970703125 c 0
 130.088867188 962.970703125 138.438476562 959.990234375 142.838867188 950.3203125 c 0
 164.6484375 902.3203125 175.978515625 882.919921875 226.188476562 820.709960938 c 1
 216.05859375 815.66015625 l 2
EndSplineSet
Substitution2: "'c2sc' Capitals to Small Capitals in Latin lookup 11 subtable" uni1EC0.sc
AlternateSubs2: "'aalt' Access All Alternates in Latin lookup 0 subtable" uni1EC0.sc
Position2: "'cpsp' Capital Spacing in Latin lookup 0 subtable" dx=5 dy=0 dh=10 dv=0
EndChar

StartChar: uni1EC2
Encoding: 7874 7874 58
Width: 624
GlyphClass: 2
Flags: MW
HStem: 0 33<35.5 41 40 41 41 62.5 40 481> 0 42<258 333 333 397.5> 330 41<188 302 188 302> 429 20G<379 385 385 389.5> 618 42<188 367 188 188> 626 34<40 62> 651 20G<468.5 472> 903.94 56.6
VStem: 105 83<116 126 126 330 371 543 543 570.5> 366 32<266 271 271 291 430 436> 401.37 46.63
AnchorPoint: "Anchor-7" 387 1038 basechar 0
AnchorPoint: "Anchor-6" 501 0 basechar 0
AnchorPoint: "Anchor-5" 301 799 basechar 0
AnchorPoint: "Anchor-4" 309 0 basechar 0
LayerCount: 2
Fore
SplineSet
599 188 m 2x79c0
 608 184 608 179 604 170 c 2
 521 -4 l 2
 519 -10 515 -12 511 -12 c 0
 508 -12 506 -11 503 -9 c 2
 499 -4 l 2
 495 -1 492 0 481 0 c 2
 40 0 l 2x79c0
 31 0 26 4 26 13 c 2
 26 20 l 2
 26 28 32 33 40 33 c 2
 41 33 l 2
 84 33 105 60 105 116 c 2
 105 543 l 2
 105 598 84 626 40 626 c 0xb5c0
 32 626 26 632 26 640 c 2
 26 646 l 2
 26 655 31 660 40 660 c 2
 440 660 l 2x79c0
 449 660 453 661 457 664 c 2
 462 669 l 2
 464 671 467 671 470 671 c 0
 474 671 478 669 481 664 c 2x73c0
 550 545 l 2
 552 542 553 539 553 537 c 0
 553 532 550 529 546 526 c 2
 531 517 l 2
 526 514 524 513 521 513 c 0
 517 513 514 516 511 521 c 2
 508 526 l 2
 463 600 435 618 367 618 c 2
 188 618 l 1
 188 371 l 1
 302 371 l 2
 345 371 366 391 366 430 c 2
 366 436 l 2
 366 445 370 449 379 449 c 2
 385 449 l 2
 394 449 398 445 398 436 c 2
 398 266 l 2
 398 257 394 253 385 253 c 2
 379 253 l 2
 370 253 366 257 366 266 c 2
 366 271 l 2
 366 311 346 330 302 330 c 2
 188 330 l 1
 188 126 l 2
 188 72 219 42 258 42 c 2
 333 42 l 2
 462 42 505 67 563 184 c 2
 566 190 l 2
 569 197 576 200 585 195 c 2
 599 188 l 2x79c0
301 789.91015625 m 1
 282.940429688 755.879882812 252.358398438 717.66015625 212.758789062 717.66015625 c 0
 191.909179688 717.66015625 182.19921875 737.810546875 182.19921875 760.73046875 c 0
 182.19921875 771.140625 182.889648438 780.180664062 190.529296875 783.640625 c 0
 230.819335938 798.920898438 251.668945312 809.340820312 300.999023438 848.930664062 c 1
 350.319335938 809.340820312 371.168945312 798.920898438 411.458984375 783.640625 c 0
 419.098632812 780.180664062 419.7890625 771.140625 419.7890625 760.73046875 c 0
 419.7890625 737.810546875 410.079101562 717.66015625 389.229492188 717.66015625 c 0
 349.629882812 717.66015625 319.059570312 755.879882812 301 789.91015625 c 1
411.1484375 813.390625 m 0x79a0
 404.568359375 804.791015625 375.587890625 825.013671875 378.9375 830.973632812 c 0
 387.197265625 845.633789062 401.336914062 860.2734375 401.336914062 879.833007812 c 0
 401.336914062 896.193359375 389.907226562 903.922851562 375.577148438 903.922851562 c 0
 358.006835938 903.922851562 346.287109375 890.262695312 342.607421875 896.762695312 c 0
 335.9375 908.522460938 323.887695312 923.202148438 326.9375 938.051757812 c 0
 328.66796875 946.461914062 351.998046875 960.51171875 380.98828125 960.51171875 c 0
 431.678710938 960.51171875 447.978515625 921.481445312 447.978515625 893.521484375 c 0
 447.978515625 870.081054688 434.1484375 842.831054688 411.1484375 813.390625 c 0x79a0
EndSplineSet
Substitution2: "'c2sc' Capitals to Small Capitals in Latin lookup 11 subtable" uni1EC2.sc
AlternateSubs2: "'aalt' Access All Alternates in Latin lookup 0 subtable" uni1EC2.sc
Position2: "'cpsp' Capital Spacing in Latin lookup 0 subtable" dx=5 dy=0 dh=10 dv=0
EndChar

StartChar: uni1EC4
Encoding: 7876 7876 59
Width: 624
GlyphClass: 2
Flags: MW
HStem: 0 33<35.5 41 40 41 41 62.5 40 481> 0 42<258 333 333 397.5> 330 41<188 302 188 302> 429 20G<379 385 385 389.5> 618 42<188 367 188 188> 626 34<40 62> 651 20G<468.5 472> 868.44 42 952.44 41
VStem: 105 83<116 126 126 330 371 543 543 570.5> 164 46 366 32<266 271 271 291 430 436> 392 46
AnchorPoint: "Anchor-7" 301 742 basechar 0
AnchorPoint: "Anchor-6" 501 0 basechar 0
AnchorPoint: "Anchor-5" 301 984 basechar 0
AnchorPoint: "Anchor-4" 309 0 basechar 0
LayerCount: 2
Fore
SplineSet
599 188 m 2x79d0
 608 184 608 179 604 170 c 2
 521 -4 l 2
 519 -10 515 -12 511 -12 c 0
 508 -12 506 -11 503 -9 c 2
 499 -4 l 2
 495 -1 492 0 481 0 c 2
 40 0 l 2x79d0
 31 0 26 4 26 13 c 2
 26 20 l 2
 26 28 32 33 40 33 c 2
 41 33 l 2
 84 33 105 60 105 116 c 2
 105 543 l 2
 105 598 84 626 40 626 c 0xb5d0
 32 626 26 632 26 640 c 2
 26 646 l 2
 26 655 31 660 40 660 c 2
 440 660 l 2x79d0
 449 660 453 661 457 664 c 2
 462 669 l 2
 464 671 467 671 470 671 c 0
 474 671 478 669 481 664 c 2x73d0
 550 545 l 2
 552 542 553 539 553 537 c 0
 553 532 550 529 546 526 c 2
 531 517 l 2
 526 514 524 513 521 513 c 0
 517 513 514 516 511 521 c 2
 508 526 l 2
 463 600 435 618 367 618 c 2
 188 618 l 1
 188 371 l 1
 302 371 l 2
 345 371 366 391 366 430 c 2
 366 436 l 2
 366 445 370 449 379 449 c 2
 385 449 l 2
 394 449 398 445 398 436 c 2
 398 266 l 2
 398 257 394 253 385 253 c 2
 379 253 l 2
 370 253 366 257 366 266 c 2
 366 271 l 2
 366 311 346 330 302 330 c 2
 188 330 l 1
 188 126 l 2
 188 72 219 42 258 42 c 2
 333 42 l 2
 462 42 505 67 563 184 c 2
 566 190 l 2
 569 197 576 200 585 195 c 2
 599 188 l 2x79d0
301 789.91015625 m 1
 282.940429688 755.879882812 252.358398438 717.66015625 212.758789062 717.66015625 c 0
 191.909179688 717.66015625 182.19921875 737.810546875 182.19921875 760.73046875 c 0
 182.19921875 771.140625 182.889648438 780.180664062 190.529296875 783.640625 c 0
 230.819335938 798.920898438 251.668945312 809.340820312 300.999023438 848.930664062 c 1
 350.319335938 809.340820312 371.168945312 798.920898438 411.458984375 783.640625 c 0
 419.098632812 780.180664062 419.7890625 771.140625 419.7890625 760.73046875 c 0
 419.7890625 737.810546875 410.079101562 717.66015625 389.229492188 717.66015625 c 0
 349.629882812 717.66015625 319.059570312 755.879882812 301 789.91015625 c 1
315.528320312 942.490234375 m 0
 330.928710938 918.669921875 343.575195312 910.4296875 358.975585938 910.4296875 c 0
 378.975585938 910.4296875 391.975585938 926.159179688 391.975585938 947.418945312 c 0
 391.975585938 958.168945312 389.8359375 969.829101562 383.786132812 981.678710938 c 1
 392.0859375 988.478515625 402.366210938 994.408203125 410.965820312 994.408203125 c 0
 424.215820312 994.408203125 437.956054688 970.858398438 437.956054688 943.41796875 c 0
 437.956054688 896.587890625 404.606445312 868.427734375 368.966796875 868.427734375 c 0
 317.756835938 868.427734375 300.31640625 895.578125 286.74609375 918.828125 c 0
 272.776367188 943.98828125 259.38671875 952.408203125 243.997070312 952.408203125 c 0
 223.997070312 952.408203125 209.997070312 934.818359375 209.997070312 914.41796875 c 0
 209.997070312 903.278320312 212.846679688 891.638671875 219.037109375 880.088867188 c 1
 210.6875 873.329101562 200.247070312 867.439453125 190.997070312 867.439453125 c 0
 178.6875 867.439453125 164.0078125 890.649414062 164.0078125 917.4296875 c 0
 164.0078125 965.139648438 198.23828125 993.419921875 233.998046875 993.419921875 c 0x79a8
 284.337890625 993.419921875 302.547851562 964.440429688 315.528320312 942.490234375 c 0
EndSplineSet
Substitution2: "'c2sc' Capitals to Small Capitals in Latin lookup 11 subtable" uni1EC4.sc
AlternateSubs2: "'aalt' Access All Alternates in Latin lookup 0 subtable" uni1EC4.sc
Position2: "'cpsp' Capital Spacing in Latin lookup 0 subtable" dx=5 dy=0 dh=10 dv=0
EndChar

StartChar: uni0204
Encoding: 516 516 60
Width: 624
GlyphClass: 2
Flags: MW
HStem: 0 33<35.5 41 40 41 41 62.5 40 481> 0 42<258 333 333 397.5> 330 41<188 302 188 302> 429 20G<379 385 385 389.5> 618 42<188 367 188 188> 626 34<40 62> 651 20G<468.5 472>
VStem: 105 83<116 126 126 330 371 543 543 570.5> 366 32<266 271 271 291 430 436>
AnchorPoint: "Anchor-6" 501 0 basechar 0
AnchorPoint: "Anchor-5" 301 899 basechar 0
AnchorPoint: "Anchor-4" 309 0 basechar 0
LayerCount: 2
Fore
SplineSet
599 188 m 2x7980
 608 184 608 179 604 170 c 2
 521 -4 l 2
 519 -10 515 -12 511 -12 c 0
 508 -12 506 -11 503 -9 c 2
 499 -4 l 2
 495 -1 492 0 481 0 c 2
 40 0 l 2x7980
 31 0 26 4 26 13 c 2
 26 20 l 2
 26 28 32 33 40 33 c 2
 41 33 l 2
 84 33 105 60 105 116 c 2
 105 543 l 2
 105 598 84 626 40 626 c 0xb580
 32 626 26 632 26 640 c 2
 26 646 l 2
 26 655 31 660 40 660 c 2
 440 660 l 2x7980
 449 660 453 661 457 664 c 2
 462 669 l 2
 464 671 467 671 470 671 c 0
 474 671 478 669 481 664 c 2x7380
 550 545 l 2
 552 542 553 539 553 537 c 0
 553 532 550 529 546 526 c 2
 531 517 l 2
 526 514 524 513 521 513 c 0
 517 513 514 516 511 521 c 2
 508 526 l 2
 463 600 435 618 367 618 c 2
 188 618 l 1
 188 371 l 1
 302 371 l 2
 345 371 366 391 366 430 c 2
 366 436 l 2
 366 445 370 449 379 449 c 2
 385 449 l 2
 394 449 398 445 398 436 c 2
 398 266 l 2
 398 257 394 253 385 253 c 2
 379 253 l 2
 370 253 366 257 366 266 c 2
 366 271 l 2
 366 311 346 330 302 330 c 2
 188 330 l 1
 188 126 l 2
 188 72 219 42 258 42 c 2
 333 42 l 2
 462 42 505 67 563 184 c 2
 566 190 l 2
 569 197 576 200 585 195 c 2
 599 188 l 2x7980
471.240234375 724.120117188 m 2
 465.049804688 721.020507812 459.952148438 718.879882812 456.921875 718.549804688 c 0
 454.401367188 718.280273438 451.161132812 719.48046875 448.090820312 721.470703125 c 0
 401.020507812 752.110351562 336.520507812 784.190429688 336.520507812 833.740234375 c 0
 336.520507812 857.020507812 346.80078125 871.440429688 374.520507812 871.440429688 c 0
 385.270507812 871.440429688 393.620117188 868.450195312 398.009765625 858.780273438 c 0
 419.830078125 810.780273438 431.150390625 791.390625 481.360351562 729.190429688 c 1
 471.240234375 724.120117188 l 2
298.642578125 724.119140625 m 2
 292.432617188 721.01953125 287.322265625 718.87890625 284.301757812 718.548828125 c 0
 281.771484375 718.279296875 278.541992188 719.479492188 275.482421875 721.469726562 c 0
 228.40234375 752.109375 163.921875 784.189453125 163.921875 833.739257812 c 0
 163.921875 857.01953125 174.202148438 871.439453125 201.912109375 871.439453125 c 0
 212.662109375 871.439453125 221.032226562 868.44921875 225.421875 858.779296875 c 0
 247.2421875 810.779296875 258.5625 791.389648438 308.762695312 729.189453125 c 1
 298.642578125 724.119140625 l 2
EndSplineSet
Substitution2: "'c2sc' Capitals to Small Capitals in Latin lookup 11 subtable" uni0204.sc
AlternateSubs2: "'aalt' Access All Alternates in Latin lookup 0 subtable" uni0204.sc
Position2: "'cpsp' Capital Spacing in Latin lookup 0 subtable" dx=5 dy=0 dh=10 dv=0
EndChar

StartChar: Edieresis
Encoding: 203 203 61
Width: 624
GlyphClass: 2
Flags: MW
HStem: 0 33<35.5 41 40 41 41 62.5 40 481> 0 42<258 333 333 397.5> 330 41<188 302 188 302> 429 20G<379 385 385 389.5> 618 42<188 367 188 188> 626 34<40 62> 651 20G<468.5 472> 727.26 115.48
VStem: 105 83<116 126 126 330 371 543 543 570.5> 140.72 116.36 345.72 116.36 366 32<266 271 271 291 430 436>
AnchorPoint: "Anchor-6" 501 0 basechar 0
AnchorPoint: "Anchor-5" 301 845 basechar 0
AnchorPoint: "Anchor-4" 309 0 basechar 0
LayerCount: 2
Fore
SplineSet
599 188 m 2x7990
 608 184 608 179 604 170 c 2
 521 -4 l 2
 519 -10 515 -12 511 -12 c 0
 508 -12 506 -11 503 -9 c 2
 499 -4 l 2
 495 -1 492 0 481 0 c 2
 40 0 l 2x7990
 31 0 26 4 26 13 c 2
 26 20 l 2
 26 28 32 33 40 33 c 2
 41 33 l 2
 84 33 105 60 105 116 c 2
 105 543 l 2
 105 598 84 626 40 626 c 0xb590
 32 626 26 632 26 640 c 2
 26 646 l 2
 26 655 31 660 40 660 c 2
 440 660 l 2x7990
 449 660 453 661 457 664 c 2
 462 669 l 2
 464 671 467 671 470 671 c 0
 474 671 478 669 481 664 c 2x7390
 550 545 l 2
 552 542 553 539 553 537 c 0
 553 532 550 529 546 526 c 2
 531 517 l 2
 526 514 524 513 521 513 c 0
 517 513 514 516 511 521 c 2
 508 526 l 2
 463 600 435 618 367 618 c 2
 188 618 l 1
 188 371 l 1
 302 371 l 2
 345 371 366 391 366 430 c 2
 366 436 l 2
 366 445 370 449 379 449 c 2
 385 449 l 2
 394 449 398 445 398 436 c 2
 398 266 l 2
 398 257 394 253 385 253 c 2
 379 253 l 2
 370 253 366 257 366 266 c 2
 366 271 l 2
 366 311 346 330 302 330 c 2
 188 330 l 1
 188 126 l 2
 188 72 219 42 258 42 c 2
 333 42 l 2
 462 42 505 67 563 184 c 2
 566 190 l 2
 569 197 576 200 585 195 c 2
 599 188 l 2x7990
198.459960938 842.73046875 m 0x7960
 212.459960938 842.73046875 223.830078125 837.48046875 237.810546875 823.5 c 0
 251.810546875 809.5 257.060546875 799 257.060546875 785 c 0
 257.060546875 771 250.940429688 759.629882812 237.8203125 746.509765625 c 0
 223.83984375 732.509765625 212.459960938 727.259765625 198.459960938 727.259765625 c 0
 185.349609375 727.259765625 174.849609375 732.509765625 159.979492188 746.509765625 c 0
 145.979492188 759.629882812 140.729492188 771 140.729492188 785 c 0
 140.729492188 799 145.979492188 809.5 159.979492188 823.5 c 0
 173.979492188 837.48046875 185.349609375 842.73046875 198.459960938 842.73046875 c 0x7960
403.450195312 842.73046875 m 0
 417.450195312 842.73046875 428.8203125 837.48046875 442.80078125 823.5 c 0
 456.80078125 809.5 462.05078125 799 462.05078125 785 c 0
 462.05078125 771 455.930664062 759.629882812 442.810546875 746.509765625 c 0
 428.830078125 732.509765625 417.450195312 727.259765625 403.450195312 727.259765625 c 0
 390.33984375 727.259765625 379.83984375 732.509765625 364.969726562 746.509765625 c 0
 350.969726562 759.629882812 345.719726562 771 345.719726562 785 c 0
 345.719726562 799 350.969726562 809.5 364.969726562 823.5 c 0
 378.969726562 837.48046875 390.33984375 842.73046875 403.450195312 842.73046875 c 0
EndSplineSet
Substitution2: "'c2sc' Capitals to Small Capitals in Latin lookup 11 subtable" Edieresis.sc
AlternateSubs2: "'aalt' Access All Alternates in Latin lookup 0 subtable" Edieresis.sc
Position2: "'cpsp' Capital Spacing in Latin lookup 0 subtable" dx=5 dy=0 dh=10 dv=0
EndChar

StartChar: Edotaccent
Encoding: 278 278 62
Width: 624
GlyphClass: 2
Flags: MW
HStem: 0 33<35.5 41 40 41 41 62.5 40 481> 0 42<258 333 333 397.5> 330 41<188 302 188 302> 429 20G<379 385 385 389.5> 618 42<188 367 188 188> 626 34<40 62> 651 20G<468.5 472> 727.26 115.48
VStem: 105 83<116 126 126 330 371 543 543 570.5> 243.32 116.36 366 32
AnchorPoint: "Anchor-6" 501 0 basechar 0
AnchorPoint: "Anchor-5" 301 845 basechar 0
AnchorPoint: "Anchor-4" 309 0 basechar 0
LayerCount: 2
Fore
SplineSet
599 188 m 2x78a0
 608 184 608 179 604 170 c 2
 521 -4 l 2
 519 -10 515 -12 511 -12 c 0
 508 -12 506 -11 503 -9 c 2
 499 -4 l 2
 495 -1 492 0 481 0 c 2
 40 0 l 2x78a0
 31 0 26 4 26 13 c 2
 26 20 l 2
 26 28 32 33 40 33 c 2
 41 33 l 2
 84 33 105 60 105 116 c 2
 105 543 l 2
 105 598 84 626 40 626 c 0xb4a0
 32 626 26 632 26 640 c 2
 26 646 l 2
 26 655 31 660 40 660 c 2
 440 660 l 2x78a0
 449 660 453 661 457 664 c 2
 462 669 l 2
 464 671 467 671 470 671 c 0
 474 671 478 669 481 664 c 2x72a0
 550 545 l 2
 552 542 553 539 553 537 c 0
 553 532 550 529 546 526 c 2
 531 517 l 2
 526 514 524 513 521 513 c 0
 517 513 514 516 511 521 c 2
 508 526 l 2
 463 600 435 618 367 618 c 2
 188 618 l 1
 188 371 l 1
 302 371 l 2
 345 371 366 391 366 430 c 2
 366 436 l 2
 366 445 370 449 379 449 c 2
 385 449 l 2
 394 449 398 445 398 436 c 2
 398 266 l 2
 398 257 394 253 385 253 c 2
 379 253 l 2
 370 253 366 257 366 266 c 2
 366 271 l 2
 366 311 346 330 302 330 c 2
 188 330 l 1
 188 126 l 2
 188 72 219 42 258 42 c 2
 333 42 l 2
 462 42 505 67 563 184 c 2
 566 190 l 2
 569 197 576 200 585 195 c 2
 599 188 l 2x78a0
301.059570312 842.73046875 m 0x79c0
 315.059570312 842.73046875 326.419921875 837.48046875 340.419921875 823.5 c 0
 354.419921875 809.5 359.669921875 799 359.669921875 785 c 0
 359.669921875 771 353.549804688 759.629882812 340.4296875 746.509765625 c 0
 326.4296875 732.509765625 315.059570312 727.259765625 301.059570312 727.259765625 c 0
 287.939453125 727.259765625 277.439453125 732.509765625 262.569335938 746.509765625 c 0
 248.569335938 759.629882812 243.319335938 771 243.319335938 785 c 0
 243.319335938 799 248.569335938 809.5 262.569335938 823.5 c 0
 276.569335938 837.48046875 287.939453125 842.73046875 301.059570312 842.73046875 c 0x79c0
EndSplineSet
Substitution2: "'c2sc' Capitals to Small Capitals in Latin lookup 11 subtable" Edotaccent.sc
AlternateSubs2: "'aalt' Access All Alternates in Latin lookup 0 subtable" Edotaccent.sc
Position2: "'cpsp' Capital Spacing in Latin lookup 0 subtable" dx=5 dy=0 dh=10 dv=0
EndChar

StartChar: uni1EB8
Encoding: 7864 7864 63
Width: 624
GlyphClass: 2
Flags: MW
HStem: -171.94 115.48 0 33<35.5 41 40 41 41 62.5 40 481> 0 42<258 333 333 397.5> 330 41<188 302 188 302> 429 20G<379 385 385 389.5> 618 42<188 367 188 188> 626 34<40 62> 651 20G<468.5 472>
VStem: 105 83<116 126 126 330 371 543 543 570.5> 251.32 116.36 366 32
AnchorPoint: "Anchor-6" 501 0 basechar 0
AnchorPoint: "Anchor-5" 301 660 basechar 0
AnchorPoint: "Anchor-4" 309 0 basechar 0
LayerCount: 2
Fore
SplineSet
599 188 m 2x3ca0
 608 184 608 179 604 170 c 2
 521 -4 l 2
 519 -10 515 -12 511 -12 c 0
 508 -12 506 -11 503 -9 c 2
 499 -4 l 2
 495 -1 492 0 481 0 c 2
 40 0 l 2x3ca0
 31 0 26 4 26 13 c 2
 26 20 l 2
 26 28 32 33 40 33 c 2
 41 33 l 2
 84 33 105 60 105 116 c 2
 105 543 l 2
 105 598 84 626 40 626 c 0x5aa0
 32 626 26 632 26 640 c 2
 26 646 l 2
 26 655 31 660 40 660 c 2
 440 660 l 2x3ca0
 449 660 453 661 457 664 c 2
 462 669 l 2
 464 671 467 671 470 671 c 0
 474 671 478 669 481 664 c 2x39a0
 550 545 l 2
 552 542 553 539 553 537 c 0
 553 532 550 529 546 526 c 2
 531 517 l 2
 526 514 524 513 521 513 c 0
 517 513 514 516 511 521 c 2
 508 526 l 2
 463 600 435 618 367 618 c 2
 188 618 l 1
 188 371 l 1
 302 371 l 2
 345 371 366 391 366 430 c 2
 366 436 l 2
 366 445 370 449 379 449 c 2
 385 449 l 2
 394 449 398 445 398 436 c 2
 398 266 l 2
 398 257 394 253 385 253 c 2
 379 253 l 2
 370 253 366 257 366 266 c 2
 366 271 l 2
 366 311 346 330 302 330 c 2
 188 330 l 1
 188 126 l 2
 188 72 219 42 258 42 c 2
 333 42 l 2
 462 42 505 67 563 184 c 2
 566 190 l 2
 569 197 576 200 585 195 c 2
 599 188 l 2x3ca0
309.059570312 -56.4599609375 m 0xbcc0
 323.059570312 -56.4599609375 334.419921875 -61.6904296875 348.419921875 -75.6904296875 c 0
 362.419921875 -89.6904296875 367.669921875 -100.190429688 367.669921875 -114.190429688 c 0
 367.669921875 -128.190429688 361.549804688 -139.560546875 348.4296875 -152.680664062 c 0
 334.4296875 -166.680664062 323.059570312 -171.930664062 309.059570312 -171.930664062 c 0
 295.939453125 -171.930664062 285.439453125 -166.680664062 270.569335938 -152.680664062 c 0
 256.569335938 -139.560546875 251.319335938 -128.190429688 251.319335938 -114.190429688 c 0
 251.319335938 -100.190429688 256.569335938 -89.6904296875 270.569335938 -75.6904296875 c 0
 284.569335938 -61.6904296875 295.939453125 -56.4599609375 309.059570312 -56.4599609375 c 0xbcc0
EndSplineSet
Substitution2: "'c2sc' Capitals to Small Capitals in Latin lookup 11 subtable" uni1EB8.sc
AlternateSubs2: "'aalt' Access All Alternates in Latin lookup 0 subtable" uni1EB8.sc
Position2: "'cpsp' Capital Spacing in Latin lookup 0 subtable" dx=5 dy=0 dh=10 dv=0
EndChar

StartChar: Egrave
Encoding: 200 200 64
Width: 624
GlyphClass: 2
Flags: MW
HStem: 0 33<35.5 41 40 41 41 62.5 40 481> 0 42<258 333 333 397.5> 330 41<188 302 188 302> 429 20G<379 385 385 389.5> 618 42<188 367 188 188> 626 34<40 62> 651 20G<468.5 472>
VStem: 105 83<116 126 126 330 371 543 543 570.5> 366 32<266 271 271 291 430 436>
AnchorPoint: "Anchor-6" 501 0 basechar 0
AnchorPoint: "Anchor-5" 276 899 basechar 0
AnchorPoint: "Anchor-4" 309 0 basechar 0
LayerCount: 2
Fore
SplineSet
599 188 m 2x7980
 608 184 608 179 604 170 c 2
 521 -4 l 2
 519 -10 515 -12 511 -12 c 0
 508 -12 506 -11 503 -9 c 2
 499 -4 l 2
 495 -1 492 0 481 0 c 2
 40 0 l 2x7980
 31 0 26 4 26 13 c 2
 26 20 l 2
 26 28 32 33 40 33 c 2
 41 33 l 2
 84 33 105 60 105 116 c 2
 105 543 l 2
 105 598 84 626 40 626 c 0xb580
 32 626 26 632 26 640 c 2
 26 646 l 2
 26 655 31 660 40 660 c 2
 440 660 l 2x7980
 449 660 453 661 457 664 c 2
 462 669 l 2
 464 671 467 671 470 671 c 0
 474 671 478 669 481 664 c 2x7380
 550 545 l 2
 552 542 553 539 553 537 c 0
 553 532 550 529 546 526 c 2
 531 517 l 2
 526 514 524 513 521 513 c 0
 517 513 514 516 511 521 c 2
 508 526 l 2
 463 600 435 618 367 618 c 2
 188 618 l 1
 188 371 l 1
 302 371 l 2
 345 371 366 391 366 430 c 2
 366 436 l 2
 366 445 370 449 379 449 c 2
 385 449 l 2
 394 449 398 445 398 436 c 2
 398 266 l 2
 398 257 394 253 385 253 c 2
 379 253 l 2
 370 253 366 257 366 266 c 2
 366 271 l 2
 366 311 346 330 302 330 c 2
 188 330 l 1
 188 126 l 2
 188 72 219 42 258 42 c 2
 333 42 l 2
 462 42 505 67 563 184 c 2
 566 190 l 2
 569 197 576 200 585 195 c 2
 599 188 l 2x7980
359.889648438 724.120117188 m 2
 353.69921875 721.020507812 348.590820312 718.879882812 345.560546875 718.549804688 c 0
 343.030273438 718.280273438 339.799804688 719.48046875 336.740234375 721.470703125 c 0
 289.66015625 752.110351562 225.16015625 784.190429688 225.16015625 833.740234375 c 0
 225.16015625 857.020507812 235.459960938 871.440429688 263.169921875 871.440429688 c 0
 273.919921875 871.440429688 282.26953125 868.450195312 286.659179688 858.780273438 c 0
 308.479492188 810.780273438 319.809570312 791.390625 370.01953125 729.190429688 c 1
 359.889648438 724.120117188 l 2
EndSplineSet
Substitution2: "'c2sc' Capitals to Small Capitals in Latin lookup 11 subtable" Egrave.sc
AlternateSubs2: "'aalt' Access All Alternates in Latin lookup 0 subtable" Egrave.sc
Position2: "'cpsp' Capital Spacing in Latin lookup 0 subtable" dx=5 dy=0 dh=10 dv=0
EndChar

StartChar: uni1EBA
Encoding: 7866 7866 65
Width: 624
GlyphClass: 2
Flags: MW
HStem: 0 33<35.5 41 40 41 41 62.5 40 481> 0 42<258 333 333 397.5> 330 41<188 302 188 302> 429 20G<379 385 385 389.5> 618 42<188 367 188 188> 626 34<40 62> 651 20G<468.5 472> 812.4 56.6
VStem: 105 83<116 126 126 330 371 543 543 570.5> 315.37 46.63 366 32<266 271 271 291 430 436>
AnchorPoint: "Anchor-6" 501 0 basechar 0
AnchorPoint: "Anchor-5" 301 946 basechar 0
AnchorPoint: "Anchor-4" 309 0 basechar 0
LayerCount: 2
Fore
SplineSet
599 188 m 2x79a0
 608 184 608 179 604 170 c 2
 521 -4 l 2
 519 -10 515 -12 511 -12 c 0
 508 -12 506 -11 503 -9 c 2
 499 -4 l 2
 495 -1 492 0 481 0 c 2
 40 0 l 2x79a0
 31 0 26 4 26 13 c 2
 26 20 l 2
 26 28 32 33 40 33 c 2
 41 33 l 2
 84 33 105 60 105 116 c 2
 105 543 l 2
 105 598 84 626 40 626 c 0xb5a0
 32 626 26 632 26 640 c 2
 26 646 l 2
 26 655 31 660 40 660 c 2
 440 660 l 2x79a0
 449 660 453 661 457 664 c 2
 462 669 l 2
 464 671 467 671 470 671 c 0
 474 671 478 669 481 664 c 2x73a0
 550 545 l 2
 552 542 553 539 553 537 c 0
 553 532 550 529 546 526 c 2
 531 517 l 2
 526 514 524 513 521 513 c 0
 517 513 514 516 511 521 c 2
 508 526 l 2
 463 600 435 618 367 618 c 2
 188 618 l 1
 188 371 l 1
 302 371 l 2
 345 371 366 391 366 430 c 2
 366 436 l 2
 366 445 370 449 379 449 c 2
 385 449 l 2
 394 449 398 445 398 436 c 2
 398 266 l 2
 398 257 394 253 385 253 c 2
 379 253 l 2
 370 253 366 257 366 266 c 2
 366 271 l 2
 366 311 346 330 302 330 c 2
 188 330 l 1
 188 126 l 2
 188 72 219 42 258 42 c 2
 333 42 l 2
 462 42 505 67 563 184 c 2
 566 190 l 2
 569 197 576 200 585 195 c 2
 599 188 l 2x79a0
325.169921875 721.860351562 m 0x79c0
 318.58984375 713.25 289.609375 733.48046875 292.958984375 739.4609375 c 0
 301.21875 754.12109375 315.358398438 768.760742188 315.358398438 788.310546875 c 0
 315.358398438 804.690429688 303.928710938 812.400390625 289.598632812 812.400390625 c 0
 272.028320312 812.400390625 260.30859375 798.740234375 256.62890625 805.240234375 c 0
 249.958984375 817 237.909179688 831.690429688 240.958984375 846.530273438 c 0
 242.689453125 854.940429688 266.01953125 868.98046875 295.009765625 868.98046875 c 0
 345.700195312 868.98046875 362 829.9609375 362 801.991210938 c 0
 362 778.55078125 348.169921875 751.30078125 325.169921875 721.860351562 c 0x79c0
EndSplineSet
Substitution2: "'c2sc' Capitals to Small Capitals in Latin lookup 11 subtable" uni1EBA.sc
AlternateSubs2: "'aalt' Access All Alternates in Latin lookup 0 subtable" uni1EBA.sc
Position2: "'cpsp' Capital Spacing in Latin lookup 0 subtable" dx=5 dy=0 dh=10 dv=0
EndChar

StartChar: uni0206
Encoding: 518 518 66
Width: 624
GlyphClass: 2
Flags: MW
HStem: 0 33<35.5 41 40 41 41 62.5 40 481> 0 42<258 333 333 397.5> 330 41<188 302 188 302> 429 20G<379 385 385 389.5> 618 42<188 367 188 188> 626 34<40 62> 651 20G<468.5 472> 832.52 40.48
VStem: 105 83<116 126 126 330 371 543 543 570.5> 180.81 54.65 366 32 370.54 54.65
AnchorPoint: "Anchor-6" 501 0 basechar 0
AnchorPoint: "Anchor-5" 301 899 basechar 0
AnchorPoint: "Anchor-4" 309 0 basechar 0
LayerCount: 2
Fore
SplineSet
599 188 m 2x79a0
 608 184 608 179 604 170 c 2
 521 -4 l 2
 519 -10 515 -12 511 -12 c 0
 508 -12 506 -11 503 -9 c 2
 499 -4 l 2
 495 -1 492 0 481 0 c 2
 40 0 l 2x79a0
 31 0 26 4 26 13 c 2
 26 20 l 2
 26 28 32 33 40 33 c 2
 41 33 l 2
 84 33 105 60 105 116 c 2
 105 543 l 2
 105 598 84 626 40 626 c 0xb5a0
 32 626 26 632 26 640 c 2
 26 646 l 2
 26 655 31 660 40 660 c 2
 440 660 l 2x79a0
 449 660 453 661 457 664 c 2
 462 669 l 2
 464 671 467 671 470 671 c 0
 474 671 478 669 481 664 c 2x73a0
 550 545 l 2
 552 542 553 539 553 537 c 0
 553 532 550 529 546 526 c 2
 531 517 l 2
 526 514 524 513 521 513 c 0
 517 513 514 516 511 521 c 2
 508 526 l 2
 463 600 435 618 367 618 c 2
 188 618 l 1
 188 371 l 1
 302 371 l 2
 345 371 366 391 366 430 c 2
 366 436 l 2
 366 445 370 449 379 449 c 2
 385 449 l 2
 394 449 398 445 398 436 c 2
 398 266 l 2
 398 257 394 253 385 253 c 2
 379 253 l 2
 370 253 366 257 366 266 c 2
 366 271 l 2
 366 311 346 330 302 330 c 2
 188 330 l 1
 188 126 l 2
 188 72 219 42 258 42 c 2
 333 42 l 2
 462 42 505 67 563 184 c 2
 566 190 l 2
 569 197 576 200 585 195 c 2
 599 188 l 2x79a0
303 873 m 1x7950
 302.900390625 873 l 1
 393.900390625 873 425.080078125 805.299804688 425.080078125 772.509765625 c 0
 425.080078125 762.509765625 420.459960938 758.719726562 410.08984375 757.51953125 c 0
 406.059570312 757.049804688 394.759765625 756.639648438 387.889648438 755.939453125 c 0
 374.809570312 754.619140625 371.049804688 757.779296875 370.479492188 772.059570312 c 0
 368.999023438 808.549804688 342.749023438 832.549804688 302.94921875 832.549804688 c 0
 263.139648438 832.549804688 236.889648438 808.549804688 235.409179688 772.059570312 c 0
 234.838867188 757.779296875 231.079101562 754.619140625 218.008789062 755.939453125 c 0
 211.12890625 756.639648438 199.829101562 757.049804688 195.798828125 757.51953125 c 0
 185.44921875 758.719726562 180.809570312 762.509765625 180.809570312 772.509765625 c 0
 180.809570312 805.299804688 212 873 303 873 c 1x7950
EndSplineSet
Substitution2: "'c2sc' Capitals to Small Capitals in Latin lookup 11 subtable" uni0206.sc
AlternateSubs2: "'aalt' Access All Alternates in Latin lookup 0 subtable" uni0206.sc
Position2: "'cpsp' Capital Spacing in Latin lookup 0 subtable" dx=5 dy=0 dh=10 dv=0
EndChar

StartChar: Emacron
Encoding: 274 274 67
Width: 624
GlyphClass: 2
Flags: MW
HStem: 0 33<35.5 41 40 41 41 62.5 40 481> 0 42<258 333 333 397.5> 330 41<188 302 188 302> 429 20G<379 385 385 389.5> 618 42<188 367 188 188> 626 34<40 62> 651 20G<468.5 472> 721 49<188.5 409 193 409>
VStem: 105 83<116 126 126 330 371 543 543 570.5> 366 32<266 271 271 291 430 436>
AnchorPoint: "Anchor-6" 501 0 basechar 0
AnchorPoint: "Anchor-5" 301 739 basechar 0
AnchorPoint: "Anchor-4" 309 0 basechar 0
LayerCount: 2
Fore
SplineSet
599 188 m 2x79c0
 608 184 608 179 604 170 c 2
 521 -4 l 2
 519 -10 515 -12 511 -12 c 0
 508 -12 506 -11 503 -9 c 2
 499 -4 l 2
 495 -1 492 0 481 0 c 2
 40 0 l 2x79c0
 31 0 26 4 26 13 c 2
 26 20 l 2
 26 28 32 33 40 33 c 2
 41 33 l 2
 84 33 105 60 105 116 c 2
 105 543 l 2
 105 598 84 626 40 626 c 0xb5c0
 32 626 26 632 26 640 c 2
 26 646 l 2
 26 655 31 660 40 660 c 2
 440 660 l 2x79c0
 449 660 453 661 457 664 c 2
 462 669 l 2
 464 671 467 671 470 671 c 0
 474 671 478 669 481 664 c 2x73c0
 550 545 l 2
 552 542 553 539 553 537 c 0
 553 532 550 529 546 526 c 2
 531 517 l 2
 526 514 524 513 521 513 c 0
 517 513 514 516 511 521 c 2
 508 526 l 2
 463 600 435 618 367 618 c 2
 188 618 l 1
 188 371 l 1
 302 371 l 2
 345 371 366 391 366 430 c 2
 366 436 l 2
 366 445 370 449 379 449 c 2
 385 449 l 2
 394 449 398 445 398 436 c 2
 398 266 l 2
 398 257 394 253 385 253 c 2
 379 253 l 2
 370 253 366 257 366 266 c 2
 366 271 l 2
 366 311 346 330 302 330 c 2
 188 330 l 1
 188 126 l 2
 188 72 219 42 258 42 c 2
 333 42 l 2
 462 42 505 67 563 184 c 2
 566 190 l 2
 569 197 576 200 585 195 c 2
 599 188 l 2x79c0
422 734 m 2
 422 726 418 721 409 721 c 2
 193 721 l 2
 184 721 180 726 180 734 c 2
 180 757 l 2
 180 766 184 770 193 770 c 2
 409 770 l 2
 418 770 422 766 422 757 c 2
 422 734 l 2
EndSplineSet
Substitution2: "'c2sc' Capitals to Small Capitals in Latin lookup 11 subtable" Emacron.sc
AlternateSubs2: "'aalt' Access All Alternates in Latin lookup 0 subtable" Emacron.sc
Position2: "'cpsp' Capital Spacing in Latin lookup 0 subtable" dx=5 dy=0 dh=10 dv=0
EndChar

StartChar: uni1E16
Encoding: 7702 7702 68
Width: 624
GlyphClass: 2
Flags: MW
HStem: 0 33<35.5 41 40 41 41 62.5 40 481> 0 42<258 333 333 397.5> 330 41<188 302 188 302> 429 20G<379 385 385 389.5> 618 42<188 367 188 188> 626 34<40 62> 651 20G<468.5 472> 721 49<188.5 409 193 409>
VStem: 105 83<116 126 126 330 371 543 543 570.5> 366 32<266 271 271 291 430 436>
AnchorPoint: "Anchor-6" 501 0 basechar 0
AnchorPoint: "Anchor-5" 333 978 basechar 0
AnchorPoint: "Anchor-4" 309 0 basechar 0
LayerCount: 2
Fore
SplineSet
599 188 m 2x79c0
 608 184 608 179 604 170 c 2
 521 -4 l 2
 519 -10 515 -12 511 -12 c 0
 508 -12 506 -11 503 -9 c 2
 499 -4 l 2
 495 -1 492 0 481 0 c 2
 40 0 l 2x79c0
 31 0 26 4 26 13 c 2
 26 20 l 2
 26 28 32 33 40 33 c 2
 41 33 l 2
 84 33 105 60 105 116 c 2
 105 543 l 2
 105 598 84 626 40 626 c 0xb5c0
 32 626 26 632 26 640 c 2
 26 646 l 2
 26 655 31 660 40 660 c 2
 440 660 l 2x79c0
 449 660 453 661 457 664 c 2
 462 669 l 2
 464 671 467 671 470 671 c 0
 474 671 478 669 481 664 c 2x73c0
 550 545 l 2
 552 542 553 539 553 537 c 0
 553 532 550 529 546 526 c 2
 531 517 l 2
 526 514 524 513 521 513 c 0
 517 513 514 516 511 521 c 2
 508 526 l 2
 463 600 435 618 367 618 c 2
 188 618 l 1
 188 371 l 1
 302 371 l 2
 345 371 366 391 366 430 c 2
 366 436 l 2
 366 445 370 449 379 449 c 2
 385 449 l 2
 394 449 398 445 398 436 c 2
 398 266 l 2
 398 257 394 253 385 253 c 2
 379 253 l 2
 370 253 366 257 366 266 c 2
 366 271 l 2
 366 311 346 330 302 330 c 2
 188 330 l 1
 188 126 l 2
 188 72 219 42 258 42 c 2
 333 42 l 2
 462 42 505 67 563 184 c 2
 566 190 l 2
 569 197 576 200 585 195 c 2
 599 188 l 2x79c0
422 734 m 2
 422 726 418 721 409 721 c 2
 193 721 l 2
 184 721 180 726 180 734 c 2
 180 757 l 2
 180 766 184 770 193 770 c 2
 409 770 l 2
 418 770 422 766 422 757 c 2
 422 734 l 2
238.98046875 808.0703125 m 1
 289.190429688 870.280273438 300.522460938 889.690429688 322.342773438 937.690429688 c 0
 326.732421875 947.360351562 335.08203125 950.340820312 345.83203125 950.340820312 c 0
 373.541992188 950.340820312 383.83203125 935.930664062 383.83203125 912.650390625 c 0
 383.83203125 863.080078125 319.33203125 831.009765625 272.251953125 800.370117188 c 0
 269.181640625 798.370117188 265.951171875 797.16015625 263.420898438 797.440429688 c 0
 260.390625 797.760742188 255.30078125 799.920898438 249.110351562 803.020507812 c 2
 238.98046875 808.0703125 l 1
EndSplineSet
Substitution2: "'c2sc' Capitals to Small Capitals in Latin lookup 11 subtable" uni1E16.sc
AlternateSubs2: "'aalt' Access All Alternates in Latin lookup 0 subtable" uni1E16.sc
Position2: "'cpsp' Capital Spacing in Latin lookup 0 subtable" dx=5 dy=0 dh=10 dv=0
EndChar

StartChar: uni1E14
Encoding: 7700 7700 69
Width: 624
GlyphClass: 2
Flags: MW
HStem: 0 33<35.5 41 40 41 41 62.5 40 481> 0 42<258 333 333 397.5> 330 41<188 302 188 302> 429 20G<379 385 385 389.5> 618 42<188 367 188 188> 626 34<40 62> 651 20G<468.5 472> 721 49<188.5 409 193 409>
VStem: 105 83<116 126 126 330 371 543 543 570.5> 366 32<266 271 271 291 430 436>
AnchorPoint: "Anchor-6" 501 0 basechar 0
AnchorPoint: "Anchor-5" 276 978 basechar 0
AnchorPoint: "Anchor-4" 309 0 basechar 0
LayerCount: 2
Fore
SplineSet
599 188 m 2x79c0
 608 184 608 179 604 170 c 2
 521 -4 l 2
 519 -10 515 -12 511 -12 c 0
 508 -12 506 -11 503 -9 c 2
 499 -4 l 2
 495 -1 492 0 481 0 c 2
 40 0 l 2x79c0
 31 0 26 4 26 13 c 2
 26 20 l 2
 26 28 32 33 40 33 c 2
 41 33 l 2
 84 33 105 60 105 116 c 2
 105 543 l 2
 105 598 84 626 40 626 c 0xb5c0
 32 626 26 632 26 640 c 2
 26 646 l 2
 26 655 31 660 40 660 c 2
 440 660 l 2x79c0
 449 660 453 661 457 664 c 2
 462 669 l 2
 464 671 467 671 470 671 c 0
 474 671 478 669 481 664 c 2x73c0
 550 545 l 2
 552 542 553 539 553 537 c 0
 553 532 550 529 546 526 c 2
 531 517 l 2
 526 514 524 513 521 513 c 0
 517 513 514 516 511 521 c 2
 508 526 l 2
 463 600 435 618 367 618 c 2
 188 618 l 1
 188 371 l 1
 302 371 l 2
 345 371 366 391 366 430 c 2
 366 436 l 2
 366 445 370 449 379 449 c 2
 385 449 l 2
 394 449 398 445 398 436 c 2
 398 266 l 2
 398 257 394 253 385 253 c 2
 379 253 l 2
 370 253 366 257 366 266 c 2
 366 271 l 2
 366 311 346 330 302 330 c 2
 188 330 l 1
 188 126 l 2
 188 72 219 42 258 42 c 2
 333 42 l 2
 462 42 505 67 563 184 c 2
 566 190 l 2
 569 197 576 200 585 195 c 2
 599 188 l 2x79c0
422 734 m 2
 422 726 418 721 409 721 c 2
 193 721 l 2
 184 721 180 726 180 734 c 2
 180 757 l 2
 180 766 184 770 193 770 c 2
 409 770 l 2
 418 770 422 766 422 757 c 2
 422 734 l 2
359.889648438 803.009765625 m 2
 353.69921875 799.91015625 348.590820312 797.728515625 345.560546875 797.408203125 c 0
 343.030273438 797.127929688 339.799804688 798.337890625 336.740234375 800.337890625 c 0
 289.66015625 830.977539062 225.16015625 863.047851562 225.16015625 912.618164062 c 0
 225.16015625 935.8984375 235.459960938 950.30859375 263.169921875 950.30859375 c 0
 273.919921875 950.30859375 282.26953125 947.329101562 286.659179688 937.659179688 c 0
 308.479492188 889.659179688 319.809570312 870.26953125 370.01953125 808.059570312 c 1
 359.889648438 803.009765625 l 2
EndSplineSet
Substitution2: "'c2sc' Capitals to Small Capitals in Latin lookup 11 subtable" uni1E14.sc
AlternateSubs2: "'aalt' Access All Alternates in Latin lookup 0 subtable" uni1E14.sc
Position2: "'cpsp' Capital Spacing in Latin lookup 0 subtable" dx=5 dy=0 dh=10 dv=0
EndChar

StartChar: Eogonek
Encoding: 280 280 70
Width: 624
GlyphClass: 2
Flags: MW
HStem: -12 21G
AnchorPoint: "Anchor-6" 501 0 basechar 0
AnchorPoint: "Anchor-5" 301 660 basechar 0
AnchorPoint: "Anchor-4" 309 0 basechar 0
LayerCount: 2
Fore
SplineSet
599 188 m 2
 608 184 608.000976562 178.999023438 604.000976562 169.999023438 c 2
 521.000976562 -4.0009765625 l 2
 519.000976562 -10.0009765625 515.000976562 -12.0009765625 511.000976562 -12.0009765625 c 0
 508.000976562 -12.0009765625 506.000976562 -11.0009765625 503.000976562 -9.0009765625 c 2
 499.000976562 -4.0009765625 l 2
 496.880859375 -2.4111328125 495.041015625 -1.380859375 492.140625 -0.7705078125 c 0
 462.950195312 -4.5205078125 378.080078125 -24.060546875 378.080078125 -101.700195312 c 0
 378.080078125 -157.940429688 412.379882812 -180.459960938 474.099609375 -180.459960938 c 0
 518 -180.459960938 554 -152 563 -152 c 0
 567 -152 571 -156 571 -163 c 2
 571 -178 l 2
 571 -184 569 -189 564 -192 c 0
 531 -212 498 -223 468 -223 c 0
 372 -223 329 -166 329 -112 c 0
 329 -56 366.530273438 -20.8203125 406.030273438 0 c 1
 40 0 l 2
 31 0 26 4 26 13 c 2
 26 20 l 2
 26 28 32 33 40 33 c 2
 41 33 l 2
 84 33 105 60 105 116 c 2
 105 543 l 2
 105 598 84 626 40 626 c 0
 32 626 26 632 26 640 c 2
 26 646 l 2
 26 655 31 660 40 660 c 2
 440 660 l 2
 449 660 453 661 457 664 c 2
 462 669 l 2
 464 671 467 671 470 671 c 0
 474 671 478 669 481 664 c 2
 550 545 l 2
 552 542 553 539 553 537 c 0
 553 532 550 529 546 526 c 2
 531 517 l 2
 526 514 524 513 521 513 c 0
 517 513 514 516 511 521 c 2
 508 526 l 2
 463 600 435 618 367 618 c 2
 188 618 l 1
 188 371 l 1
 302 371 l 2
 345 371 366 391 366 430 c 2
 366 436 l 2
 366 445 370 449 379 449 c 2
 385 449 l 2
 394 449 398 445 398 436 c 2
 398 266 l 2
 398 257 394 253 385 253 c 2
 379 253 l 2
 370 253 366 257 366 266 c 2
 366 271 l 2
 366 311 346 330 302 330 c 2
 188 330 l 1
 188 126 l 2
 188 72 219 42 258 42 c 2
 333 42 l 2
 462 42 505 67 563 184 c 2
 566 190 l 2
 569 197 576 200 585 195 c 2
 599 188 l 2
EndSplineSet
Substitution2: "'c2sc' Capitals to Small Capitals in Latin lookup 11 subtable" Eogonek.sc
AlternateSubs2: "'aalt' Access All Alternates in Latin lookup 0 subtable" Eogonek.sc
Position2: "'cpsp' Capital Spacing in Latin lookup 0 subtable" dx=5 dy=0 dh=10 dv=0
EndChar

StartChar: uni1EBC
Encoding: 7868 7868 71
Width: 624
GlyphClass: 2
Flags: MW
HStem: 0 33<35.5 41 40 41 41 62.5 40 481> 0 42<258 333 333 397.5> 330 41<188 302 188 302> 429 20G<379 385 385 389.5> 618 42<188 367 188 188> 626 34<40 62> 651 20G<468.5 472> 729 42 813 41
VStem: 105 83<116 126 126 330 371 543 543 570.5> 164 46 366 32<266 271 271 291 430 436> 392 46
AnchorPoint: "Anchor-6" 501 0 basechar 0
AnchorPoint: "Anchor-5" 301 845 basechar 0
AnchorPoint: "Anchor-4" 309 0 basechar 0
LayerCount: 2
Fore
SplineSet
599 188 m 2x79d0
 608 184 608 179 604 170 c 2
 521 -4 l 2
 519 -10 515 -12 511 -12 c 0
 508 -12 506 -11 503 -9 c 2
 499 -4 l 2
 495 -1 492 0 481 0 c 2
 40 0 l 2x79d0
 31 0 26 4 26 13 c 2
 26 20 l 2
 26 28 32 33 40 33 c 2
 41 33 l 2
 84 33 105 60 105 116 c 2
 105 543 l 2
 105 598 84 626 40 626 c 0xb5d0
 32 626 26 632 26 640 c 2
 26 646 l 2
 26 655 31 660 40 660 c 2
 440 660 l 2x79d0
 449 660 453 661 457 664 c 2
 462 669 l 2
 464 671 467 671 470 671 c 0
 474 671 478 669 481 664 c 2x73d0
 550 545 l 2
 552 542 553 539 553 537 c 0
 553 532 550 529 546 526 c 2
 531 517 l 2
 526 514 524 513 521 513 c 0
 517 513 514 516 511 521 c 2
 508 526 l 2
 463 600 435 618 367 618 c 2
 188 618 l 1
 188 371 l 1
 302 371 l 2
 345 371 366 391 366 430 c 2
 366 436 l 2
 366 445 370 449 379 449 c 2
 385 449 l 2
 394 449 398 445 398 436 c 2
 398 266 l 2
 398 257 394 253 385 253 c 2
 379 253 l 2
 370 253 366 257 366 266 c 2
 366 271 l 2
 366 311 346 330 302 330 c 2
 188 330 l 1
 188 126 l 2
 188 72 219 42 258 42 c 2
 333 42 l 2
 462 42 505 67 563 184 c 2
 566 190 l 2
 569 197 576 200 585 195 c 2
 599 188 l 2x79d0
315.549804688 803.049804688 m 0
 330.950195312 779.229492188 343.59765625 770.999023438 358.998046875 770.999023438 c 0
 378.998046875 770.999023438 391.998046875 786.71875 391.998046875 807.98828125 c 0
 391.998046875 818.73828125 389.858398438 830.388671875 383.80859375 842.23828125 c 1
 392.108398438 849.038085938 402.388671875 854.978515625 410.98828125 854.978515625 c 0
 424.23828125 854.978515625 437.978515625 831.418945312 437.978515625 803.989257812 c 0
 437.978515625 757.149414062 404.62890625 728.999023438 368.989257812 728.999023438 c 0
 317.779296875 728.999023438 300.338867188 756.138671875 286.768554688 779.388671875 c 0
 272.798828125 804.548828125 259.409179688 812.978515625 244.01953125 812.978515625 c 0
 224.01953125 812.978515625 210.01953125 795.37890625 210.01953125 774.989257812 c 0
 210.01953125 763.838867188 212.869140625 752.19921875 219.059570312 740.649414062 c 1
 210.709960938 733.889648438 200.26953125 728.009765625 191.01953125 728.009765625 c 0
 178.709960938 728.009765625 164.030273438 751.209960938 164.030273438 778 c 0
 164.030273438 825.709960938 198.260742188 853.990234375 234.020507812 853.990234375 c 0x79a8
 284.360351562 853.990234375 302.5703125 825.009765625 315.549804688 803.049804688 c 0
EndSplineSet
Substitution2: "'c2sc' Capitals to Small Capitals in Latin lookup 11 subtable" uni1EBC.sc
AlternateSubs2: "'aalt' Access All Alternates in Latin lookup 0 subtable" uni1EBC.sc
Position2: "'cpsp' Capital Spacing in Latin lookup 0 subtable" dx=5 dy=0 dh=10 dv=0
EndChar

StartChar: uni018F
Encoding: 399 399 72
Width: 686
GlyphClass: 1
Flags: MW
HStem: -11 30 426.93 20G 641 30
VStem: 65.94 80 538.94 101
LayerCount: 2
Fore
SplineSet
314.9296875 -11 m 0
 129.9296875 -11 65.9111328125 141.029296875 65.9111328125 190.029296875 c 0
 65.9111328125 205.319335938 67.7607421875 212.87890625 78.5107421875 218.409179688 c 2
 522.090820312 446.939453125 l 1
 491.400390625 566.529296875 419.420898438 640.999023438 312.911132812 640.999023438 c 0
 169.911132812 640.999023438 101.090820312 548.94921875 71.1708984375 453.979492188 c 0
 69.2509765625 447.879882812 65.970703125 447.149414062 62.9404296875 448.01953125 c 2
 48.9404296875 452.01953125 l 2
 44.98046875 453.139648438 44 456.209960938 45.66015625 461.259765625 c 0
 80.2900390625 565.889648438 162.9296875 671 322.9296875 671 c 0
 523.9296875 671 639.9296875 526 639.9296875 337 c 0
 639.9296875 190 558.9296875 -11 314.9296875 -11 c 0
314.911132812 19.029296875 m 0
 468.911132812 19.029296875 538.890625 186.0390625 538.890625 301.0390625 c 0
 538.890625 341.659179688 535.630859375 379.689453125 529.220703125 414.51953125 c 1
 147.100585938 212.19921875 l 1
 146.541015625 205.619140625 145.920898438 197.319335938 145.920898438 190.029296875 c 0
 145.920898438 112.029296875 196.081054688 19.029296875 314.911132812 19.029296875 c 0
EndSplineSet
Substitution2: "'c2sc' Capitals to Small Capitals in Latin lookup 11 subtable" uni018F.sc
AlternateSubs2: "'aalt' Access All Alternates in Latin lookup 0 subtable" uni018F.sc
Position2: "'cpsp' Capital Spacing in Latin lookup 0 subtable" dx=5 dy=0 dh=10 dv=0
EndChar

StartChar: F
Encoding: 70 70 73
Width: 564
GlyphClass: 1
Flags: MW
HStem: 0 33<35.5 41 40 41 41 62.5 247 254> 322 40<188 295 188 295> 420 20G<392 398 398 402.5> 618 42<188 323 188 188> 626 34<40 62> 651 20G<461.5 465>
VStem: 105 83<116 322 362 543 543 570.5> 379 32<257 263 263 282.5 421 427>
LayerCount: 2
Fore
SplineSet
188 116 m 2xf3
 188 64 208 33 247 33 c 2
 254 33 l 2
 262 33 267 28 267 20 c 2
 267 13 l 2
 267 5 262 0 254 0 c 2
 40 0 l 2
 31 0 26 4 26 13 c 2
 26 20 l 2
 26 28 32 33 40 33 c 2
 41 33 l 2
 84 33 105 60 105 116 c 2
 105 543 l 2
 105 598 84 626 40 626 c 0xeb
 32 626 26 632 26 640 c 2
 26 646 l 2
 26 655 31 660 40 660 c 2
 433 660 l 2xf3
 442 660 446 661 450 664 c 2
 455 669 l 2
 457 671 460 671 463 671 c 0
 467 671 471 669 474 664 c 2xe7
 543 545 l 2
 545 542 546 539 546 537 c 0
 546 532 543 529 539 526 c 2
 524 517 l 2
 519 514 517 513 514 513 c 0
 510 513 506 516 504 521 c 2
 501 526 l 2
 456 600 410 618 323 618 c 2
 188 618 l 1
 188 362 l 1
 295 362 l 2
 360 362 379 382 379 421 c 2
 379 427 l 2
 379 436 383 440 392 440 c 2
 398 440 l 2
 407 440 411 436 411 427 c 2
 411 257 l 2
 411 248 407 244 398 244 c 2
 392 244 l 2
 383 244 379 248 379 257 c 2
 379 263 l 2
 379 302 361 322 295 322 c 2
 188 322 l 1
 188 116 l 2xf3
EndSplineSet
Substitution2: "'ss04' Style Set 4 in Latin lookup 33 subtable" u1F155
Substitution2: "'ss03' Style Set 3 in Latin lookup 31 subtable" uni24BB
Substitution2: "'c2sc' Capitals to Small Capitals in Latin lookup 11 subtable" F.sc
AlternateSubs2: "'aalt' Access All Alternates in Latin lookup 0 subtable" F.sc uni24BB u1F155
Position2: "'cpsp' Capital Spacing in Latin lookup 0 subtable" dx=5 dy=0 dh=10 dv=0
EndChar

StartChar: G
Encoding: 71 71 74
Width: 679
GlyphClass: 2
Flags: MW
HStem: -11 30<285 390.5 285 416> 295 32<427 649 431 438 633.5 642 642 649> 641 30<279 412.5>
VStem: 31 101<258.5 397> 525 80<476.5 495.5 472 524.5> 532 87<150 193 193 243>
AnchorPoint: "Anchor-5" 356 660 basechar 0
AnchorPoint: "Anchor-4" 348 0 basechar 0
LayerCount: 2
Fore
SplineSet
132 360 m 0xf4
 132 157 213 19 357 19 c 0
 424 19 532 54 532 126 c 2
 532 193 l 2
 532 293 483 295 438 295 c 2
 431 295 l 2
 423 295 418 299 418 308 c 2
 418 314 l 2
 418 323 423 327 431 327 c 2
 649 327 l 2
 657 327 662 322 662 314 c 2
 662 308 l 2
 662 299 657 295 649 295 c 2
 642 295 l 2
 625 295 619 286 619 266 c 2
 619 150 l 1xf4
 578 56 483 -11 349 -11 c 0
 152 -11 31 135 31 323 c 0
 31 471 103 671 356 671 c 0
 568 671 605 514 605 477 c 0
 605 467 600 462 590 460 c 2
 549 450 l 2
 544 449 539 447 534 447 c 0
 528 447 523 447 523 455 c 0
 523 461 525 469 525 484 c 0xf8
 525 565 469 641 356 641 c 0
 202 641 132 474 132 360 c 0xf4
EndSplineSet
Substitution2: "'ss04' Style Set 4 in Latin lookup 33 subtable" u1F156
Substitution2: "'ss03' Style Set 3 in Latin lookup 31 subtable" uni24BC
Substitution2: "'c2sc' Capitals to Small Capitals in Latin lookup 11 subtable" G.sc
AlternateSubs2: "'aalt' Access All Alternates in Latin lookup 0 subtable" G.sc uni24BC u1F156
Position2: "'cpsp' Capital Spacing in Latin lookup 0 subtable" dx=5 dy=0 dh=10 dv=0
EndChar

StartChar: Gbreve
Encoding: 286 286 75
Width: 679
GlyphClass: 2
Flags: MW
HStem: -11 30<285 390.5 285 416> 295 32<427 649 431 438 633.5 642 642 649> 641 30<279 412.5> 711 40.48
VStem: 31 101<258.5 397> 233.81 54.65 423.54 54.65 525 80 532 87
AnchorPoint: "Anchor-5" 356 814 basechar 0
AnchorPoint: "Anchor-4" 348 0 basechar 0
LayerCount: 2
Fore
SplineSet
132 360 m 0xf880
 132 157 213 19 357 19 c 0
 424 19 532 54 532 126 c 2
 532 193 l 2
 532 293 483 295 438 295 c 2
 431 295 l 2
 423 295 418 299 418 308 c 2
 418 314 l 2
 418 323 423 327 431 327 c 2
 649 327 l 2
 657 327 662 322 662 314 c 2
 662 308 l 2
 662 299 657 295 649 295 c 2
 642 295 l 2
 625 295 619 286 619 266 c 2
 619 150 l 1xf880
 578 56 483 -11 349 -11 c 0
 152 -11 31 135 31 323 c 0
 31 471 103 671 356 671 c 0
 568 671 605 514 605 477 c 0
 605 467 600 462 590 460 c 2
 549 450 l 2
 544 449 539 447 534 447 c 0
 528 447 523 447 523 455 c 0
 523 461 525 469 525 484 c 0xf9
 525 565 469 641 356 641 c 0
 202 641 132 474 132 360 c 0xf880
356 711 m 1xfe80
 356.100585938 711.000976562 l 1
 265.100585938 711.000976562 233.91015625 778.69140625 233.91015625 811.491210938 c 0
 233.91015625 821.491210938 238.549804688 825.271484375 248.899414062 826.481445312 c 0
 252.9296875 826.94140625 264.229492188 827.361328125 271.109375 828.051757812 c 0
 284.1796875 829.372070312 287.939453125 826.211914062 288.509765625 811.931640625 c 0
 289.990234375 775.451171875 316.240234375 751.44140625 356.049804688 751.44140625 c 0
 395.849609375 751.44140625 422.099609375 775.451171875 423.579101562 811.930664062 c 0
 424.149414062 826.2109375 427.909179688 829.37109375 440.989257812 828.05078125 c 0
 447.859375 827.360351562 459.159179688 826.940429688 463.189453125 826.48046875 c 0
 473.559570312 825.270507812 478.1796875 821.490234375 478.1796875 811.490234375 c 0
 478.1796875 778.690429688 447 711 356 711 c 1xfe80
EndSplineSet
Substitution2: "'c2sc' Capitals to Small Capitals in Latin lookup 11 subtable" Gbreve.sc
AlternateSubs2: "'aalt' Access All Alternates in Latin lookup 0 subtable" Gbreve.sc
Position2: "'cpsp' Capital Spacing in Latin lookup 0 subtable" dx=5 dy=0 dh=10 dv=0
EndChar

StartChar: Gcaron
Encoding: 486 486 76
Width: 679
GlyphClass: 2
Flags: MW
HStem: -11 30<285 390.5 285 416> 295 32<427 649 431 438 633.5 642 642 649> 641 30<279 412.5>
VStem: 31 101<258.5 397> 525 80<476.5 495.5 472 524.5> 532 87<150 193 193 243>
AnchorPoint: "Anchor-5" 356 845 basechar 0
AnchorPoint: "Anchor-4" 348 0 basechar 0
LayerCount: 2
Fore
SplineSet
132 360 m 0xf4
 132 157 213 19 357 19 c 0
 424 19 532 54 532 126 c 2
 532 193 l 2
 532 293 483 295 438 295 c 2
 431 295 l 2
 423 295 418 299 418 308 c 2
 418 314 l 2
 418 323 423 327 431 327 c 2
 649 327 l 2
 657 327 662 322 662 314 c 2
 662 308 l 2
 662 299 657 295 649 295 c 2
 642 295 l 2
 625 295 619 286 619 266 c 2
 619 150 l 1xf4
 578 56 483 -11 349 -11 c 0
 152 -11 31 135 31 323 c 0
 31 471 103 671 356 671 c 0
 568 671 605 514 605 477 c 0
 605 467 600 462 590 460 c 2
 549 450 l 2
 544 449 539 447 534 447 c 0
 528 447 523 447 523 455 c 0
 523 461 525 469 525 484 c 0xf8
 525 565 469 641 356 641 c 0
 202 641 132 474 132 360 c 0xf4
356 785.0703125 m 1
 374.059570312 819.100585938 404.641601562 857.3203125 444.241210938 857.3203125 c 0
 465.090820312 857.3203125 474.80078125 837.169921875 474.80078125 814.25 c 0
 474.80078125 803.83984375 474.110351562 794.799804688 466.470703125 791.33984375 c 0
 426.180664062 776.059570312 405.331054688 765.639648438 356.010742188 726.049804688 c 1
 306.680664062 765.639648438 285.831054688 776.059570312 245.541015625 791.33984375 c 0
 237.901367188 794.799804688 237.2109375 803.83984375 237.2109375 814.25 c 0
 237.2109375 837.169921875 246.920898438 857.3203125 267.770507812 857.3203125 c 0
 307.370117188 857.3203125 337.940429688 819.100585938 356 785.0703125 c 1
EndSplineSet
Substitution2: "'c2sc' Capitals to Small Capitals in Latin lookup 11 subtable" Gcaron.sc
AlternateSubs2: "'aalt' Access All Alternates in Latin lookup 0 subtable" Gcaron.sc
Position2: "'cpsp' Capital Spacing in Latin lookup 0 subtable" dx=5 dy=0 dh=10 dv=0
EndChar

StartChar: Gcircumflex
Encoding: 284 284 77
Width: 679
GlyphClass: 2
Flags: MW
HStem: -11 30<285 390.5 285 416> 295 32<427 649 431 438 633.5 642 642 649> 641 30<279 412.5>
VStem: 31 101<258.5 397> 525 80<476.5 495.5 472 524.5> 532 87<150 193 193 243>
AnchorPoint: "Anchor-7" 356 742 basechar 0
AnchorPoint: "Anchor-5" 356 799 basechar 0
AnchorPoint: "Anchor-4" 348 0 basechar 0
LayerCount: 2
Fore
SplineSet
132 360 m 0xf4
 132 157 213 19 357 19 c 0
 424 19 532 54 532 126 c 2
 532 193 l 2
 532 293 483 295 438 295 c 2
 431 295 l 2
 423 295 418 299 418 308 c 2
 418 314 l 2
 418 323 423 327 431 327 c 2
 649 327 l 2
 657 327 662 322 662 314 c 2
 662 308 l 2
 662 299 657 295 649 295 c 2
 642 295 l 2
 625 295 619 286 619 266 c 2
 619 150 l 1xf4
 578 56 483 -11 349 -11 c 0
 152 -11 31 135 31 323 c 0
 31 471 103 671 356 671 c 0
 568 671 605 514 605 477 c 0
 605 467 600 462 590 460 c 2
 549 450 l 2
 544 449 539 447 534 447 c 0
 528 447 523 447 523 455 c 0
 523 461 525 469 525 484 c 0xf8
 525 565 469 641 356 641 c 0
 202 641 132 474 132 360 c 0xf4
356 789.91015625 m 1
 337.940429688 755.879882812 307.358398438 717.66015625 267.758789062 717.66015625 c 0
 246.909179688 717.66015625 237.19921875 737.810546875 237.19921875 760.73046875 c 0
 237.19921875 771.140625 237.889648438 780.180664062 245.529296875 783.640625 c 0
 285.819335938 798.920898438 306.668945312 809.340820312 355.999023438 848.930664062 c 1
 405.319335938 809.340820312 426.168945312 798.920898438 466.458984375 783.640625 c 0
 474.098632812 780.180664062 474.7890625 771.140625 474.7890625 760.73046875 c 0
 474.7890625 737.810546875 465.079101562 717.66015625 444.229492188 717.66015625 c 0
 404.629882812 717.66015625 374.059570312 755.879882812 356 789.91015625 c 1
EndSplineSet
Substitution2: "'c2sc' Capitals to Small Capitals in Latin lookup 11 subtable" Gcircumflex.sc
AlternateSubs2: "'aalt' Access All Alternates in Latin lookup 0 subtable" Gcircumflex.sc
Position2: "'cpsp' Capital Spacing in Latin lookup 0 subtable" dx=5 dy=0 dh=10 dv=0
EndChar

StartChar: uni0122
Encoding: 290 290 78
Width: 679
GlyphClass: 2
Flags: MW
HStem: -11 30<285 390.5 285 416> 295 32<427 649 431 438 633.5 642 642 649> 641 30<279 412.5>
VStem: 31 101<258.5 397> 330.85 67.38 525 80 532 87
AnchorPoint: "Anchor-5" 356 660 basechar 0
AnchorPoint: "Anchor-4" 348 0 basechar 0
LayerCount: 2
Fore
SplineSet
132 360 m 0xf2
 132 157 213 19 357 19 c 0
 424 19 532 54 532 126 c 2
 532 193 l 2
 532 293 483 295 438 295 c 2
 431 295 l 2
 423 295 418 299 418 308 c 2
 418 314 l 2
 418 323 423 327 431 327 c 2
 649 327 l 2
 657 327 662 322 662 314 c 2
 662 308 l 2
 662 299 657 295 649 295 c 2
 642 295 l 2
 625 295 619 286 619 266 c 2
 619 150 l 1xf2
 578 56 483 -11 349 -11 c 0
 152 -11 31 135 31 323 c 0
 31 471 103 671 356 671 c 0
 568 671 605 514 605 477 c 0
 605 467 600 462 590 460 c 2
 549 450 l 2
 544 449 539 447 534 447 c 0
 528 447 523 447 523 455 c 0
 523 461 525 469 525 484 c 0xf4
 525 565 469 641 356 641 c 0
 202 641 132 474 132 360 c 0xf2
387.540039062 -78.3896484375 m 2xfa
 394.110351562 -84.9599609375 398.221679688 -93.958984375 398.221679688 -107.098632812 c 0
 398.221679688 -112.028320312 397.401367188 -116.948242188 396.581054688 -122.698242188 c 0
 388.37109375 -163.768554688 322.640625 -220.458984375 310.3203125 -220.458984375 c 0
 307.040039062 -220.458984375 304.580078125 -218.819335938 289.799804688 -212.239257812 c 1
 315.259765625 -192.529296875 330.859375 -167.069335938 330.859375 -150.649414062 c 0
 330.859375 -146.549804688 329.219726562 -142.450195312 325.939453125 -139.169921875 c 2
 305.409179688 -118.629882812 l 2
 299.659179688 -112.0703125 296.37890625 -105.490234375 296.37890625 -98.919921875 c 0
 296.37890625 -92.349609375 299.659179688 -84.9599609375 305.409179688 -78.3896484375 c 2
 325.939453125 -57.859375 l 2
 333.329101562 -51.2890625 339.899414062 -48.0087890625 346.479492188 -48.0087890625 c 0
 353.049804688 -48.0087890625 359.620117188 -51.2890625 367.009765625 -57.859375 c 2
 387.540039062 -78.3896484375 l 2xfa
EndSplineSet
Substitution2: "'c2sc' Capitals to Small Capitals in Latin lookup 11 subtable" uni0122.sc
AlternateSubs2: "'aalt' Access All Alternates in Latin lookup 0 subtable" uni0122.sc
Position2: "'cpsp' Capital Spacing in Latin lookup 0 subtable" dx=5 dy=0 dh=10 dv=0
EndChar

StartChar: Gdotaccent
Encoding: 288 288 79
Width: 679
GlyphClass: 2
Flags: MW
HStem: -11 30<285 390.5 285 416> 295 32<427 649 431 438 633.5 642 642 649> 641 30<279 412.5> 727.26 115.48
VStem: 31 101<258.5 397> 298.32 116.36 525 80 532 87
AnchorPoint: "Anchor-5" 356 845 basechar 0
AnchorPoint: "Anchor-4" 348 0 basechar 0
LayerCount: 2
Fore
SplineSet
132 360 m 0xe9
 132 157 213 19 357 19 c 0
 424 19 532 54 532 126 c 2
 532 193 l 2
 532 293 483 295 438 295 c 2
 431 295 l 2
 423 295 418 299 418 308 c 2
 418 314 l 2
 418 323 423 327 431 327 c 2
 649 327 l 2
 657 327 662 322 662 314 c 2
 662 308 l 2
 662 299 657 295 649 295 c 2
 642 295 l 2
 625 295 619 286 619 266 c 2
 619 150 l 1xe9
 578 56 483 -11 349 -11 c 0
 152 -11 31 135 31 323 c 0
 31 471 103 671 356 671 c 0
 568 671 605 514 605 477 c 0
 605 467 600 462 590 460 c 2
 549 450 l 2
 544 449 539 447 534 447 c 0
 528 447 523 447 523 455 c 0
 523 461 525 469 525 484 c 0xea
 525 565 469 641 356 641 c 0
 202 641 132 474 132 360 c 0xe9
356.049804688 842.73046875 m 0xfd
 370.049804688 842.73046875 381.41015625 837.48046875 395.41015625 823.5 c 0
 409.41015625 809.5 414.66015625 799 414.66015625 785 c 0
 414.66015625 771 408.540039062 759.629882812 395.419921875 746.509765625 c 0
 381.419921875 732.509765625 370.049804688 727.259765625 356.049804688 727.259765625 c 0
 342.9296875 727.259765625 332.4296875 732.509765625 317.559570312 746.509765625 c 0
 303.559570312 759.629882812 298.309570312 771 298.309570312 785 c 0
 298.309570312 799 303.559570312 809.5 317.559570312 823.5 c 0
 331.559570312 837.48046875 342.9296875 842.73046875 356.049804688 842.73046875 c 0xfd
EndSplineSet
Substitution2: "'c2sc' Capitals to Small Capitals in Latin lookup 11 subtable" Gdotaccent.sc
AlternateSubs2: "'aalt' Access All Alternates in Latin lookup 0 subtable" Gdotaccent.sc
Position2: "'cpsp' Capital Spacing in Latin lookup 0 subtable" dx=5 dy=0 dh=10 dv=0
EndChar

StartChar: uni1E20
Encoding: 7712 7712 80
Width: 679
GlyphClass: 2
Flags: MW
HStem: -11 30<285 390.5 285 416> 295 32<427 649 431 438 633.5 642 642 649> 641 30<279 412.5> 721 49<243.5 464 248 464>
VStem: 31 101<258.5 397> 525 80<476.5 495.5 472 524.5> 532 87<150 193 193 243>
AnchorPoint: "Anchor-5" 356 739 basechar 0
AnchorPoint: "Anchor-4" 348 0 basechar 0
LayerCount: 2
Fore
SplineSet
132 360 m 0xfa
 132 157 213 19 357 19 c 0
 424 19 532 54 532 126 c 2
 532 193 l 2
 532 293 483 295 438 295 c 2
 431 295 l 2
 423 295 418 299 418 308 c 2
 418 314 l 2
 418 323 423 327 431 327 c 2
 649 327 l 2
 657 327 662 322 662 314 c 2
 662 308 l 2
 662 299 657 295 649 295 c 2
 642 295 l 2
 625 295 619 286 619 266 c 2
 619 150 l 1xfa
 578 56 483 -11 349 -11 c 0
 152 -11 31 135 31 323 c 0
 31 471 103 671 356 671 c 0
 568 671 605 514 605 477 c 0
 605 467 600 462 590 460 c 2
 549 450 l 2
 544 449 539 447 534 447 c 0
 528 447 523 447 523 455 c 0
 523 461 525 469 525 484 c 0xfc
 525 565 469 641 356 641 c 0
 202 641 132 474 132 360 c 0xfa
477 734 m 2
 477 726 473 721 464 721 c 2
 248 721 l 2
 239 721 235 726 235 734 c 2
 235 757 l 2
 235 766 239 770 248 770 c 2
 464 770 l 2
 473 770 477 766 477 757 c 2
 477 734 l 2
EndSplineSet
Substitution2: "'c2sc' Capitals to Small Capitals in Latin lookup 11 subtable" uni1E20.sc
AlternateSubs2: "'aalt' Access All Alternates in Latin lookup 0 subtable" uni1E20.sc
Position2: "'cpsp' Capital Spacing in Latin lookup 0 subtable" dx=5 dy=0 dh=10 dv=0
EndChar

StartChar: H
Encoding: 72 72 81
Width: 705
GlyphClass: 2
Flags: MW
HStem: 0 33<35.5 45 40 45 45 67.5 246 252 452 458 458 480.5 660 666> 324 37<187 518 187 518> 627 33<35.5 252 40 45 224 246 246 252 452 458 637.5 660 660 666>
VStem: 104 83<116 324 361 544> 518 83<116 324 324 324 361 544>
AnchorPoint: "Anchor-5" 353 660 basechar 0
AnchorPoint: "Anchor-4" 353 0 basechar 0
LayerCount: 2
Fore
SplineSet
601 116 m 2
 601 70 615 33 660 33 c 2
 666 33 l 2
 674 33 679 28 679 20 c 2
 679 13 l 2
 679 4 674 0 666 0 c 2
 452 0 l 2
 444 0 439 4 439 13 c 2
 439 20 l 2
 439 28 444 33 452 33 c 2
 458 33 l 2
 503 33 518 70 518 116 c 2
 518 324 l 1
 187 324 l 1
 187 116 l 2
 187 70 202 33 246 33 c 2
 252 33 l 2
 261 33 265 28 265 20 c 2
 265 13 l 2
 265 4 261 0 252 0 c 2
 40 0 l 2
 31 0 26 4 26 13 c 2
 26 20 l 2
 26 28 31 33 40 33 c 2
 45 33 l 2
 90 33 104 70 104 116 c 2
 104 544 l 2
 104 590 90 627 45 627 c 2
 40 627 l 2
 31 627 26 632 26 640 c 2
 26 647 l 2
 26 656 31 660 40 660 c 2
 252 660 l 2
 261 660 265 656 265 647 c 2
 265 640 l 2
 265 632 261 627 252 627 c 2
 246 627 l 2
 202 627 187 590 187 544 c 2
 187 361 l 1
 518 361 l 1
 518 544 l 2
 518 590 503 627 458 627 c 2
 452 627 l 2
 444 627 439 632 439 640 c 2
 439 647 l 2
 439 656 444 660 452 660 c 2
 666 660 l 2
 674 660 679 656 679 647 c 2
 679 640 l 2
 679 632 674 627 666 627 c 2
 660 627 l 2
 615 627 601 590 601 544 c 2
 601 116 l 2
EndSplineSet
Substitution2: "'ss04' Style Set 4 in Latin lookup 33 subtable" u1F157
Substitution2: "'ss03' Style Set 3 in Latin lookup 31 subtable" uni24BD
Substitution2: "'c2sc' Capitals to Small Capitals in Latin lookup 11 subtable" H.sc
AlternateSubs2: "'aalt' Access All Alternates in Latin lookup 0 subtable" H.sc uni24BD u1F157
Position2: "'cpsp' Capital Spacing in Latin lookup 0 subtable" dx=5 dy=0 dh=10 dv=0
EndChar

StartChar: Hbar
Encoding: 294 294 82
Width: 705
GlyphClass: 2
Flags: MW
HStem: 0 33<35.5 45 40 45 45 67.5 246 252 452 458 458 480.5 660 666> 324 37<187 518 187 518> 440 40<47.5 104 51.5 104 187 518 601 653.5> 627 33<35.5 252 40 45 224 246 246 252 452 458 637.5 660 660 666>
VStem: 104 83<116 324 361 440 480 544> 518 83<116 324 324 324 361 440 480 544>
AnchorPoint: "Anchor-5" 353 660 basechar 0
AnchorPoint: "Anchor-4" 353 0 basechar 0
LayerCount: 2
Fore
SplineSet
601 116 m 2
 601 70 615 33 660 33 c 2
 666 33 l 2
 674 33 679 28 679 20 c 2
 679 13 l 2
 679 4 674 0 666 0 c 2
 452 0 l 2
 444 0 439 4 439 13 c 2
 439 20 l 2
 439 28 444 33 452 33 c 2
 458 33 l 2
 503 33 518 70 518 116 c 2
 518 324 l 1
 187 324 l 1
 187 116 l 2
 187 70 202 33 246 33 c 2
 252 33 l 2
 261 33 265 28 265 20 c 2
 265 13 l 2
 265 4 261 0 252 0 c 2
 40 0 l 2
 31 0 26 4 26 13 c 2
 26 20 l 2
 26 28 31 33 40 33 c 2
 45 33 l 2
 90 33 104 70 104 116 c 2
 104 440 l 1
 51.5 440 l 2
 43.5 440 38.5 444 38.5 453 c 2
 38.5 467 l 2
 38.5 476 43.5 480 51.5 480 c 2
 104 480 l 1
 104 544 l 2
 104 590 90 627 45 627 c 2
 40 627 l 2
 31 627 26 632 26 640 c 2
 26 647 l 2
 26 656 31 660 40 660 c 2
 252 660 l 2
 261 660 265 656 265 647 c 2
 265 640 l 2
 265 632 261 627 252 627 c 2
 246 627 l 2
 202 627 187 590 187 544 c 2
 187 480 l 1
 518 480 l 1
 518 544 l 2
 518 590 503 627 458 627 c 2
 452 627 l 2
 444 627 439 632 439 640 c 2
 439 647 l 2
 439 656 444 660 452 660 c 2
 666 660 l 2
 674 660 679 656 679 647 c 2
 679 640 l 2
 679 632 674 627 666 627 c 2
 660 627 l 2
 615 627 601 590 601 544 c 2
 601 480 l 1
 653.5 480 l 2
 662.5 480 666.5 476 666.5 467 c 2
 666.5 453 l 2
 666.5 444 662.5 440 653.5 440 c 2
 601 440 l 1
 601 116 l 2
187 361 m 1
 518 361 l 1
 518 440 l 1
 187 440 l 1
 187 361 l 1
EndSplineSet
Substitution2: "'c2sc' Capitals to Small Capitals in Latin lookup 11 subtable" Hbar.sc
AlternateSubs2: "'aalt' Access All Alternates in Latin lookup 0 subtable" Hbar.sc
Position2: "'cpsp' Capital Spacing in Latin lookup 0 subtable" dx=5 dy=0 dh=10 dv=0
EndChar

StartChar: uni1E2A
Encoding: 7722 7722 83
Width: 705
GlyphClass: 2
Flags: MW
HStem: -171.4 40.49 1.52588e-05 33 324 37 627 33
VStem: 104 83<116 324 361 544> 230.81 54.65 420.54 54.65 518 83
AnchorPoint: "Anchor-5" 353 660 basechar 0
AnchorPoint: "Anchor-4" 353 0 basechar 0
LayerCount: 2
Fore
SplineSet
601 116 m 2
 601 70 615 33 660 33 c 2
 666 33 l 2
 674 33 679 28 679 20 c 2
 679 13 l 2
 679 4 674 0 666 0 c 2
 452 0 l 2
 444 0 439 4 439 13 c 2
 439 20 l 2
 439 28 444 33 452 33 c 2
 458 33 l 2
 503 33 518 70 518 116 c 2
 518 324 l 1
 187 324 l 1
 187 116 l 2
 187 70 202 33 246 33 c 2
 252 33 l 2
 261 33 265 28 265 20 c 2
 265 13 l 2
 265 4 261 0 252 0 c 2
 40 0 l 2
 31 0 26 4 26 13 c 2
 26 20 l 2
 26 28 31 33 40 33 c 2
 45 33 l 2
 90 33 104 70 104 116 c 2
 104 544 l 2
 104 590 90 627 45 627 c 2
 40 627 l 2
 31 627 26 632 26 640 c 2
 26 647 l 2
 26 656 31 660 40 660 c 2
 252 660 l 2
 261 660 265 656 265 647 c 2
 265 640 l 2
 265 632 261 627 252 627 c 2
 246 627 l 2
 202 627 187 590 187 544 c 2
 187 361 l 1
 518 361 l 1
 518 544 l 2
 518 590 503 627 458 627 c 2
 452 627 l 2
 444 627 439 632 439 640 c 2
 439 647 l 2
 439 656 444 660 452 660 c 2
 666 660 l 2
 674 660 679 656 679 647 c 2
 679 640 l 2
 679 632 674 627 666 627 c 2
 660 627 l 2
 615 627 601 590 601 544 c 2
 601 116 l 2
353 -171.400390625 m 1
 353.100585938 -171.400390625 l 1
 262.100585938 -171.400390625 230.91015625 -103.709960938 230.91015625 -70.91015625 c 0
 230.91015625 -60.91015625 235.549804688 -57.1298828125 245.899414062 -55.919921875 c 0
 249.9296875 -55.4599609375 261.229492188 -55.0400390625 268.109375 -54.349609375 c 0
 281.1796875 -53.029296875 284.939453125 -56.189453125 285.509765625 -70.4697265625 c 0
 286.990234375 -106.950195312 313.240234375 -130.950195312 353.049804688 -130.950195312 c 0
 392.849609375 -130.950195312 419.099609375 -106.950195312 420.579101562 -70.4697265625 c 0
 421.149414062 -56.189453125 424.909179688 -53.029296875 437.989257812 -54.349609375 c 0
 444.859375 -55.0400390625 456.159179688 -55.4599609375 460.189453125 -55.919921875 c 0
 470.559570312 -57.1298828125 475.1796875 -60.91015625 475.1796875 -70.91015625 c 0
 475.1796875 -103.709960938 444 -171.400390625 353 -171.400390625 c 1
EndSplineSet
Substitution2: "'c2sc' Capitals to Small Capitals in Latin lookup 11 subtable" uni1E2A.sc
AlternateSubs2: "'aalt' Access All Alternates in Latin lookup 0 subtable" uni1E2A.sc
Position2: "'cpsp' Capital Spacing in Latin lookup 0 subtable" dx=5 dy=0 dh=10 dv=0
EndChar

StartChar: Hcircumflex
Encoding: 292 292 84
Width: 705
GlyphClass: 2
Flags: MW
HStem: 0 33<35.5 45 40 45 45 67.5 246 252 452 458 458 480.5 660 666> 324 37<187 518 187 518> 627 33<35.5 252 40 45 224 246 246 252 452 458 637.5 660 660 666>
VStem: 104 83<116 324 361 544> 518 83<116 324 324 324 361 544>
AnchorPoint: "Anchor-7" 353 742 basechar 0
AnchorPoint: "Anchor-5" 353 799 basechar 0
AnchorPoint: "Anchor-4" 353 0 basechar 0
LayerCount: 2
Fore
SplineSet
601 116 m 2
 601 70 615 33 660 33 c 2
 666 33 l 2
 674 33 679 28 679 20 c 2
 679 13 l 2
 679 4 674 0 666 0 c 2
 452 0 l 2
 444 0 439 4 439 13 c 2
 439 20 l 2
 439 28 444 33 452 33 c 2
 458 33 l 2
 503 33 518 70 518 116 c 2
 518 324 l 1
 187 324 l 1
 187 116 l 2
 187 70 202 33 246 33 c 2
 252 33 l 2
 261 33 265 28 265 20 c 2
 265 13 l 2
 265 4 261 0 252 0 c 2
 40 0 l 2
 31 0 26 4 26 13 c 2
 26 20 l 2
 26 28 31 33 40 33 c 2
 45 33 l 2
 90 33 104 70 104 116 c 2
 104 544 l 2
 104 590 90 627 45 627 c 2
 40 627 l 2
 31 627 26 632 26 640 c 2
 26 647 l 2
 26 656 31 660 40 660 c 2
 252 660 l 2
 261 660 265 656 265 647 c 2
 265 640 l 2
 265 632 261 627 252 627 c 2
 246 627 l 2
 202 627 187 590 187 544 c 2
 187 361 l 1
 518 361 l 1
 518 544 l 2
 518 590 503 627 458 627 c 2
 452 627 l 2
 444 627 439 632 439 640 c 2
 439 647 l 2
 439 656 444 660 452 660 c 2
 666 660 l 2
 674 660 679 656 679 647 c 2
 679 640 l 2
 679 632 674 627 666 627 c 2
 660 627 l 2
 615 627 601 590 601 544 c 2
 601 116 l 2
353 789.91015625 m 1
 334.940429688 755.879882812 304.358398438 717.66015625 264.758789062 717.66015625 c 0
 243.909179688 717.66015625 234.19921875 737.810546875 234.19921875 760.73046875 c 0
 234.19921875 771.140625 234.889648438 780.180664062 242.529296875 783.640625 c 0
 282.819335938 798.920898438 303.668945312 809.340820312 352.999023438 848.930664062 c 1
 402.319335938 809.340820312 423.168945312 798.920898438 463.458984375 783.640625 c 0
 471.098632812 780.180664062 471.7890625 771.140625 471.7890625 760.73046875 c 0
 471.7890625 737.810546875 462.079101562 717.66015625 441.229492188 717.66015625 c 0
 401.629882812 717.66015625 371.059570312 755.879882812 353 789.91015625 c 1
EndSplineSet
Substitution2: "'c2sc' Capitals to Small Capitals in Latin lookup 11 subtable" Hcircumflex.sc
AlternateSubs2: "'aalt' Access All Alternates in Latin lookup 0 subtable" Hcircumflex.sc
Position2: "'cpsp' Capital Spacing in Latin lookup 0 subtable" dx=5 dy=0 dh=10 dv=0
EndChar

StartChar: uni1E24
Encoding: 7716 7716 85
Width: 705
GlyphClass: 2
Flags: MW
HStem: -171.94 115.48 0 33<35.5 45 40 45 45 67.5 246 252 452 458 458 480.5 660 666> 324 37<187 518 187 518> 627 33<35.5 252 40 45 224 246 246 252 452 458 637.5 660 660 666>
VStem: 104 83<116 324 361 544> 295.32 116.36 518 83
AnchorPoint: "Anchor-5" 353 660 basechar 0
AnchorPoint: "Anchor-4" 353 0 basechar 0
LayerCount: 2
Fore
SplineSet
601 116 m 2
 601 70 615 33 660 33 c 2
 666 33 l 2
 674 33 679 28 679 20 c 2
 679 13 l 2
 679 4 674 0 666 0 c 2
 452 0 l 2
 444 0 439 4 439 13 c 2
 439 20 l 2
 439 28 444 33 452 33 c 2
 458 33 l 2
 503 33 518 70 518 116 c 2
 518 324 l 1
 187 324 l 1
 187 116 l 2
 187 70 202 33 246 33 c 2
 252 33 l 2
 261 33 265 28 265 20 c 2
 265 13 l 2
 265 4 261 0 252 0 c 2
 40 0 l 2
 31 0 26 4 26 13 c 2
 26 20 l 2
 26 28 31 33 40 33 c 2
 45 33 l 2
 90 33 104 70 104 116 c 2
 104 544 l 2
 104 590 90 627 45 627 c 2
 40 627 l 2
 31 627 26 632 26 640 c 2
 26 647 l 2
 26 656 31 660 40 660 c 2
 252 660 l 2
 261 660 265 656 265 647 c 2
 265 640 l 2
 265 632 261 627 252 627 c 2
 246 627 l 2
 202 627 187 590 187 544 c 2
 187 361 l 1
 518 361 l 1
 518 544 l 2
 518 590 503 627 458 627 c 2
 452 627 l 2
 444 627 439 632 439 640 c 2
 439 647 l 2
 439 656 444 660 452 660 c 2
 666 660 l 2
 674 660 679 656 679 647 c 2
 679 640 l 2
 679 632 674 627 666 627 c 2
 660 627 l 2
 615 627 601 590 601 544 c 2
 601 116 l 2
353.059570312 -56.4599609375 m 0
 367.059570312 -56.4599609375 378.419921875 -61.6904296875 392.419921875 -75.6904296875 c 0
 406.419921875 -89.6904296875 411.669921875 -100.190429688 411.669921875 -114.190429688 c 0
 411.669921875 -128.190429688 405.549804688 -139.560546875 392.4296875 -152.680664062 c 0
 378.4296875 -166.680664062 367.059570312 -171.930664062 353.059570312 -171.930664062 c 0
 339.939453125 -171.930664062 329.439453125 -166.680664062 314.569335938 -152.680664062 c 0
 300.569335938 -139.560546875 295.319335938 -128.190429688 295.319335938 -114.190429688 c 0
 295.319335938 -100.190429688 300.569335938 -89.6904296875 314.569335938 -75.6904296875 c 0
 328.569335938 -61.6904296875 339.939453125 -56.4599609375 353.059570312 -56.4599609375 c 0
EndSplineSet
Substitution2: "'c2sc' Capitals to Small Capitals in Latin lookup 11 subtable" uni1E24.sc
AlternateSubs2: "'aalt' Access All Alternates in Latin lookup 0 subtable" uni1E24.sc
Position2: "'cpsp' Capital Spacing in Latin lookup 0 subtable" dx=5 dy=0 dh=10 dv=0
EndChar

StartChar: I
Encoding: 73 73 86
Width: 298
GlyphClass: 2
Flags: MW
HStem: 0 33<38.5 49 43 49 49 71.5 250 255> 627 33<38.5 255 43 49 228 250 250 255>
VStem: 108 83<116 544>
AnchorPoint: "Anchor-6" 255 0 basechar 0
AnchorPoint: "Anchor-5" 149 660 basechar 0
AnchorPoint: "Anchor-4" 149 0 basechar 0
LayerCount: 2
Fore
SplineSet
191 116 m 2
 191 70 206 33 250 33 c 2
 255 33 l 2
 264 33 268 28 268 20 c 2
 268 13 l 2
 268 4 264 0 255 0 c 2
 43 0 l 2
 34 0 30 4 30 13 c 2
 30 20 l 2
 30 28 34 33 43 33 c 2
 49 33 l 2
 94 33 108 70 108 116 c 2
 108 544 l 2
 108 590 94 627 49 627 c 2
 43 627 l 2
 34 627 30 632 30 640 c 2
 30 647 l 2
 30 656 34 660 43 660 c 2
 255 660 l 2
 264 660 268 656 268 647 c 2
 268 640 l 2
 268 632 264 627 255 627 c 2
 250 627 l 2
 206 627 191 590 191 544 c 2
 191 116 l 2
EndSplineSet
Substitution2: "'ss04' Style Set 4 in Latin lookup 33 subtable" u1F158
Substitution2: "'ss03' Style Set 3 in Latin lookup 31 subtable" uni24BE
Substitution2: "'c2sc' Capitals to Small Capitals in Latin lookup 11 subtable" I.sc
AlternateSubs2: "'aalt' Access All Alternates in Latin lookup 0 subtable" I.sc uni24BE u1F158
Position2: "'cpsp' Capital Spacing in Latin lookup 0 subtable" dx=5 dy=0 dh=10 dv=0
EndChar

